<?xml version="1.0" standalone="no"?>
<!DOCTYPE svg PUBLIC "-//W3C//DTD SVG 1.1//EN" "http://www.w3.org/Graphics/SVG/1.1/DTD/svg11.dtd" >
<svg>
<metadata>
Created by FontForge 20090914 at Sun Jul  7 13:18:24 2013
 By www-data
Copyright (c) 1992-97 Hewlett-Packard. All rights reserved.
</metadata>
<defs>
<font id="Helvetica" horiz-adv-x="1139" >
  <font-face 
    font-family="Helvetica"
    font-weight="400"
    font-stretch="normal"
    units-per-em="2048"
    panose-1="2 11 6 4 2 2 2 3 2 4"
    ascent="1638"
    descent="-410"
    x-height="1070"
    cap-height="1470"
    bbox="-784.001 -616 2048 1905"
    underline-thickness="102"
    underline-position="-154"
    unicode-range="U+0020-U+FB01"
  />
<missing-glyph horiz-adv-x="669" 
d="M0 1274h569v-1274h-569v1274zM100 1174v-1074h369v1074h-369z" />
    <glyph glyph-name=".notdef" horiz-adv-x="669" 
d="M0 1274h569v-1274h-569v1274zM100 1174v-1074h369v1074h-369z" />
    <glyph glyph-name="space" unicode=" " horiz-adv-x="569" 
 />
    <glyph glyph-name="exclam" unicode="!" horiz-adv-x="569" 
d="M233 349l-47 667v457h99h100v-457l-47 -667h-53v0h-52zM184 206h202v-206h-202v206z" />
    <glyph glyph-name="quotedbl" unicode="&#x22;" horiz-adv-x="727" 
d="M143 949v521h149v-521h-149zM435 949v521h149v-521h-149z" />
    <glyph glyph-name="numbersign" unicode="#" 
d="M543 1411l-62 -437h254l62 437h130l-62 -437h218l-18 -129h-218l-41 -290h218l-18 -129h-218l-61 -428h-130l61 428h-254l-61 -428h-130l61 428h-217l18 129h217l41 290h-217l18 129h217l62 437h130zM462 845l-40 -290h254l41 290h-255z" />
    <glyph glyph-name="dollar" unicode="$" 
d="M616 1580v-116c116.667 -8.66699 211.334 -43 284.001 -103c85.333 -70.667 130.666 -167.667 135.999 -291v0h-173v0c-7.33301 78.667 -37.666 139.334 -90.999 182.001c-40 32.667 -92 52.667 -156 60v-496l66 -17c133.333 -34 230.666 -83 291.999 -147
c60.667 -64 91 -148.667 91 -254c0 -134 -43.333 -240.667 -130 -320c-80 -72.667 -186.333 -112 -319 -118v-200h-97v201c-142 10 -250.667 48.667 -326 116c-84.667 77.333 -127 190.666 -127 339.999v11v0h177v0c3.33301 -110 32 -189.667 86 -239
c44 -39.333 107.333 -63 190 -71v536l-26 7c-138.667 35.333 -239.667 84.333 -303 147c-63.333 62 -95 143.333 -95 244c0 126.667 41.667 227.334 125 302.001c76 67.333 175.667 104.666 299 111.999v114h97zM519 1315c-72.667 -5.33301 -129.667 -26.333 -171 -63
c-47.333 -42 -71 -103.667 -71 -185c0 -54.667 20.333 -101 61 -139c40.667 -37.333 101 -66 181 -86v472v1zM616 116c82 4 146 25.333 192 64c50.667 43.333 76 106.333 76 189c0 64 -19.333 117 -58 159c-38 41.333 -95.667 72 -173 92l-37 9v-514v1z" />
    <glyph glyph-name="percent" unicode="%" horiz-adv-x="1821" 
d="M428 724c-94.667 0 -176.334 34.5 -245.001 103.5s-103 151.167 -103 246.5s34.333 177.666 103 246.999s150.334 104 245.001 104s176.5 -34.667 245.5 -104s103.5 -151.666 103.5 -246.999s-34.5 -177.5 -103.5 -246.5s-150.833 -103.5 -245.5 -103.5v0zM428 1281
c-56 0 -104.167 -20.5 -144.5 -61.5s-60.5 -89.5 -60.5 -145.5s20.167 -104.333 60.5 -145s88.5 -61 144.5 -61s104.333 20.333 145 61s61 89 61 145s-20.333 104.5 -61 145.5s-89 61.5 -145 61.5v0zM437 -34l835 1474h112l-835 -1474h-112zM1392 -6
c-94.667 0 -176.334 34.5 -245.001 103.5s-103 151.167 -103 246.5s34.333 177.666 103 246.999s150.334 104 245.001 104s176.5 -34.667 245.5 -104s103.5 -151.666 103.5 -246.999s-34.5 -177.5 -103.5 -246.5s-150.833 -103.5 -245.5 -103.5v0zM1392 551
c-56 0 -104.167 -20.5 -144.5 -61.5s-60.5 -89.5 -60.5 -145.5s20.167 -104.333 60.5 -145s88.5 -61 144.5 -61s104.333 20.333 145 61s61 89 61 145s-20.333 104.5 -61 145.5s-89 61.5 -145 61.5v0z" />
    <glyph glyph-name="ampersand" unicode="&#x26;" horiz-adv-x="1366" 
d="M262 1130c0 100 33.001 180.833 99.001 242.5s152.667 92.5 260 92.5c98.667 0 178.5 -29 239.5 -87s91.5 -134.333 91.5 -229c0 -67.333 -31.333 -137.666 -94 -210.999c-48 -56.667 -108.333 -107 -181 -151l254 -312l21 -26l5 10c30.667 76 49.667 152.333 57 229h160
c-8.66699 -97.333 -32.334 -194 -71.001 -290c-12 -30.667 -25 -59 -39 -85l257 -313h-226l-134 160c-61.333 -63.333 -128.166 -111.333 -200.499 -144s-151.5 -49 -237.5 -49c-129.333 0 -233.833 35.667 -313.5 107s-119.5 165 -119.5 281
c0 108.667 31.333 201.667 94 279c49.333 60.667 127.666 122 234.999 184l-10 11c-44 53.333 -79.5 107.666 -106.5 162.999s-40.5 101.333 -40.5 138zM540.001 127c52 0 106.001 13.5 162.001 40.5s104 62.167 144 105.5l10 11l-106 129l-233 284
c-66.667 -40 -120.334 -81.667 -161.001 -125c-58.667 -63.333 -88 -129 -88 -197c0 -74 25 -134 75 -180c50 -45.333 115.667 -68 197 -68zM440.002 1159c0 -22.667 9.66797 -52.832 29.001 -90.499s44.666 -76.167 75.999 -115.5l41 -51
c44 29.333 82.333 60.666 115 93.999c48.667 51.333 73 100.333 73 147c0 50.667 -15.333 91.5 -46 122.5s-71 46.5 -121 46.5s-90.333 -14 -121 -42s-46 -65 -46 -111z" />
    <glyph glyph-name="quotesingle" unicode="'" horiz-adv-x="391" 
d="M121 949v521h149v-521h-149z" />
    <glyph glyph-name="parenleft" unicode="(" horiz-adv-x="682" 
d="M139 540c0 166.667 28 326.833 84 480.5s144.667 314.167 266 481.5h123c-97.333 -171.333 -168.5 -334 -213.5 -488s-67.5 -312 -67.5 -474c0 -163.333 22.5 -322 67.5 -476s116.167 -316.333 213.5 -487h-123c-121.333 167.333 -210 328 -266 482s-84 314.333 -84 481z
" />
    <glyph glyph-name="parenright" unicode=")" horiz-adv-x="682" 
d="M543 539c0 -166.667 -28 -326.833 -84 -480.5s-144.667 -314.167 -266 -481.5h-123c97.333 171.333 168.5 334 213.5 488s67.5 312 67.5 474c0 163.333 -22.5 322 -67.5 476s-116.167 316.333 -213.5 487h123c121.333 -167.333 210 -328 266 -482s84 -314.333 84 -481z
" />
    <glyph glyph-name="asterisk" unicode="*" horiz-adv-x="797" 
d="M459 1478l-7 -236v0l222 79l39 -118l-228 -65v0l145 -184l-101 -73l-134 195v0l-132 -194l-101 72l145 186v0l-227 64l38 118l224 -79v0l-8 235h125z" />
    <glyph glyph-name="plus" unicode="+" horiz-adv-x="1196" 
d="M523 440h-443v150h443v443h150v-443h443v-150h-443v-443h-150v443z" />
    <glyph glyph-name="comma" unicode="," horiz-adv-x="569" 
d="M178 109v109.002h107h106v-182c0 -103.333 -16.333 -180.833 -49 -232.5s-87.334 -86.834 -164.001 -105.501v0v95v0c42 7.33301 71 30.666 87 69.999c12.667 30 20.334 75.667 23.001 137h-3h-107v109z" />
    <glyph glyph-name="hyphen" unicode="-" horiz-adv-x="682" 
d="M90 659h502v-185h-502v185z" />
    <glyph glyph-name="period" unicode="." horiz-adv-x="569" 
d="M178 217h214v-217h-214v217z" />
    <glyph glyph-name="slash" unicode="/" horiz-adv-x="569" 
d="M603 1508l-500 -1548h-137l500 1548h137z" />
    <glyph glyph-name="zero" unicode="0" 
d="M569 -39c-157.333 0 -278.833 64 -364.5 192s-128.5 310.333 -128.5 547s42.833 419.167 128.5 547.5s207.167 192.5 364.5 192.5c158.667 0 280.667 -64.167 366 -192.5s128 -310.833 128 -547.5s-42.667 -419 -128 -547s-207.333 -192 -366 -192v0zM569 123
c101.333 0 177.333 48 228 144s75.667 240.333 75 433c0.666992 192.667 -24.333 337.167 -75 433.5s-126.667 144.5 -228 144.5c-100.667 0 -176 -48.167 -226 -144.5s-75.333 -240.833 -76 -433.5c0.666992 -192.667 26 -337 76 -433s125.333 -144 226 -144v0z" />
    <glyph glyph-name="one" unicode="1" 
d="M544 0v1022v0h-337v144c99.333 -2 180 19.333 242 64c62.667 45.333 109 115.333 139 210h147v0v-1440v0h-95h-96v0z" />
    <glyph glyph-name="two" unicode="2" 
d="M1039 1016c0 -106 -27.165 -193.166 -81.498 -261.499s-156.5 -143.833 -306.5 -226.5c-162.667 -89.333 -273.667 -171 -333 -245c-24.667 -32 -45 -68 -61 -108v0h782v-175h-986v0c0 151.333 37.667 275.166 113 371.499s216.666 201.5 423.999 315.5
c100.667 56 169.334 107.333 206.001 154s55 106.667 55 180c0 76.667 -27.333 139.334 -82 188.001s-124.667 73 -210 73c-89.333 0 -159.5 -30.5 -210.5 -91.5s-78.167 -147.5 -81.5 -259.5v0h-175v0c-2.66699 158.667 39.666 283.167 126.999 373.5s209 135.5 365 135.5
c133.333 0 242.666 -39.667 327.999 -119c84.667 -78.667 127 -180.334 127 -305.001z" />
    <glyph glyph-name="three" unicode="3" 
d="M832 1049c0 68 -25.8389 123.5 -77.5059 166.5s-117.834 64.5 -198.501 64.5c-85.333 0 -150.666 -26.167 -195.999 -78.5s-70.333 -130.5 -75 -234.5v0h-175v0c0 150.667 39.5 267.167 118.5 349.5s190.833 123.5 335.5 123.5c136.667 0 246.834 -34.167 330.501 -102.5
s125.5 -158.5 125.5 -270.5c0 -111.333 -42 -201.333 -126 -270c-16 -13.333 -33.333 -25.333 -52 -36v0c34.667 -15.333 65.334 -33.666 92.001 -54.999c90 -70.667 135 -166 135 -286c0 -134.667 -46.667 -244.834 -140 -330.501s-213.333 -128.5 -360 -128.5
c-161.333 0 -283 38.833 -365 116.5s-126.667 196.5 -134 356.5v0h189v0c10.667 -112 40.334 -192.167 89.001 -240.5s124.334 -72.5 227.001 -72.5c88.667 0 161.334 25.5 218.001 76.5s85 116.5 85 196.5c0 84 -27.333 150.667 -82 200
c-46.667 42.667 -106.667 66.667 -180 72c-34 2 -66.167 3 -96.5 3s-50.5 -1.33301 -60.5 -4v158c14.667 -3.33301 37.334 -5 68.001 -5s61 2 91 6c58 7.33301 105 26.333 141 57c48.667 40 73 96 73 168z" />
    <glyph glyph-name="four" unicode="4" 
d="M686 345h-635v84v84l666 926h75h75v-940v0h204v-154h-204v0v-345h-181v345v0zM686 499v657v0v0l-459 -643l-10 -14v0h469z" />
    <glyph glyph-name="five" unicode="5" 
d="M1053 463c0 -147.333 -46.165 -267.834 -138.498 -361.501s-210.833 -140.5 -355.5 -140.5c-144 0 -259.667 36 -347 108s-136 171.333 -146 298v0h187v0c10 -80 42.333 -141.833 97 -185.5s127 -65.5 217 -65.5c86.667 0 157.5 30.333 212.5 91s82.5 138.667 82.5 234
c0 100 -28.667 179.5 -86 238.5s-135 88.5 -233 88.5c-52.667 0 -103.834 -12.667 -153.501 -38s-87.167 -57.666 -112.5 -96.999l-152 10l104 768v0h746v-175h-611v0l-62 -394v0l6 4c79.333 54.667 163 82 251 82c151.333 0 271.666 -42 360.999 -126
c88.667 -83.333 133 -196.333 133 -339z" />
    <glyph glyph-name="six" unicode="6" 
d="M609 1440c126.667 0 227.5 -34.1709 302.5 -102.504s115.167 -162.5 120.5 -282.5v0h-178v0c-6.66699 71.333 -31.334 126.333 -74.001 165s-99.667 58 -171 58c-111.333 0 -197 -53.333 -257 -160c-52 -91.333 -80.667 -215.666 -86 -372.999v0
c89.333 114 203.333 171 342 171c136 0 245.5 -43.833 328.5 -131.5s124.5 -203.167 124.5 -346.5s-45.167 -258.666 -135.5 -345.999s-209.166 -131 -356.499 -131c-157.333 0 -278.5 60.833 -363.5 182.5s-127.5 294.834 -127.5 519.501
c0 248.667 46.333 440.334 139 575.001c92 134.667 222.667 202 392 202zM288 437.996c0 -92.667 27.168 -168.333 81.501 -227s124.166 -88 209.499 -88s155.166 29.333 209.499 88s81.5 134.334 81.5 227.001s-27.167 168.5 -81.5 227.5s-124.166 88.5 -209.499 88.5
s-155.333 -29.667 -210 -89c-54 -58.667 -81 -134.334 -81 -227.001z" />
    <glyph glyph-name="seven" unicode="7" 
d="M284 0c46 241.333 118.668 464.666 218.001 669.999c97.333 198.667 222.666 387.334 375.999 566.001v0h-802v175h995v-80v-80c-157.333 -185.333 -284 -380 -380 -584c-96 -204.667 -164.667 -427 -206 -667h-201z" />
    <glyph glyph-name="eight" unicode="8" 
d="M818 762c38.667 -17.333 74 -38.999 106 -64.999c90 -72.667 135 -168.667 135 -288c0 -134.667 -45 -243 -135 -325s-208.667 -123 -356 -123s-265.833 41 -355.5 123s-134.5 190.333 -134.5 325c0 119.333 45 215.666 135 288.999c31.333 25.333 66 46.333 104 63v0
c-24 13.333 -47 28 -69 44c-80.667 62.667 -121 145.334 -121 248.001c0 116 40.5 209.5 121.5 280.5s187.5 106.5 319.5 106.5s238.5 -35.5 319.5 -106.5s121.5 -164.5 121.5 -280.5c0 -102.667 -40.667 -185.334 -122 -248.001c-21.333 -16.667 -44.333 -31 -69 -43z
M568 837.001c73.333 0 133.333 20.5 180 61.5s70 93.833 70 158.5s-23.333 117.667 -70 159s-106.667 62 -180 62s-133.333 -20.667 -180 -62s-70 -94.333 -70 -159s23.333 -117.667 70 -159c46.667 -40.667 106.667 -61 180 -61zM568 681.001
c-88 0 -159.833 -26.167 -215.5 -78.5s-83.5 -119.5 -83.5 -201.5c0 -81.333 27.833 -148 83.5 -200s127.5 -78 215.5 -78s160 26 216 78s84 118.667 84 200c0 82 -28 149.333 -84 202c-56 52 -128 78 -216 78z" />
    <glyph glyph-name="nine" unicode="9" 
d="M531 -40c-127.333 0 -228.834 34.168 -304.501 102.501s-116.167 162.5 -121.5 282.5v0h174v0c7.33301 -74 32.833 -131.167 76.5 -171.5s102.167 -60.5 175.5 -60.5c108 0 191.333 60.333 250 181c42.667 90 70.334 208.333 83.001 355v0
c-89.333 -110 -200.333 -165 -333 -165c-133.333 0 -240.833 43.833 -322.5 131.5s-122.5 203.167 -122.5 346.5s44.333 258.666 133 345.999s205.667 131 351 131c154.667 0 273.834 -54.833 357.501 -164.5s125.5 -265.5 125.5 -467.5
c0 -271.333 -45.333 -480.333 -136 -627s-219.334 -220 -386.001 -220zM842.999 962.001c0 92.667 -26.333 168.333 -79 227s-120.667 88 -204 88s-151.333 -29.333 -204 -88s-79 -134.334 -79 -227.001s26.333 -168.5 79 -227.5s120.667 -88.5 204 -88.5
s151.333 29.667 204 89c52.667 58.667 79 134.334 79 227.001z" />
    <glyph glyph-name="colon" unicode=":" horiz-adv-x="569" 
d="M178 217h214v-217h-214v217zM178 1059h214v-217h-214v217z" />
    <glyph glyph-name="semicolon" unicode=";" horiz-adv-x="569" 
d="M178 109l0.000976562 109.002h107h106v-182c0 -104 -16.333 -181.833 -49 -233.5s-87.334 -86.834 -164.001 -105.501v0v94v0c42 7.33301 71 30.666 87 69.999c12.667 30.667 20 77 22 139h-2h-107v109zM178.001 1059h214v-217h-214v217z" />
    <glyph glyph-name="less" unicode="&#x3c;" horiz-adv-x="1196" 
d="M98 440v75v75l1000 424v-163l-792 -336v0l792 -336v-163z" />
    <glyph glyph-name="equal" unicode="=" horiz-adv-x="1196" 
d="M80 384h1036v-151h-1036v151zM80 798h1036v-151h-1036v151z" />
    <glyph glyph-name="greater" unicode="&#x3e;" horiz-adv-x="1196" 
d="M1098 440l-1000 -424v163l792 336v0l-792 336v163l1000 -424v-75v-75z" />
    <glyph glyph-name="question" unicode="?" 
d="M579 1337c-90.667 0 -158.668 -25 -204.001 -75s-73.333 -131 -84 -243v0h-176v0c7.33301 152 51.333 269.333 132 352s191.334 124 332.001 124c128 0 231.5 -36.5 310.5 -109.5s118.5 -168.5 118.5 -286.5c0 -69.333 -17 -134.166 -51 -194.499
s-91 -126.833 -171 -199.5c-52 -46.667 -88.333 -94.667 -109 -144s-30 -109 -28 -179h-176c-2.66699 98.667 11 182.667 41 252s82 137 156 203c53.333 46.667 91.333 90.167 114 130.5s34 84.166 34 131.499c0 72.667 -21.667 130.667 -65 174
c-42.667 42.667 -100.667 64 -174 64zM460.999 208h200v-208h-200v208z" />
    <glyph glyph-name="at" unicode="@" horiz-adv-x="2079" 
d="M1346 412c72.667 0 141.332 47.5 205.999 142.5s97 196.167 97 303.5c0 146 -55.667 269.5 -167 370.5s-247.666 151.5 -408.999 151.5c-174.667 0 -322.334 -62.5 -443.001 -187.5s-181 -277.833 -181 -458.5s61.167 -333.5 183.5 -458.5s272.166 -187.5 449.499 -187.5
c100 0 197.5 21.5 292.5 64.5s169.833 99.833 224.5 170.5h135c-62 -109.333 -152.167 -197.333 -270.5 -264s-243.166 -100 -374.499 -100c-220.667 0 -407.167 74.833 -559.5 224.5s-228.5 333.167 -228.5 550.5s74.333 400.833 223 550.5s330.334 224.5 545.001 224.5
c198.667 0 366.5 -63 503.5 -189s205.5 -280 205.5 -462c0 -146 -50.333 -278.333 -151 -397s-212.667 -178 -336 -178c-52.667 0 -90 23.667 -112 71c-6.66699 15.333 -11.667 32 -15 50v0l-16 -15c-74.667 -70.667 -156.334 -106 -245.001 -106
c-88 0 -158.5 31.167 -211.5 93.5s-79.5 144.833 -79.5 247.5c0 150 47.333 279.333 142 388s207 163 337 163c98 0 170.333 -52 217 -156l8 -18v0l41 142v0h144l-179 -616c-10 -32 -12.667 -59.167 -8 -81.5s15.334 -33.5 32.001 -33.5zM1087 1026
c-82.667 0 -155.001 -41.332 -217.001 -123.999s-93.333 -179.334 -94 -290.001c0 -59.333 14.5 -104.5 43.5 -135.5s71.167 -46.5 126.5 -46.5c58.667 0 114 24.5 166 73.5s89 111.833 111 188.5c28.667 98 30.334 178.167 5.00098 240.5s-72.333 93.5 -141 93.5z" />
    <glyph glyph-name="A" unicode="A" horiz-adv-x="1366" 
d="M29 0l555 1470h113h114l528 -1470v0h-107h-107v0l-149 426v0h-588v0l-154 -426v0h-102h-103v0zM688 1254l-236 -652v0h463v0l-227 652v0v0z" />
    <glyph glyph-name="B" unicode="B" horiz-adv-x="1366" 
d="M152 0l0.000976562 1470v0h99v0h547c125.333 0 226.333 -32.167 303 -96.5s115 -149.166 115 -254.499c0 -122 -45.333 -217.333 -136 -286c-20.667 -16 -43 -29.667 -67 -41v0c48.667 -17.333 91 -39 127 -65c96 -70 144 -167 144 -291
c0 -136.667 -46.833 -243.5 -140.5 -320.5s-223.834 -115.5 -390.501 -115.5h-502v0h-99v0zM351.001 1300v-455.999v0h355c108 0 187 19.5 237 58.5s75 100.5 75 184.5c0 73.333 -23 127.166 -69 161.499s-118.333 51.5 -217 51.5h-381v0zM351.001 683v-513v0h405
c114 0 197.5 22 250.5 66s79.5 113.333 79.5 208c0 82.667 -27.667 143.167 -83 181.5s-142.333 57.5 -261 57.5h-391v0z" />
    <glyph glyph-name="C" unicode="C" horiz-adv-x="1479" 
d="M1395 541c-25.333 -181.333 -94.832 -323.501 -208.499 -426.501s-257.5 -154.5 -431.5 -154.5c-202.667 0 -364.167 69.833 -484.5 209.5s-180.5 327.834 -180.5 564.501s62.5 425.167 187.5 565.5s292.833 210.5 503.5 210.5c166 0 302.333 -42.667 409 -128
s170.667 -203 192 -353v0h-192v0c-18.667 97.333 -63.834 172.5 -135.501 225.5s-163.834 79.5 -276.501 79.5c-147.333 0 -264.666 -54.167 -351.999 -162.5s-131 -254.166 -131 -437.499c0 -194.667 40.5 -343 121.5 -445s198.5 -153 352.5 -153
c114 0 208.667 35.167 284 105.5s125.333 170.166 150 299.499v0h192z" />
    <glyph glyph-name="D" unicode="D" horiz-adv-x="1479" 
d="M166 0v1470v0h99v0h505c186.667 0 335.167 -66.5 445.5 -199.5s165.5 -311.833 165.5 -536.5c0 -224 -56.5 -402.333 -169.5 -535s-265.5 -199 -457.5 -199h-489v0h-99v0zM365 170h363.999c142.667 0 252.834 49 330.501 147s116.5 237 116.5 417
c0 180.667 -37.333 320.167 -112 418.5s-180.667 147.5 -318 147.5h-381v0v-1130z" />
    <glyph glyph-name="E" unicode="E" horiz-adv-x="1366" 
d="M176 0v1470v0h1075v0v-88v-88v0h-876v0v-449v0h800v-88v-88v0h-800v0v-493v0h887v0v-88v-88v0h-1086z" />
    <glyph glyph-name="F" unicode="F" horiz-adv-x="1251" 
d="M176 0v1470v0h1018v0v-88v-88v0h-819v0v-449v0h717v-88v-88v0h-717v0v-669h-99h-100z" />
    <glyph glyph-name="G" unicode="G" horiz-adv-x="1593" 
d="M782 -40c-204 0 -368.999 71.1689 -494.999 213.502s-189 329.166 -189 560.499c0 232 64.333 419.333 193 562s297 214 505 214c160.667 0 298.834 -45 414.501 -135s183.5 -205.333 203.5 -346v0h-192v0c-18.667 97.333 -66 172.5 -142 225.5s-174.667 79.5 -296 79.5
c-143.333 0 -259.333 -55.5 -348 -166.5s-133 -256.5 -133 -436.5c0 -191.333 42.833 -339.333 128.5 -444s206.5 -157 362.5 -157c151.333 0 273.666 55.333 366.999 166c14.667 17.333 28 35.666 40 54.999c16 26 29.5 62.333 40.5 109s16.5 91 16.5 133v18v0h-461v168
h644v-778h-124l-48 185v0l-11 -13c-120.667 -142 -279.334 -213 -476.001 -213z" />
    <glyph glyph-name="H" unicode="H" horiz-adv-x="1479" 
d="M158 0v1470v0h99h100v0v-603v0h767v0v603v0h99h100v0v-1470v0h-99h-100v0v691v0h-767v0v-691v0h-99h-100v0z" />
    <glyph glyph-name="I" unicode="I" horiz-adv-x="569" 
d="M186 0v1470v0h99h100v0v-1470v0h-99h-100v0z" />
    <glyph glyph-name="J" unicode="J" horiz-adv-x="1024" 
d="M678 1470l99 0.000976562h100v0v-1057c0 -144.667 -36.5 -256.334 -109.5 -335.001s-176.833 -118 -311.5 -118c-137.333 0 -243.333 36.667 -318 110s-109 174.333 -103 303v102h186v-102c0 -78 19.333 -138.167 58 -180.5s93.667 -63.5 165 -63.5
c72 0 129 25.5 171 76.5s63 120.167 63 207.5v0v1057z" />
    <glyph glyph-name="K" unicode="K" horiz-adv-x="1366" 
d="M156 0v1470v0h99h100v0v-714v0l716 714v0h137h138v0l-623 -601v0l635 -869v0h-129h-130v0l-522 727v0l-222 -214v0v-513v0h-99h-100v0z" />
    <glyph glyph-name="L" unicode="L" 
d="M156 0v1470v0h99h100v0v-1294v0h745v0v-88v-88v0h-944z" />
    <glyph glyph-name="M" unicode="M" horiz-adv-x="1706" 
d="M343 0h-96h-97v0v1470v0h143h143v0l420 -1251v0v0l417 1251v0h143h143v0v-1470v0h-96h-97v0v1244v0l-415 -1244h-96h-96l-416 1240v0v-1240z" />
    <glyph glyph-name="N" unicode="N" horiz-adv-x="1479" 
d="M348 0h-96h-96v0v1470v0h119h120v0l736 -1195v0v0v1195v0h96h96v0v-1470h-109h-109l-757 1199v0v0v-1199z" />
    <glyph glyph-name="O" unicode="O" horiz-adv-x="1593" 
d="M796 -40c-213.333 0 -386 71.167 -518 213.5s-198 329.166 -198 560.499c0 232 66 419.333 198 562s304.667 214 518 214c214.667 0 387.834 -71.333 519.501 -214s197.5 -330 197.5 -562c0 -231.333 -65.833 -418.166 -197.5 -560.499s-304.834 -213.5 -519.501 -213.5
v0zM796 136c153.333 0 277 55 371 165s141 254.333 141 433c0 179.333 -47 324.166 -141 434.499s-217.667 165.5 -371 165.5c-152.667 0 -276 -55.167 -370 -165.5s-141 -255.166 -141 -434.499c0 -178.667 47 -323 141 -433s217.333 -165 370 -165v0z" />
    <glyph glyph-name="P" unicode="P" horiz-adv-x="1366" 
d="M176 0v1470v0h99v0h544c142.667 0 254.167 -35.833 334.5 -107.5s120.5 -170.834 120.5 -297.501c0 -139.333 -40.167 -248.333 -120.5 -327s-191.833 -118 -334.5 -118c-187.333 0.666992 -335.333 0 -444 -2v0v-618v0h-99h-100v0zM375 790.001h395
c103.333 0 179 21.833 227 65.5s72 112.167 72 205.5c0 82.667 -24 143.167 -72 181.5s-123.667 57.5 -227 57.5h-395v0v-510z" />
    <glyph glyph-name="Q" unicode="Q" horiz-adv-x="1593" 
d="M1402 -112l-220.001 173.002v0c-109.333 -66.667 -238 -100.334 -386 -101.001c-213.333 0 -386 71.167 -518 213.5s-198 329.166 -198 560.499c0 232 66 419.333 198 562s304.667 214 518 214c214.667 0 387.834 -71.333 519.501 -214s197.5 -330 197.5 -562
c0 -231.333 -66 -418.333 -198 -561l-14 -14v0l41 -33c98 -78.667 150 -120.667 156 -126zM867.999 308.002l96 120.001l184 -147v0l19 20c94 110 141 254.333 141 433c0 179.333 -47 324.166 -141 434.499s-217.667 165.5 -371 165.5c-152.667 0 -276 -55.167 -370 -165.5
s-141 -255.166 -141 -434.499c0 -178.667 47 -323 141 -433s217.333 -165 370 -165c85.333 1.33301 161.333 17.666 228 48.999v0z" />
    <glyph glyph-name="R" unicode="R" horiz-adv-x="1479" 
d="M180 0v1470v0h99v0h585c156 0 274.667 -33.833 356 -101.5s122 -166.834 122 -297.501c0 -128.667 -42.333 -229.334 -127 -302.001c-21.333 -18 -44.333 -34 -69 -48v0l33 -16c89.333 -51.333 135.666 -137.666 138.999 -258.999l8 -268c1.33301 -44 7 -75.667 17 -95
s29.333 -36 58 -50v-32h-245c-5.33301 12 -10.666 43.333 -15.999 94s-9.33301 107 -12 169l-4 116c-2.66699 91.333 -25 156.5 -67 195.5s-110.667 58.5 -206 58.5h-472v0v-634v0h-99h-100v0zM379 806.001l492 0.000976562c92 0 159.333 20.167 202 60.5
s64 104.166 64 191.499c0 84.667 -22.5 146.667 -67.5 186s-116.167 59 -213.5 59h-477v0v-497z" />
    <glyph glyph-name="S" unicode="S" horiz-adv-x="1366" 
d="M1052 1044c-8.66699 92.667 -45.1709 164.164 -109.504 214.497s-150.833 75.5 -259.5 75.5c-112 0 -197 -21.667 -255 -65s-87 -106.666 -87 -189.999c0 -56.667 19.333 -99 58 -127s116.334 -55.667 233.001 -83l256 -61c137.333 -32.667 235.333 -81 294 -145
c58.667 -63.333 88 -153 88 -269c0 -133.333 -50.5 -239 -151.5 -317s-237.833 -117 -410.5 -117c-192 0 -342 45 -450 135c-105.333 88.667 -158 210 -158 364v11v0h183v0c3.33301 -106.667 42 -189 116 -247s177 -87 309 -87c122 0 214.667 21 278 63s95 103.667 95 185
c0 70.667 -21 123 -63 157c-41.333 33.333 -124.666 65 -249.999 95l-256 61c-129.333 30.667 -221.666 73.334 -276.999 128.001s-83 130.334 -83 227.001c0 140.667 47.833 252.167 143.5 334.5s224.834 123.5 387.501 123.5c165.333 0 297 -41.333 395 -124
s150.333 -196.667 157 -342v0h-183z" />
    <glyph glyph-name="T" unicode="T" horiz-adv-x="1251" 
d="M526 0v1294v0h-497v0v88v88v0h1193v0v-88v-88v0h-497v0v-1294v0h-99h-100v0z" />
    <glyph glyph-name="U" unicode="U" horiz-adv-x="1479" 
d="M1319 539c0 -181.333 -50.999 -323.166 -152.999 -425.499s-243.667 -153.5 -425 -153.5c-188.667 0 -332.334 49.167 -431.001 147.5s-148 242.166 -148 431.499v931v0h99h100v0v-916c0 -136.667 32.333 -240.5 97 -311.5s159 -106.5 283 -106.5
s218.167 35.5 282.5 106.5s96.5 174.833 96.5 311.5v916v0h99h100v0v-931z" />
    <glyph glyph-name="V" unicode="V" horiz-adv-x="1366" 
d="M41 1470h110h111v0l422 -1256v0v0l421 1256v0h110h110v0l-535 -1470h-107h-107z" />
    <glyph glyph-name="W" unicode="W" horiz-adv-x="1933" 
d="M418 0l-385 1470v0h107h108v0l262 -1162c4.66699 -19.333 8.5 -37.833 11.5 -55.5s4.5 -30.167 4.5 -37.5v0c0 8.66699 1.66699 22 5 40s7.33301 35.667 12 53l311 1162h112h112l309 -1156c5.33301 -18 9.66602 -36.333 12.999 -55s5 -32.334 5 -41.001v0
c0 7.33301 1.5 20.333 4.5 39s6.83301 37.667 11.5 57l265 1156v0h107h107v0l-385 -1470h-107h-107l-319 1137c-5.33301 19.333 -10 38.333 -14 57s-6 31.667 -6 39v0c0 -8.66699 -1.66699 -22.167 -5 -40.5s-7.66602 -36.833 -12.999 -55.5l-312 -1137h-107h-107z" />
    <glyph glyph-name="X" unicode="X" horiz-adv-x="1366" 
d="M39 0l522 734v0l-489 736v0h123h123v0l361 -574v0v0l388 574v0h119h120v0l-515 -723v0l536 -747v0h-122h-122v0l-403 591v0v0l-399 -591v0h-121h-121v0z" />
    <glyph glyph-name="Y" unicode="Y" horiz-adv-x="1366" 
d="M584 588l-555 882v0h116h117v0l422 -713v0l423 713v0h115h115v0l-554 -885v0v-585h-99h-100v588z" />
    <glyph glyph-name="Z" unicode="Z" horiz-adv-x="1251" 
d="M47 173l907 1121v0h-836v0v88v88v0h1085v-86v-87l-907 -1121v0h906v0v-88v-88v0h-1155v86v87z" />
    <glyph glyph-name="bracketleft" unicode="[" horiz-adv-x="569" 
d="M129 -402v1882v0h383v-145h-221v0v-1592v0h221v-145h-383v0z" />
    <glyph glyph-name="backslash" unicode="\" horiz-adv-x="569" 
d="M466 -40l-500 1548h137l500 -1548h-137z" />
    <glyph glyph-name="bracketright" unicode="]" horiz-adv-x="569" 
d="M440 -402h-383v145h221v0v1592v0h-221v145h383v0v-1882z" />
    <glyph glyph-name="asciicircum" unicode="^" horiz-adv-x="961" 
d="M550 1412l439 -877h-157l-353 706v0l-350 -706h-157l438 877h70h70z" />
    <glyph glyph-name="underscore" unicode="_" 
d="M0 -254v104h1139v-104h-1139z" />
    <glyph glyph-name="grave" unicode="`" horiz-adv-x="682" 
d="M297 1214l-268 288h223l180 -288h-135z" />
    <glyph glyph-name="a" unicode="a" 
d="M415 -29c-104.667 0 -187.67 28.001 -249.003 84.001s-92 131.667 -92 227c0 96 28.833 172.333 86.5 229s141.834 92 252.501 106l245 31c20 2 39 5.33301 57 10c23.333 6 41.333 18 54 36s19 40.667 19 68v9c0 57.333 -21.667 102.166 -65 134.499
s-103.666 48.5 -180.999 48.5c-74 0 -131.833 -17.167 -173.5 -51.5s-66.834 -85.5 -75.501 -153.5v0h-166v0c8.66699 117.333 50 205.5 124 264.5s180 88.5 318 88.5c130 0 229 -28.167 297 -84.5s102 -138.5 102 -246.5v-588c0 -18 5.5 -32.5 16.5 -43.5
s25.833 -16.5 44.5 -16.5c5.33301 0 13.166 0.666992 23.499 2s21.5 3.33301 33.5 6v-130c-17.333 -6.66699 -35.666 -12 -54.999 -16s-35.666 -6 -48.999 -6c-68 0 -117.333 18.667 -148 56c-20 24.667 -34.333 59.667 -43 105v0
c-13.333 -16.667 -28.666 -32.667 -45.999 -48c-90 -80.667 -200 -121 -330 -121zM787.997 424.001l-0.000976562 116v0c-33.333 -16 -70.333 -27 -111 -33l-165 -24c-86.667 -12 -150 -32.167 -190 -60.5s-60 -66.833 -60 -115.5c0 -60 16.333 -106.167 49 -138.5
s79 -48.5 139 -48.5c94.667 0 174.667 25.667 240 77c44.667 36 74.334 76.667 89.001 122c2.66699 8.66699 4.66699 22.334 6 41.001c2 19.333 3 40.666 3 63.999z" />
    <glyph glyph-name="b" unicode="b" 
d="M119 1470h89.999h90v0v-539v0c78.667 115.333 180.334 172.333 305.001 171c140 0 250.833 -48.167 332.5 -144.5s122.5 -226.5 122.5 -390.5c0 -186 -41.167 -331.833 -123.5 -437.5s-196.5 -158.5 -342.5 -158.5c-120.667 0 -216.667 46.333 -288 139l-17 22v0v-132v0
h-169v0v1470zM583.999 127c94 0 165.334 35.5 214.001 106.5s73 174.5 73 310.5c0 134 -23.333 233.167 -70 297.5s-118.667 96.5 -216 96.5c-99.333 0 -171.833 -36.333 -217.5 -109s-68.5 -187.667 -68.5 -345v0v0v0c0 -114 24.667 -202 74 -264s119.666 -93 210.999 -93z
" />
    <glyph glyph-name="c" unicode="c" horiz-adv-x="1024" 
d="M977 385c-18.667 -134.667 -66.333 -237.334 -143 -308.001s-178.667 -106 -306 -106c-142 0 -255.333 51 -340 153s-127 239.333 -127 412s43.833 310.167 131.5 412.5s205.5 153.5 353.5 153.5c128.667 0 231.334 -35.167 308.001 -105.5
s117.667 -167.166 123 -290.499v0h-173v0c-7.33301 76.667 -34 136 -80 178s-107.333 63 -184 63c-90.667 0 -161.834 -36.5 -213.501 -109.5s-77.5 -173.5 -77.5 -301.5c0 -136 24 -238.333 72 -307s119.333 -103 214 -103c70 0 128.5 22.5 175.5 67.5
s78.167 108.833 93.5 191.5v0h173z" />
    <glyph glyph-name="d" unicode="d" 
d="M541 -29c-143.333 0 -257.333 53.499 -342 160.499s-127 251.5 -127 433.5c0 160.667 41 290.334 123 389.001s189 148 321 148c131.333 0 235.333 -55.667 312 -167l14 -20v0v555v0h90h90v0v-1470v0h-83h-84v0v146v0l-23 -33c-74 -94.667 -171 -142 -291 -142z
M551 939.999c-100.667 0 -174.332 -32.167 -220.999 -96.5s-70 -166.5 -70 -306.5c0 -132 25.167 -233.667 75.5 -305s122.166 -107 215.499 -107c87.333 0 157.666 32.833 210.999 98.5s80 152.5 80 260.5c0 146 -25.167 258.5 -75.5 337.5s-122.166 118.5 -215.499 118.5z
" />
    <glyph glyph-name="e" unicode="e" 
d="M569 -29c-151.333 0 -270.332 48 -356.999 144s-130 228.667 -130 398c0 180 45.833 323.167 137.5 429.5s214.834 159.5 369.501 159.5c140 0 253 -52 339 -156s129 -240.667 129 -410l-2 -64v0h-782v0c7.33301 -106.667 31.666 -188 72.999 -244
c50.667 -68 130.667 -102 240 -102c68.667 0 128.667 19.333 180 58s82.666 88 93.999 148v0h178v0c-26.667 -117.333 -80 -206.833 -160 -268.5s-183 -92.5 -309 -92.5zM869.001 617c-5.33301 99.333 -29.999 176.667 -73.999 232c-48.667 61.333 -120 92 -214 92
c-94.667 0 -170.334 -35.333 -227.001 -106c-44.667 -55.333 -71.667 -128 -81 -218v0h596z" />
    <glyph glyph-name="f" unicode="f" horiz-adv-x="569" 
d="M357 921l0.000976562 -921.001v0h-90h-90v0v921v0h-148v149h148v0v182c0 79.333 23.333 139 70 179s116.667 60 210 60l79 -3v-162l-71 3c-34.667 0 -61.334 -11.167 -80.001 -33.5s-28 -54.166 -28 -95.499v-130v0h179v-149h-179z" />
    <glyph glyph-name="g" unicode="g" 
d="M525 -303c103.333 0 182 32.5 236 97.5s81 159.833 81 284.5v35l-1 -1c-74 -94.667 -170.667 -142 -290 -142c-143.333 0 -257.333 53.5 -342 160.5s-127 251.5 -127 433.5c0 160.667 41.667 290.334 125 389.001s192.333 148 327 148
c128.667 0 230.667 -55.667 306 -167l13 -19v0v154v0h169v-991c-0.666992 -180.667 -41.334 -314.334 -122.001 -401.001s-204.667 -130 -372 -130c-121.333 0 -217.666 28 -288.999 84s-114.333 137.333 -129 244v0h184v0c10.667 -57.333 36.167 -101.5 76.5 -132.5
s91.833 -46.5 154.5 -46.5zM560 938c-100.667 0 -174.167 -31.999 -220.5 -95.999s-69.5 -165.667 -69.5 -305c0 -131.333 25.167 -232.5 75.5 -303.5s121.833 -106.5 214.5 -106.5c87.333 0 157.666 32.667 210.999 98s80 151.666 80 258.999
c0 151.333 -24.167 264.833 -72.5 340.5s-121.166 113.5 -218.499 113.5z" />
    <glyph glyph-name="h" unicode="h" 
d="M133 0v1470v0h90h90v0v-545v0v0l31 40c78 91.333 175.667 137 293 137c118 0 209 -32 273 -96s96 -155 96 -273v-733v0h-90h-90v0v688c0 88.667 -17 152.5 -51 191.5s-89.333 58.5 -166 58.5c-90.667 0 -162.667 -32.833 -216 -98.5s-80 -154.5 -80 -266.5v0v-573v0h-90
h-90v0z" />
    <glyph glyph-name="i" unicode="i" horiz-adv-x="455" 
d="M139 0v1070v0h90h90v0v-1070v0h-90h-90v0zM137 1470h184v-204h-184v204z" />
    <glyph glyph-name="j" unicode="j" horiz-adv-x="455" 
d="M136 1070h89.999h90v0v-1216c0 -99.333 -21.333 -171 -64 -215s-112 -66 -208 -66c-27.333 0 -52.666 1.66699 -75.999 5v157h35c52 0 87.167 8.16699 105.5 24.5s27.5 47.833 27.5 94.5v0v1216zM133.999 1470h184v-204h-184v204z" />
    <glyph glyph-name="k" unicode="k" horiz-adv-x="1024" 
d="M137 0v1470v0h90h90v0v-847v0l452 447v0h114h115v0l-407 -397v0l434 -673v0h-117h-118v0l-332 544v0l-141 -138v0v-406v0h-90h-90v0z" />
    <glyph glyph-name="l" unicode="l" horiz-adv-x="455" 
d="M137 0v1470v0h90h90v0v-1470v0h-90h-90v0z" />
    <glyph glyph-name="m" unicode="m" horiz-adv-x="1706" 
d="M133 0l0.000976562 1070v0h85h86v0v-159v0v0l37 48c80.667 95.333 177 143 289 143c96 0 172.333 -28.333 229 -85c25.333 -25.333 45 -54.333 59 -87v0l29 37c77.333 90 169.666 135 276.999 135c112 0 198.5 -30.5 259.5 -91.5s91.5 -147.5 91.5 -259.5v-751v0h-90h-90
v0v690c0 81.333 -16.667 143 -50 185s-82 63 -146 63c-78 0 -140 -30.333 -186 -91s-69 -142.667 -69 -246v0v-601v0h-90h-90v0v733c0 66.667 -15.167 117.5 -45.5 152.5s-74.5 52.5 -132.5 52.5c-80 0 -145.5 -34 -196.5 -102s-76.5 -155.667 -76.5 -263v0v-573v0h-90h-90
v0z" />
    <glyph glyph-name="n" unicode="n" 
d="M133 0v1070v0h85h86v0v-158v0v0l40 53c78 91.333 175.667 137 293 137c118 0 209 -32 273 -96s96 -155 96 -273v-733v0h-90h-90v0v672c0 94 -18.167 161.833 -54.5 203.5s-95.166 62.5 -176.499 62.5c-86.667 0 -155.334 -32.833 -206.001 -98.5s-76 -154.5 -76 -266.5v0
v-573v0h-90h-90v0z" />
    <glyph glyph-name="o" unicode="o" 
d="M569 -29c-148 0 -267.833 52 -359.5 156s-137.5 240.333 -137.5 409c0 169.333 45.833 306 137.5 410s211.5 156 359.5 156c149.333 0 269.666 -52 360.999 -156s137 -240.667 137 -410c0 -168.667 -45.667 -305 -137 -409s-211.666 -156 -360.999 -156v0zM569 126
c94.667 0 170 37 226 111s84 173.667 84 299s-28 225.166 -84 299.499s-131.333 111.5 -226 111.5s-169.834 -37.167 -225.501 -111.5s-83.5 -174.166 -83.5 -299.499s27.833 -225 83.5 -299s130.834 -111 225.501 -111v0z" />
    <glyph glyph-name="p" unicode="p" 
d="M119 1070h85h86v0v-152v0l9 13c77.333 114 179 171 305 171c140 0 250.833 -48.167 332.5 -144.5s122.5 -226.5 122.5 -390.5c0 -186 -41.167 -331.833 -123.5 -437.5s-196.5 -158.5 -342.5 -158.5c-120.667 0 -216.667 46.333 -288 139l-6 8v0v-541v0h-90h-90v0v1493z
M584 127c94 0 165.334 35.5 214.001 106.5s73 174.5 73 310.5c0 134 -23.333 233.167 -70 297.5s-118.667 96.5 -216 96.5c-99.333 0 -171.833 -36.333 -217.5 -109s-68.5 -187.667 -68.5 -345v0v0v0c0 -114 24.667 -202 74 -264s119.666 -93 210.999 -93z" />
    <glyph glyph-name="q" unicode="q" 
d="M536 -29c-142 0 -254.834 53.333 -338.501 160s-125.5 251 -125.5 433c0 160.667 40.5 290.5 121.5 389.5s186.833 148.5 317.5 148.5c130 0 233 -55.667 309 -167c8.66699 -12 16.334 -25 23.001 -39v0v174v0h169v0v-1493v0h-90h-90v0v547v0l-9 -11
c-73.333 -94.667 -169 -142 -287 -142zM545.999 940c-99.333 0 -171.832 -32.334 -217.499 -97.001s-68.5 -167 -68.5 -307c0 -131.333 24.667 -232.666 74 -303.999s119.666 -107 210.999 -107c86 0 155.333 32.833 208 98.5s79 152.5 79 260.5
c0 146 -24.833 258.5 -74.5 337.5s-120.167 118.5 -211.5 118.5z" />
    <glyph glyph-name="r" unicode="r" horiz-adv-x="682" 
d="M158 0l0.000976562 1070v0h85h86v0v-183v0v0c15.333 28.667 31.666 54.667 48.999 78c68 91.333 151.667 137 251 137c16.667 0 33.667 -3 51 -9v-184l-37 1c-97.333 0 -172.5 -29.167 -225.5 -87.5s-79.5 -141.5 -79.5 -249.5v0v-573v0h-90h-90v0z" />
    <glyph glyph-name="s" unicode="s" horiz-adv-x="1024" 
d="M746 760c-5.33301 59.333 -29.502 105.334 -72.502 138.001s-100.833 49 -173.5 49c-74.667 0 -131.5 -13 -170.5 -39s-58.5 -64 -58.5 -114c0 -38 13.667 -66.667 41 -86s81.666 -38.666 162.999 -57.999l186 -44c104 -25.333 178.333 -60.333 223 -105
c44 -44 66 -105.667 66 -185c0 -106 -38.167 -190 -114.5 -252s-179.5 -93 -309.5 -93c-150.667 0 -263 29.833 -337 89.5s-115 153.5 -123 281.5v0h173v0c8.66699 -76 35.5 -131 80.5 -165s113.833 -51 206.5 -51c80.667 0 141.834 15.333 183.501 46
s62.5 75.334 62.5 134.001c0 37.333 -13.667 65.666 -41 84.999s-82.333 38.666 -165 57.999l-186 44c-100.667 24 -172.334 57.667 -215.001 101c-42.667 42.667 -64 102.667 -64 180c0 100.667 35.833 180.5 107.5 239.5s168.834 88.5 291.501 88.5
c124.667 0 223.834 -30.333 297.501 -91s112.834 -144.334 117.501 -251.001v0h-169z" />
    <glyph glyph-name="t" unicode="t" horiz-adv-x="569" 
d="M526 1c-61.333 -9.33301 -106 -14.001 -134 -14.001c-78.667 0 -134.167 17.333 -166.5 52s-48.5 94.334 -48.5 179.001v705v0h-148v147h148v0v300h180v-300v0h169v-147h-169v0v-705c0 -24 9.5 -43 28.5 -57s44.5 -21 76.5 -21h64v-139z" />
    <glyph glyph-name="u" unicode="u" 
d="M319 1070l-0.000976562 -690.001c0 -90 17.333 -154.833 52 -194.5s91 -59.5 169 -59.5c86.667 0 155.334 33.5 206.001 100.5s76 157.833 76 272.5v0v571v0h90h90v0v-1070v0h-85h-86v0v163v0v0c-12 -19.333 -25.333 -37.666 -40 -54.999
c-76.667 -91.333 -172.667 -137 -288 -137c-121.333 0 -212.333 30.333 -273 91s-91 151.667 -91 273v735v0h90h90v0z" />
    <glyph glyph-name="v" unicode="v" horiz-adv-x="1024" 
d="M16 1070h105h105v0l287 -876v0v0l296 876v0h99h100v0l-399 -1070h-96h-97z" />
    <glyph glyph-name="w" unicode="w" horiz-adv-x="1479" 
d="M333 0l-304 1070v0h99h99v0l205 -852v0v0l209 852h100h100l215 -858v0v0l217 858v0h89h90v0l-303 -1070h-96h-97l-221 836v0v0l-209 -836h-96h-97z" />
    <glyph glyph-name="x" unicode="x" horiz-adv-x="1024" 
d="M23 0l380 552v0l-360 518v0h116h116v0l246 -381v0v0l248 381v0h111h112v0l-360 -521v0l372 -549v0h-112h-113v0l-267 408v0v0l-262 -408v0h-113h-114v0z" />
    <glyph glyph-name="y" unicode="y" horiz-adv-x="1024" 
d="M1001 1070l-406.999 -1105c-62.667 -164.667 -118.5 -272.334 -167.5 -323.001s-122.5 -76 -220.5 -76c-32 -0.666992 -61 3 -87 11v167c27.333 -10 61.666 -15.333 102.999 -16c40.667 0 74.667 16.667 102 50s58.333 95.666 93 186.999l3 17v0l-397 1088v0h102h103v0
l286 -885v0v0l290 885v0h98h99v0z" />
    <glyph glyph-name="z" unicode="z" horiz-adv-x="1024" 
d="M63 141l642 779v0h-594v0v75v75v0h835v-70v-71l-642 -779v0h657v0v-75v-75v0h-898v70v71z" />
    <glyph glyph-name="braceleft" unicode="{" horiz-adv-x="684" 
d="M598 -406c-109.333 -8.66699 -192.5 8.33496 -249.5 51.002s-85.5 109 -85.5 199v236c0 130 -15 228.667 -45 296s-74 101 -132 101v120c58 0 102 33.667 132 101s45 166 45 296v236c0 90 28.5 156.333 85.5 199s140.167 59.667 249.5 51v-139
c-70.667 5.33301 -117.834 -0.333984 -141.501 -17.001s-35.5 -53 -35.5 -109v-206c0 -190.667 -23.667 -320.667 -71 -390c-25.333 -37.333 -62 -64.333 -110 -81v0c48 -19.333 84.667 -47 110 -83c47.333 -69.333 71 -199.333 71 -390v-206
c0 -56 11.833 -92.333 35.5 -109s70.834 -22.334 141.501 -17.001v-139z" />
    <glyph glyph-name="bar" unicode="|" horiz-adv-x="532" 
d="M193 -512v2048h149v-2048h-149z" />
    <glyph glyph-name="braceright" unicode="}" horiz-adv-x="684" 
d="M86 -406v138.998c70.667 -5.33301 117.834 0.333984 141.501 17.001s35.5 53 35.5 109v206c0 190.667 23.667 320.667 71 390c25.333 36 62 63.667 110 83v0c-48 16.667 -84.667 43.667 -110 81c-47.333 69.333 -71 199.333 -71 390v206c0 56 -11.833 92.333 -35.5 109
s-70.834 22.334 -141.501 17.001v139c109.333 8.66699 192.5 -8.33301 249.5 -51s85.5 -109 85.5 -199v-236c0 -130 15 -228.667 45 -296s74 -101 132 -101v-120c-58 0 -102 -33.667 -132 -101s-45 -166 -45 -296v-236c0 -90 -28.667 -156.333 -86 -199
c-56.667 -42.667 -139.667 -59.667 -249 -51z" />
    <glyph glyph-name="asciitilde" unicode="~" horiz-adv-x="1196" 
d="M125 485c35.333 62.667 72.4971 107.334 111.497 134.001s86.5 40 142.5 40c34 0 69.5 -5.5 106.5 -16.5s84.167 -30.167 141.5 -57.5c43.333 -20 82 -36 116 -48s58.667 -18 74 -18c30 0 60.833 12.667 92.5 38s61.834 61.666 90.501 108.999l71 -116
c-42.667 -62.667 -83.5 -107.334 -122.5 -134.001s-82.833 -40 -131.5 -40c-34.667 0 -70.5 6.33301 -107.5 19s-83.833 34.667 -140.5 66c-30.667 16.667 -63.667 30 -99 40s-68 15 -98 15c-33.333 0 -65.166 -12.667 -95.499 -38s-57.166 -61.666 -80.499 -108.999z" />
    <glyph glyph-name="uni00A0" unicode="&#xa0;" horiz-adv-x="569" 
 />
    <glyph glyph-name="exclamdown" unicode="&#xa1;" horiz-adv-x="682" 
d="M395 723l47 -667v-457h-99h-100v457l47 667h53v0h52zM444 866h-202v206h202v-206z" />
    <glyph glyph-name="cent" unicode="&#xa2;" 
d="M748 1288l86.999 0.000976562l-59 -210c49.333 -18 93.666 -44.333 132.999 -79c79.333 -71.333 126.666 -169.333 141.999 -294v0h-173v0c-13.333 78 -44.333 138.333 -93 181c-15.333 14 -32.666 25.667 -51.999 35l-220 -786c26 -6 53 -9 81 -9
c75.333 0 137.833 21.667 187.5 65s81.834 104.666 96.501 183.999v0h173v0c-18.667 -131.333 -67.667 -231.5 -147 -300.5s-185.333 -103.5 -318 -103.5c-40.667 -0.666992 -79 3.33301 -115 12l-62 -221h-87l69 246c-59.333 25.333 -111.333 64.333 -156 117
c-87.333 102 -131 239.333 -131 412c0 173.333 45.333 311.333 136 414s212.334 154 365.001 154c31.333 0 61.333 -2.33301 90 -7zM434.999 165.001l218 781.001c-17.333 2.66699 -35 4 -53 4c-96 0 -171.333 -36.667 -226 -110s-82 -174.333 -82 -303v0
c0 -136.667 25.333 -239.334 76 -308.001c18.667 -25.333 41 -46.333 67 -63v-1z" />
    <glyph glyph-name="sterling" unicode="&#xa3;" 
d="M1114 64c-30 -29.333 -71.001 -54.001 -123.001 -74.001s-100.333 -30 -145 -30c-20.667 0 -44.667 3.66699 -72 11s-68 21.333 -122 42c-47.333 18 -87.166 30.167 -119.499 36.5s-69.5 9.5 -111.5 9.5c-36.667 0 -78.167 -8 -124.5 -24s-84.5 -35.667 -114.5 -59
l-104 140c74 50.667 133.833 111 179.5 181s68.5 136.667 68.5 200c0 31.333 -6.33301 64 -19 98c-6 16.667 -15 36 -27 58h-212v127h143c-28 53.333 -48 97.666 -60 132.999c-14.667 44 -22 92 -22 144c0 124 43.5 224.333 130.5 301s200.833 115 341.5 115
c147.333 0 262.833 -41.667 346.5 -125s125.5 -198.333 125.5 -345v0h-184v0c-4.66699 100 -31.667 177.167 -81 231.5s-117 81.5 -203 81.5c-85.333 0 -154.166 -22.667 -206.499 -68s-78.5 -105 -78.5 -179c0 -34.667 5.5 -69.167 16.5 -103.5s32.167 -81.833 63.5 -142.5
l22 -43h340v-127h-288l1 -5c12.667 -44 19 -92 19 -144c0 -83.333 -33.333 -164.666 -100 -243.999c-28.667 -34 -61.334 -65 -98.001 -93l1 -1c88 28.667 166.667 43 236 43c25.333 0 50 -2.33301 74 -7s56.333 -13.667 97 -27c46.667 -15.333 81.667 -25.666 105 -30.999
s44.333 -8 63 -8c26 0 54 6.33301 84 19s53.667 28 71 46z" />
    <glyph glyph-name="currency" unicode="&#xa4;" 
d="M926 716c0 100 -34.5 184.5 -103.5 253.5s-153.5 103.5 -253.5 103.5s-184.333 -34.5 -253 -103.5s-103 -153.5 -103 -253.5s34.333 -184.333 103 -253s153 -103 253 -103s184.5 34.333 253.5 103s103.5 153 103.5 253zM569 212
c-118 1.33301 -221.67 34.999 -311.003 100.999v0l-105 -104l-96 96l107 106v0c-66 86.667 -99 188.334 -99 305.001c0.666992 116.667 33.334 219 98.001 307v0l-106 105l96 96l107 -105v0c88 68 191 102 309 102c118.667 0.666992 221.667 -34 309 -104v0l108 107l96 -96
l-108 -107v0c66.667 -85.333 100 -187 100 -305c0.666992 -116 -32.666 -217.333 -99.999 -304v0l108 -107l-96 -96l-107 106v0c-87.333 -68 -190.666 -102.333 -309.999 -103z" />
    <glyph glyph-name="yen" unicode="&#xa5;" 
d="M92 662v116h309v0l-395 633v0h104h104v0l356 -601v0l356 601v0h103h104v0l-394 -633v0h310v-116h-382v0l-4 -6v0v-172v0h386v-116h-386v0v-368v0h-92h-93v0v368v0h-386v116h386v0v172v0l-4 6v0h-382z" />
    <glyph glyph-name="brokenbar" unicode="&#xa6;" horiz-adv-x="532" 
d="M193 -342v683h149v-683h-149zM193 682v683h149v-683h-149z" />
    <glyph glyph-name="section" unicode="&#xa7;" 
d="M573 1510c114 0 203.831 -33.001 269.498 -99.001s99.5 -157 101.5 -273v0h-174v0c-4.66699 69.333 -24.167 123 -58.5 161s-80.5 57 -138.5 57c-59.333 0 -107.333 -16.333 -144 -49s-55 -75.334 -55 -128.001c0 -37.333 24 -77.166 72 -119.499
s121.333 -88.5 220 -138.5c140 -71.333 238.833 -137.166 296.5 -197.499s86.5 -127.833 86.5 -202.5c0 -117.333 -44.333 -212.333 -133 -285c-25.333 -20.667 -53.333 -38.667 -84 -54l18 -19c62.667 -68.667 94 -136 94 -202c0 -102.667 -35.5 -185.667 -106.5 -249
s-163.833 -95 -278.5 -95c-118 0 -211.167 33.167 -279.5 99.5s-103.5 158.166 -105.5 275.499v0h174v0c4.66699 -70.667 25.334 -125.167 62.001 -163.5s86.334 -57.5 149.001 -57.5c64 0 115.667 16.333 155 49s59 75.334 59 128.001c0 34 -24.833 74 -74.5 120
s-125.5 99 -227.5 159c-162.667 96 -267.167 168.167 -313.5 216.5s-69.5 109.5 -69.5 183.5c0 111.333 44.333 201.333 133 270c26 20.667 54.667 37.667 86 51l-10 12c-62.667 66 -94 134.667 -94 206c0 102.667 34 185.667 102 249s157.333 95 268 95zM877.998 481.999
c0 47.333 -22 92.001 -66 134.001s-119.333 90.333 -226 145c-70 35.333 -130.333 71 -181 107c-21.333 -9.33301 -41.666 -21 -60.999 -35c-56.667 -42.667 -85 -98.334 -85 -167.001c0 -47.333 16.667 -86.833 50 -118.5s117.333 -87.167 252 -166.5
c68.667 -40 127.667 -79 177 -117c19.333 10.667 37.666 22.667 54.999 36c56.667 46 85 106.667 85 182z" />
    <glyph glyph-name="dieresis" unicode="&#xa8;" horiz-adv-x="682" 
d="M82 1447h186v-210h-186v210zM414 1447h186v-210h-186v210z" />
    <glyph glyph-name="copyright" unicode="&#xa9;" horiz-adv-x="1509" 
d="M755 1503c219.333 0 404.831 -74.167 556.498 -222.5s227.5 -330.166 227.5 -545.499c0 -214.667 -75.667 -396.167 -227 -544.5s-337 -222.5 -557 -222.5c-219.333 0 -404.666 74.167 -555.999 222.5s-227 329.833 -227 544.5c0 215.333 75.833 397.166 227.5 545.499
s336.834 222.5 555.501 222.5v0zM1382 735c0 178.667 -60.499 329.667 -181.499 453s-269.5 185 -445.5 185c-175.333 0 -323.5 -61.667 -444.5 -185s-181.5 -274.333 -181.5 -453s60.5 -329.5 181.5 -452.5s269.167 -184.5 444.5 -184.5s323.666 61.5 444.999 184.5
s182 273.833 182 452.5v0zM1170 591c-22.667 -102 -70.168 -181.834 -142.501 -239.501s-160.5 -86.5 -264.5 -86.5c-123.333 0 -224.666 44 -303.999 132s-119 200.667 -119 338c0 144 39.667 258.5 119 343.5s186 127.5 320 127.5c104.667 0 191.667 -28.167 261 -84.5
s112.666 -133.833 129.999 -232.5v0h-136v0c-13.333 58.667 -42.5 104.167 -87.5 136.5s-102.167 48.5 -171.5 48.5c-86 0 -154.333 -30.667 -205 -92s-76 -143.666 -76 -246.999c0 -98.667 25.833 -179.667 77.5 -243s117.834 -95 198.501 -95
c67.333 0 124 16.833 170 50.5s77.333 81.5 94 143.5v0h136z" />
    <glyph glyph-name="ordfeminine" unicode="&#xaa;" horiz-adv-x="758" 
d="M275 831c-70.667 0 -126 16.667 -166 50s-60 79.333 -60 138c0 57.333 20.5 104.333 61.5 141s97.833 58.334 170.5 65.001l102 10l75 10c16 2 28.5 8.66699 37.5 20s13.5 26.666 13.5 45.999v2c0 28 -13.5 50 -40.5 66s-64.167 24 -111.5 24
c-48.667 0 -86.5 -9.16699 -113.5 -27.5s-42.833 -45.5 -47.5 -81.5v0h-112v0c5.33301 72 31.833 126 79.5 162s115.5 54 203.5 54c87.333 0 153.666 -16.833 198.999 -50.5s68 -82.5 68 -146.5v-339c0 -16.667 3.16699 -29 9.5 -37s16.833 -11.667 31.5 -11
c7.33301 2 19 4 35 6l-1 -90c-10 -2.66699 -21.167 -5 -33.5 -7s-23.5 -3 -33.5 -3c-48 0 -81 11.333 -99 34c-10 14 -18 35.667 -24 65v0l-27 -26c-59.333 -49.333 -131.666 -74 -216.999 -74zM509 1120v40.999v0c-32.667 -10.667 -70.667 -19 -114 -25l-84 -10
c-46.667 -6 -80.334 -16.5 -101.001 -31.5s-31 -36.167 -31 -63.5c0 -31.333 10.333 -55 31 -71s50.667 -24 90 -24c58.667 0 108 14.333 148 43c20 14.667 35 30.334 45 47.001c4.66699 8 8.33398 20.667 11.001 38c3.33301 17.333 5 36 5 56zM72 722.999h614v-98h-614v98z
" />
    <glyph glyph-name="guillemotleft" unicode="&#xab;" 
d="M521 733l-216 -167v0l216 -167v-178l-322 249v96v96l322 249v-178zM940 733l-216 -167v0l216 -167v-178l-322 249v96v96l322 249v-178z" />
    <glyph glyph-name="logicalnot" unicode="&#xac;" horiz-adv-x="1196" 
d="M965 648h-885v151h1036v-578h-151v427z" />
    <glyph glyph-name="uni00AD" unicode="&#xad;" horiz-adv-x="682" 
d="M90 659h502v-185h-502v185z" />
    <glyph glyph-name="registered" unicode="&#xae;" horiz-adv-x="1509" 
d="M755 1503c219.333 0 404.831 -74.167 556.498 -222.5s227.5 -330.166 227.5 -545.499c0 -214.667 -75.667 -396.167 -227 -544.5s-337 -222.5 -557 -222.5c-219.333 0 -404.666 74.167 -555.999 222.5s-227 329.833 -227 544.5c0 215.333 75.833 397.166 227.5 545.499
s336.834 222.5 555.501 222.5v0zM1382 735c0 178.667 -60.499 329.667 -181.499 453s-269.5 185 -445.5 185c-175.333 0 -323.5 -61.667 -444.5 -185s-181.5 -274.333 -181.5 -453s60.5 -329.5 181.5 -452.5s269.167 -184.5 444.5 -184.5s323.666 61.5 444.999 184.5
s182 273.833 182 452.5v0zM415.999 292v887v0h70v0h285c96 0 171.167 -21.167 225.5 -63.5s81.5 -101.166 81.5 -176.499c0 -82 -27.333 -146.333 -82 -193c-40.667 -34.667 -93 -56.334 -157 -65.001v0l255 -389v0h-80h-81v0l-229 384v0l-148 -1v0v-383v0h-70h-70v0z
M555.999 793h189c65.333 0 113.166 11.667 143.499 35s45.5 60 45.5 110c0 44 -15.167 76.333 -45.5 97s-78.166 31 -143.499 31h-189v0v-273z" />
    <glyph glyph-name="macron" unicode="&#xaf;" horiz-adv-x="682" 
d="M20 1283v118h642v-118h-642z" />
    <glyph glyph-name="degree" unicode="&#xb0;" horiz-adv-x="819" 
d="M409 1437c84 0 154.833 -28.833 212.5 -86.5s86.5 -128.5 86.5 -212.5c0 -83.333 -28.833 -153.833 -86.5 -211.5s-128.5 -86.5 -212.5 -86.5c-83.333 0 -153.833 28.833 -211.5 86.5s-86.5 128.167 -86.5 211.5c0 84 28.833 154.833 86.5 212.5s128.167 86.5 211.5 86.5
zM614 1138c0 57.333 -19.833 105.833 -59.5 145.5s-88.167 59.5 -145.5 59.5s-105.666 -19.833 -144.999 -59.5s-59 -88.167 -59 -145.5s19.667 -105.666 59 -144.999s87.666 -59 144.999 -59s105.833 19.667 145.5 59s59.5 87.666 59.5 144.999z" />
    <glyph glyph-name="plusminus" unicode="&#xb1;" horiz-adv-x="1196" 
d="M523 558h-443v150h443v329h150v-329h443v-150h-443v-329h-150v329zM80 147h1036v-151h-1036v151z" />
    <glyph glyph-name="uni00B2" unicode="&#xb2;" horiz-adv-x="682" 
d="M662 1176c0 -62 -17.5049 -113.334 -52.5049 -154.001s-101.167 -85.667 -198.5 -135c-104.667 -53.333 -176 -102 -214 -146c-11.333 -12.667 -20.666 -26.667 -27.999 -42v0h493v-126h-654v0c0 92 24.5 167.167 73.5 225.5s140.833 121.833 275.5 190.5
c62.667 32 105.334 61.5 128.001 88.5s34 61.833 34 104.5c0 44 -15 78.333 -45 103s-71.667 37 -125 37c-61.333 0 -106.666 -15.667 -135.999 -47s-45 -81 -47 -149v0h-132v0c-1.33301 98 26.834 174.833 84.501 230.5s138.167 83.5 241.5 83.5
c88.667 0 161.334 -24.667 218.001 -74c56 -49.333 84 -112.666 84 -189.999z" />
    <glyph glyph-name="uni00B3" unicode="&#xb3;" horiz-adv-x="682" 
d="M491 1198c0 40 -13.3281 70.501 -39.9951 91.501s-65.334 31.5 -116.001 31.5c-55.333 0 -97.5 -13.833 -126.5 -41.5s-44.833 -68.834 -47.5 -123.501v0h-125v0c0 90.667 27.5 160.667 82.5 210s132.833 74 233.5 74c86 0 154.5 -20.667 205.5 -62s76.5 -97 76.5 -167
c0 -65.333 -28.667 -119.666 -86 -162.999l-31 -21v0c25.333 -8.66699 47.333 -19.667 66 -33c55.333 -38.667 83 -95.667 83 -171c0 -82.667 -29.5 -148.334 -88.5 -197.001s-138.833 -73 -239.5 -73c-106.667 0 -186.834 23.333 -240.501 70s-82.834 118 -87.501 214v0
h141v0c5.33301 -59.333 22.666 -101.666 51.999 -126.999s75.666 -38 138.999 -38c58 0 102.833 12.833 134.5 38.5s47.5 62.167 47.5 109.5c0 49.333 -15.5 86.666 -46.5 111.999s-76.167 38 -135.5 38h-77v106h57c51.333 0 92.333 11 123 33s46 51.667 46 89z" />
    <glyph glyph-name="acute" unicode="&#xb4;" horiz-adv-x="682" 
d="M250 1214l182 288h221l-264 -288h-139z" />
    <glyph glyph-name="uni00B5" unicode="&#xb5;" 
d="M319 1070v-658c0 -95.333 18.833 -166.833 56.5 -214.5s94.167 -71.5 169.5 -71.5c79.333 0 145.333 32.667 198 98s79 147.333 79 246v0v600h180v-1070h-171v103v0v0c-77.333 -89.333 -187.333 -133.333 -330 -132c-70 0 -124 19 -162 57l-20 23v0v-479h-180v749v749
h180z" />
    <glyph glyph-name="paragraph" unicode="&#xb6;" horiz-adv-x="1100" 
d="M478 703c-131.333 0.666992 -237.667 36.001 -319 106.001s-122 162.333 -122 277c0 115.333 40.5 208.166 121.5 278.499s187.5 105.5 319.5 105.5h540v0v-1819h-146v1694v0h-250v0v-1694h-144v1052z" />
    <glyph glyph-name="periodcentered" unicode="&#xb7;" horiz-adv-x="569" 
d="M158 830h214v-217h-214v217z" />
    <glyph glyph-name="cedilla" unicode="&#xb8;" horiz-adv-x="682" 
d="M390 2l-92.998 -128v0l60 7c54 0 96.333 -13.667 127 -41s46 -65 46 -113c0 -56 -22.167 -101.333 -66.5 -136s-102.5 -52 -174.5 -52c-24 0 -54.167 4 -90.5 12s-71.833 18.667 -106.5 32l34 82c24 -8.66699 48.333 -15.667 73 -21s45 -8 61 -8c39.333 0 68.333 7 87 21
s28 35.667 28 65c0 22.667 -9.33301 41.667 -28 57s-42.334 23 -71.001 23c-7.33301 0 -18.333 -1.5 -33 -4.5s-30.334 -7.16699 -47.001 -12.5l-34 38l131 179h97z" />
    <glyph glyph-name="uni00B9" unicode="&#xb9;" horiz-adv-x="682" 
d="M313 573v608v0l-225 -1v95c64 -3.33301 117 8.33398 159 35.001c42 27.333 75 70.666 99 129.999h110v0v-867v0h-71h-72v0z" />
    <glyph glyph-name="ordmasculine" unicode="&#xba;" horiz-adv-x="748" 
d="M375 831c-103.333 0 -183.166 29.5 -239.499 88.5s-84.5 142.5 -84.5 250.5c0 108.667 28.167 192.667 84.5 252s136.166 89 239.499 89s183.166 -29.667 239.499 -89s84.5 -143.333 84.5 -252c0 -108 -28.167 -191.5 -84.5 -250.5s-136.166 -88.5 -239.499 -88.5v0z
M375 936c59.333 0 105.333 20.333 138 61s49 98.334 49 173.001c0 75.333 -16.333 133.5 -49 174.5s-78.667 61.5 -138 61.5s-105.333 -20.5 -138 -61.5s-49 -99.167 -49 -174.5c0 -74.667 16.333 -132.334 49 -173.001s78.667 -61 138 -61v0zM74 724h602v-99h-602v99z" />
    <glyph glyph-name="guillemotright" unicode="&#xbb;" 
d="M199 399l216 167v0l-216 167v178l322 -249v-96v-96l-322 -249v178zM618 399l216 167v0l-216 167v178l322 -249v-96v-96l-322 -249v178z" />
    <glyph glyph-name="onequarter" unicode="&#xbc;" horiz-adv-x="1708" 
d="M1359 1441l-902 -1485h-118l902 1485h118zM375 573v608v0l-225 -1v95c64 -3.33301 117 8.33398 159 35.001c42 27.333 75 70.666 99 129.999h110v0v-867v0h-71h-72v0zM1287 201h-370v62v63l397 512h54h54v-527v0h126v-110h-126v0v-201h-135v201v0zM1287 311v321v0v0
l-237 -306l-12 -15v0h249z" />
    <glyph glyph-name="onehalf" unicode="&#xbd;" horiz-adv-x="1708" 
d="M1251 1441l-902 -1485h-118l902 1485h118zM313 573v608v0l-225 -1v95c64 -3.33301 117 8.33398 159 35.001c42 27.333 75 70.666 99 129.999h110v0v-867v0h-71h-72v0zM1583 603c0 -62 -17.5049 -113.334 -52.5049 -154.001s-101.167 -85.667 -198.5 -135
c-104.667 -53.333 -176 -102 -214 -146c-11.333 -12.667 -20.666 -26.667 -27.999 -42v0h493v-126h-654v0c0 92 24.5 167.167 73.5 225.5s140.833 121.833 275.5 190.5c62.667 32 105.334 61.5 128.001 88.5s34 61.833 34 104.5c0 44 -15 78.333 -45 103s-71.667 37 -125 37
c-61.333 0 -106.666 -15.667 -135.999 -47s-45 -81 -47 -149v0h-132v0c-1.33301 98 26.834 174.833 84.501 230.5s138.167 83.5 241.5 83.5c88.667 0 161.334 -24.667 218.001 -74c56 -49.333 84 -112.666 84 -189.999z" />
    <glyph glyph-name="threequarters" unicode="&#xbe;" horiz-adv-x="1708" 
d="M1440 1441l-902 -1485h-118l902 1485h118zM573 1198c0 40 -13.3281 70.501 -39.9951 91.501s-65.334 31.5 -116.001 31.5c-55.333 0 -97.5 -13.833 -126.5 -41.5s-44.833 -68.834 -47.5 -123.501v0h-125v0c0 90.667 27.5 160.667 82.5 210s132.833 74 233.5 74
c86 0 154.5 -20.667 205.5 -62s76.5 -97 76.5 -167c0 -65.333 -28.667 -119.666 -86 -162.999l-31 -21v0c25.333 -8.66699 47.333 -19.667 66 -33c55.333 -38.667 83 -95.667 83 -171c0 -82.667 -29.5 -148.334 -88.5 -197.001s-138.833 -73 -239.5 -73
c-106.667 0 -186.834 23.333 -240.501 70s-82.834 118 -87.501 214v0h141v0c5.33301 -59.333 22.666 -101.666 51.999 -126.999s75.666 -38 138.999 -38c58 0 102.833 12.833 134.5 38.5s47.5 62.167 47.5 109.5c0 49.333 -15.5 86.666 -46.5 111.999s-76.167 38 -135.5 38
h-77v106h57c51.333 0 92.333 11 123 33s46 51.667 46 89zM1398 201.001h-370v62v63l397 512h54h54v-527v0h126v-110h-126v0v-201h-135v201v0zM1398 311.001v321v0v0l-237 -306l-12 -15v0h249z" />
    <glyph glyph-name="questiondown" unicode="&#xbf;" horiz-adv-x="1251" 
d="M615 -255c95.333 0 166.333 25 213 75s74.334 131 83.001 243v0h168v0c-4.66699 -152 -47.334 -269.333 -128.001 -352s-192.667 -124 -336 -124c-128 0 -231.5 36.5 -310.5 109.5s-118.5 168.5 -118.5 286.5c0 69.333 17 134.166 51 194.499s91 126.833 171 199.5
c52 46.667 88.333 94.667 109 144s30 109 28 179h176c2.66699 -98.667 -11 -182.667 -41 -252s-82 -137 -156 -203c-53.333 -46.667 -91.333 -90.167 -114 -130.5s-34 -84.166 -34 -131.499c0 -72.667 21.667 -130.667 65 -174c42.667 -42.667 100.667 -64 174 -64zM733 874
h-200v208h200v-208z" />
    <glyph glyph-name="Agrave" unicode="&#xc0;" horiz-adv-x="1366" 
d="M29 0l555 1470h113h114l528 -1470v0h-107h-107v0l-149 426v0h-588v0l-154 -426v0h-102h-103v0zM688 1254l-236 -652v0h463v0l-227 652v0v0zM654 1614l-268 288h223l180 -288h-135z" />
    <glyph glyph-name="Aacute" unicode="&#xc1;" horiz-adv-x="1366" 
d="M29 0l555 1470h113h114l528 -1470v0h-107h-107v0l-149 426v0h-588v0l-154 -426v0h-102h-103v0zM688 1254l-236 -652v0h463v0l-227 652v0v0zM600 1614l182 288h221l-264 -288h-139z" />
    <glyph glyph-name="Acircumflex" unicode="&#xc2;" horiz-adv-x="1366" 
d="M29 0l555 1470h113h114l528 -1470v0h-107h-107v0l-149 426v0h-588v0l-154 -426v0h-102h-103v0zM688 1254l-236 -652v0h463v0l-227 652v0v0zM792 1902l203 -288h-163l-135 192v0l-135 -192h-163l203 288h95h95z" />
    <glyph glyph-name="Atilde" unicode="&#xc3;" horiz-adv-x="1366" 
d="M29 0l555 1470h113h114l528 -1470v0h-107h-107v0l-149 426v0h-588v0l-154 -426v0h-102h-103v0zM688 1254l-236 -652v0h463v0l-227 652v0v0zM355 1637c15.333 80 38.9971 137 70.9971 171s78 51 138 51c20 0 46.667 -4.33301 80 -13s62.333 -19 87 -31
c18.667 -8.66699 40.5 -16 65.5 -22s46.167 -9 63.5 -9c23.333 0 42.833 7.83301 58.5 23.5s26.834 38.167 33.501 67.5h99c-16.667 -80 -41 -137 -73 -171s-77.333 -51 -136 -51c-15.333 0 -39.666 4.33301 -72.999 13s-64.666 19 -93.999 31
c-22 8.66699 -45.5 16 -70.5 22s-44.5 9 -58.5 9c-23.333 0 -43 -7.83301 -59 -23.5s-27 -38.167 -33 -67.5h-99z" />
    <glyph glyph-name="Adieresis" unicode="&#xc4;" horiz-adv-x="1366" 
d="M29 0l555 1470h113h114l528 -1470v0h-107h-107v0l-149 426v0h-588v0l-154 -426v0h-102h-103v0zM688 1254l-236 -652v0h463v0l-227 652v0v0zM438 1847h186v-210h-186v210zM770 1847h186v-210h-186v210z" />
    <glyph glyph-name="Aring" unicode="&#xc5;" horiz-adv-x="1366" 
d="M29 0l555 1470h113h114l528 -1470v0h-107h-107v0l-149 426v0h-588v0l-154 -426v0h-102h-103v0zM688 1254l-236 -652v0h463v0l-227 652v0v0zM686 1528c-52.667 0 -97.167 18.167 -133.5 54.5s-54.5 80.833 -54.5 133.5s18.167 97.167 54.5 133.5s80.833 54.5 133.5 54.5
s97.167 -18.167 133.5 -54.5s54.5 -80.833 54.5 -133.5s-18.167 -97.167 -54.5 -133.5s-80.833 -54.5 -133.5 -54.5v0zM686 1609c30 0 55.333 10.333 76 31s31 46 31 76s-10.333 55.333 -31 76s-46 31 -76 31s-55.333 -10.333 -76 -31s-31 -46 -31 -76
s10.333 -55.333 31 -76s46 -31 76 -31v0z" />
    <glyph glyph-name="AE" unicode="&#xc6;" horiz-adv-x="2048" 
d="M939 0v426v0h-545v0l-167 -426v0h-105h-106v0l599 1470v0h513v0h799v0v-88v-88v0h-799v0v-449v0h729v-88v-88v0h-729v0v-493v0h820v0v-88v-88v0h-820v0h-189zM738 1294l-273 -692v0h474v0v692h-201v0z" />
    <glyph glyph-name="Ccedilla" unicode="&#xc7;" horiz-adv-x="1479" 
d="M1395 541c-25.333 -181.333 -94.832 -323.501 -208.499 -426.501s-257.5 -154.5 -431.5 -154.5c-202.667 0 -364.167 69.833 -484.5 209.5s-180.5 327.834 -180.5 564.501s62.5 425.167 187.5 565.5s292.833 210.5 503.5 210.5c166 0 302.333 -42.667 409 -128
s170.667 -203 192 -353v0h-192v0c-18.667 97.333 -63.834 172.5 -135.501 225.5s-163.834 79.5 -276.501 79.5c-147.333 0 -264.666 -54.167 -351.999 -162.5s-131 -254.166 -131 -437.499c0 -194.667 40.5 -343 121.5 -445s198.5 -153 352.5 -153
c114 0 208.667 35.167 284 105.5s125.333 170.166 150 299.499v0h192zM786.001 1.99902l-92.998 -128v0l60 7c54 0 96.333 -13.667 127 -41s46 -65 46 -113c0 -56 -22.167 -101.333 -66.5 -136s-102.5 -52 -174.5 -52c-24 0 -54.167 4 -90.5 12s-71.833 18.667 -106.5 32
l34 82c24 -8.66699 48.333 -15.667 73 -21s45 -8 61 -8c39.333 0 68.333 7 87 21s28 35.667 28 65c0 22.667 -9.33301 41.667 -28 57s-42.334 23 -71.001 23c-7.33301 0 -18.333 -1.5 -33 -4.5s-30.334 -7.16699 -47.001 -12.5l-34 38l131 179h97z" />
    <glyph glyph-name="Egrave" unicode="&#xc8;" horiz-adv-x="1366" 
d="M176 0v1470v0h1075v0v-88v-88v0h-876v0v-449v0h800v-88v-88v0h-800v0v-493v0h887v0v-88v-88v0h-1086zM693 1614l-268 288h223l180 -288h-135z" />
    <glyph glyph-name="Eacute" unicode="&#xc9;" horiz-adv-x="1366" 
d="M176 0v1470v0h1075v0v-88v-88v0h-876v0v-449v0h800v-88v-88v0h-800v0v-493v0h887v0v-88v-88v0h-1086zM639 1614l182 288h221l-264 -288h-139z" />
    <glyph glyph-name="Ecircumflex" unicode="&#xca;" horiz-adv-x="1366" 
d="M176 0v1470v0h1075v0v-88v-88v0h-876v0v-449v0h800v-88v-88v0h-800v0v-493v0h887v0v-88v-88v0h-1086zM831 1902l203 -288h-163l-135 192v0l-135 -192h-163l203 288h95h95z" />
    <glyph glyph-name="Edieresis" unicode="&#xcb;" horiz-adv-x="1366" 
d="M176 0v1470v0h1075v0v-88v-88v0h-876v0v-449v0h800v-88v-88v0h-800v0v-493v0h887v0v-88v-88v0h-1086zM477 1847h186v-210h-186v210zM809 1847h186v-210h-186v210z" />
    <glyph glyph-name="Igrave" unicode="&#xcc;" horiz-adv-x="569" 
d="M186 0v1470v0h99h100v0v-1470v0h-99h-100v0zM242 1614l-268 288h223l180 -288h-135z" />
    <glyph glyph-name="Iacute" unicode="&#xcd;" horiz-adv-x="569" 
d="M186 0v1470v0h99h100v0v-1470v0h-99h-100v0zM188 1614l182 288h221l-264 -288h-139z" />
    <glyph glyph-name="Icircumflex" unicode="&#xce;" horiz-adv-x="569" 
d="M188 0v1470v0h99h100v0v-1470v0h-99h-100v0zM382 1902l203 -288h-163l-135 192v0l-135 -192h-163l203 288h95h95z" />
    <glyph glyph-name="Idieresis" unicode="&#xcf;" horiz-adv-x="569" 
d="M187 0v1470v0h99h100v0v-1470v0h-99h-100v0zM27 1847h186v-210h-186v210zM359 1847h186v-210h-186v210z" />
    <glyph glyph-name="Eth" unicode="&#xd0;" horiz-adv-x="1479" 
d="M158 0v666v0h-158v137h158v0v667v0h99v0h509c188 0 337.5 -66.5 448.5 -199.5s166.5 -311.833 166.5 -536.5c0 -224 -57 -402.333 -171 -535s-267.333 -199 -460 -199h-493v0h-99zM357 1300l0.000976562 -497v0h401v-137h-401v0v-496v0h368c144 0 255.167 49 333.5 147
s117.5 237 117.5 417c0 180.667 -37.833 320.167 -113.5 418.5s-182.834 147.5 -321.501 147.5h-384z" />
    <glyph glyph-name="Ntilde" unicode="&#xd1;" horiz-adv-x="1479" 
d="M348 0h-96h-96v0v1470v0h119h120v0l736 -1195v0v0v1195v0h96h96v0v-1470h-109h-109l-757 1199v0v0v-1199zM397 1637c15.333 80 38.9971 137 70.9971 171s78 51 138 51c20 0 46.667 -4.33301 80 -13s62.333 -19 87 -31c18.667 -8.66699 40.5 -16 65.5 -22
s46.167 -9 63.5 -9c23.333 0 42.833 7.83301 58.5 23.5s26.834 38.167 33.501 67.5h99c-16.667 -80 -41 -137 -73 -171s-77.333 -51 -136 -51c-15.333 0 -39.666 4.33301 -72.999 13s-64.666 19 -93.999 31c-22 8.66699 -45.5 16 -70.5 22s-44.5 9 -58.5 9
c-23.333 0 -43 -7.83301 -59 -23.5s-27 -38.167 -33 -67.5h-99z" />
    <glyph glyph-name="Ograve" unicode="&#xd2;" horiz-adv-x="1593" 
d="M796 -40c-213.333 0 -386 71.167 -518 213.5s-198 329.166 -198 560.499c0 232 66 419.333 198 562s304.667 214 518 214c214.667 0 387.834 -71.333 519.501 -214s197.5 -330 197.5 -562c0 -231.333 -65.833 -418.166 -197.5 -560.499s-304.834 -213.5 -519.501 -213.5
v0zM796 136c153.333 0 277 55 371 165s141 254.333 141 433c0 179.333 -47 324.166 -141 434.499s-217.667 165.5 -371 165.5c-152.667 0 -276 -55.167 -370 -165.5s-141 -255.166 -141 -434.499c0 -178.667 47 -323 141 -433s217.333 -165 370 -165v0zM753 1614l-268 288
h223l180 -288h-135z" />
    <glyph glyph-name="Oacute" unicode="&#xd3;" horiz-adv-x="1593" 
d="M796 -40c-213.333 0 -386 71.167 -518 213.5s-198 329.166 -198 560.499c0 232 66 419.333 198 562s304.667 214 518 214c214.667 0 387.834 -71.333 519.501 -214s197.5 -330 197.5 -562c0 -231.333 -65.833 -418.166 -197.5 -560.499s-304.834 -213.5 -519.501 -213.5
v0zM796 136c153.333 0 277 55 371 165s141 254.333 141 433c0 179.333 -47 324.166 -141 434.499s-217.667 165.5 -371 165.5c-152.667 0 -276 -55.167 -370 -165.5s-141 -255.166 -141 -434.499c0 -178.667 47 -323 141 -433s217.333 -165 370 -165v0zM699 1614l182 288
h221l-264 -288h-139z" />
    <glyph glyph-name="Ocircumflex" unicode="&#xd4;" horiz-adv-x="1593" 
d="M796 -40c-213.333 0 -386 71.167 -518 213.5s-198 329.166 -198 560.499c0 232 66 419.333 198 562s304.667 214 518 214c214.667 0 387.834 -71.333 519.501 -214s197.5 -330 197.5 -562c0 -231.333 -65.833 -418.166 -197.5 -560.499s-304.834 -213.5 -519.501 -213.5
v0zM796 136c153.333 0 277 55 371 165s141 254.333 141 433c0 179.333 -47 324.166 -141 434.499s-217.667 165.5 -371 165.5c-152.667 0 -276 -55.167 -370 -165.5s-141 -255.166 -141 -434.499c0 -178.667 47 -323 141 -433s217.333 -165 370 -165v0zM891 1902l203 -288
h-163l-135 192v0l-135 -192h-163l203 288h95h95z" />
    <glyph glyph-name="Otilde" unicode="&#xd5;" horiz-adv-x="1593" 
d="M796 -40c-213.333 0 -386 71.167 -518 213.5s-198 329.166 -198 560.499c0 232 66 419.333 198 562s304.667 214 518 214c214.667 0 387.834 -71.333 519.501 -214s197.5 -330 197.5 -562c0 -231.333 -65.833 -418.166 -197.5 -560.499s-304.834 -213.5 -519.501 -213.5
v0zM796 136c153.333 0 277 55 371 165s141 254.333 141 433c0 179.333 -47 324.166 -141 434.499s-217.667 165.5 -371 165.5c-152.667 0 -276 -55.167 -370 -165.5s-141 -255.166 -141 -434.499c0 -178.667 47 -323 141 -433s217.333 -165 370 -165v0zM454 1637
c15.333 80 38.9971 137 70.9971 171s78 51 138 51c20 0 46.667 -4.33301 80 -13s62.333 -19 87 -31c18.667 -8.66699 40.5 -16 65.5 -22s46.167 -9 63.5 -9c23.333 0 42.833 7.83301 58.5 23.5s26.834 38.167 33.501 67.5h99c-16.667 -80 -41 -137 -73 -171
s-77.333 -51 -136 -51c-15.333 0 -39.666 4.33301 -72.999 13s-64.666 19 -93.999 31c-22 8.66699 -45.5 16 -70.5 22s-44.5 9 -58.5 9c-23.333 0 -43 -7.83301 -59 -23.5s-27 -38.167 -33 -67.5h-99z" />
    <glyph glyph-name="Odieresis" unicode="&#xd6;" horiz-adv-x="1593" 
d="M796 -40c-213.333 0 -386 71.167 -518 213.5s-198 329.166 -198 560.499c0 232 66 419.333 198 562s304.667 214 518 214c214.667 0 387.834 -71.333 519.501 -214s197.5 -330 197.5 -562c0 -231.333 -65.833 -418.166 -197.5 -560.499s-304.834 -213.5 -519.501 -213.5
v0zM796 136c153.333 0 277 55 371 165s141 254.333 141 433c0 179.333 -47 324.166 -141 434.499s-217.667 165.5 -371 165.5c-152.667 0 -276 -55.167 -370 -165.5s-141 -255.166 -141 -434.499c0 -178.667 47 -323 141 -433s217.333 -165 370 -165v0zM537 1847h186v-210
h-186v210zM869 1847h186v-210h-186v210z" />
    <glyph glyph-name="multiply" unicode="&#xd7;" horiz-adv-x="1196" 
d="M596 409l-410 -410l-106 106l410 410l-410 410l106 106l410 -410l410 410l106 -106l-410 -410l410 -410l-106 -106z" />
    <glyph glyph-name="Oslash" unicode="&#xd8;" horiz-adv-x="1593" 
d="M797 671l-355 -388c92.667 -98 211 -147 355 -147v0c153.333 0 277 55 371 165s141 254.333 141 433c0 154 -34.333 282.333 -103 385zM797 -40c-196 0 -357.666 59.999 -484.999 179.999l-168 -184l-64 58l172 189c-113.333 138 -170.333 315 -171 531
c0 232 66 419.333 198 562s304.667 214 518 214c197.333 0 359 -59.667 485 -179l168 183l64 -58l-172 -188c114.667 -138.667 172 -316.667 172 -534c0 -231.333 -65.833 -418.166 -197.5 -560.499s-304.834 -213.5 -519.501 -213.5v0zM797.001 1334
c-152.667 0 -276 -55.167 -370 -165.5s-141 -255.166 -141 -434.499c0.666992 -152.667 34.667 -280.334 102 -383.001l409 448l355 389c-92 97.333 -210.333 146 -355 146z" />
    <glyph glyph-name="Ugrave" unicode="&#xd9;" horiz-adv-x="1479" 
d="M1319 539c0 -181.333 -50.999 -323.166 -152.999 -425.499s-243.667 -153.5 -425 -153.5c-188.667 0 -332.334 49.167 -431.001 147.5s-148 242.166 -148 431.499v931v0h99h100v0v-916c0 -136.667 32.333 -240.5 97 -311.5s159 -106.5 283 -106.5
s218.167 35.5 282.5 106.5s96.5 174.833 96.5 311.5v916v0h99h100v0v-931zM697.001 1614l-268 288h223l180 -288h-135z" />
    <glyph glyph-name="Uacute" unicode="&#xda;" horiz-adv-x="1479" 
d="M1319 539c0 -181.333 -50.999 -323.166 -152.999 -425.499s-243.667 -153.5 -425 -153.5c-188.667 0 -332.334 49.167 -431.001 147.5s-148 242.166 -148 431.499v931v0h99h100v0v-916c0 -136.667 32.333 -240.5 97 -311.5s159 -106.5 283 -106.5
s218.167 35.5 282.5 106.5s96.5 174.833 96.5 311.5v916v0h99h100v0v-931zM643.001 1614l182 288h221l-264 -288h-139z" />
    <glyph glyph-name="Ucircumflex" unicode="&#xdb;" horiz-adv-x="1479" 
d="M1319 539c0 -181.333 -50.999 -323.166 -152.999 -425.499s-243.667 -153.5 -425 -153.5c-188.667 0 -332.334 49.167 -431.001 147.5s-148 242.166 -148 431.499v931v0h99h100v0v-916c0 -136.667 32.333 -240.5 97 -311.5s159 -106.5 283 -106.5
s218.167 35.5 282.5 106.5s96.5 174.833 96.5 311.5v916v0h99h100v0v-931zM835.001 1902l203 -288h-163l-135 192v0l-135 -192h-163l203 288h95h95z" />
    <glyph glyph-name="Udieresis" unicode="&#xdc;" horiz-adv-x="1479" 
d="M1319 539c0 -181.333 -50.999 -323.166 -152.999 -425.499s-243.667 -153.5 -425 -153.5c-188.667 0 -332.334 49.167 -431.001 147.5s-148 242.166 -148 431.499v931v0h99h100v0v-916c0 -136.667 32.333 -240.5 97 -311.5s159 -106.5 283 -106.5
s218.167 35.5 282.5 106.5s96.5 174.833 96.5 311.5v916v0h99h100v0v-931zM481.001 1847h186v-210h-186v210zM813.001 1847h186v-210h-186v210z" />
    <glyph glyph-name="Yacute" unicode="&#xdd;" horiz-adv-x="1366" 
d="M584 588l-555 882v0h116h117v0l422 -713v0l423 713v0h115h115v0l-554 -885v0v-585h-99h-100v588zM586 1614l182 288h221l-264 -288h-139z" />
    <glyph glyph-name="Thorn" unicode="&#xde;" horiz-adv-x="1366" 
d="M176 0v1470v0h99h100v0v-244v0l451 1c134 0 242.167 -39.333 324.5 -118s123.5 -181.667 123.5 -309c0 -126.667 -41.167 -229.167 -123.5 -307.5s-190.5 -117.5 -324.5 -117.5l-451 1v0v-376v0h-99h-100v0zM1069 800c0 82 -26 145.333 -78 190s-125.667 67 -221 67h-395
v0v-512v0h395c95.333 0 169 22.333 221 67c52 44 78 106.667 78 188z" />
    <glyph glyph-name="germandbls" unicode="&#xdf;" horiz-adv-x="1251" 
d="M317 1023l-0.000976562 -1023v0h-90h-90v0v1023v52c0 136 40.667 239.333 122 310s200 106 356 106c144 0 260.333 -33.833 349 -101.5s133 -156.5 133 -266.5c0 -120 -51 -218.667 -153 -296l-7 -5c25.333 -11.333 49.333 -24.333 72 -39
c106.667 -70 160 -169.333 160 -298c0 -167.333 -44.167 -294.833 -132.5 -382.5s-217.166 -131.5 -386.499 -131.5c-18 0 -36.5 1.16699 -55.5 3.5s-35.833 5.5 -50.5 9.5v0v155v0c18.667 -4 36.334 -7.16699 53.001 -9.5s31 -3.5 43 -3.5
c110.667 0 195.167 26.5 253.5 79.5s87.5 129.833 87.5 230.5c0 106.667 -33 183 -99 229c-39.333 27.333 -96 46.666 -170 57.999c-26 3.33301 -54.333 4.83301 -85 4.5s-55 -2.83301 -73 -7.5v160c17.333 -4 40.666 -6 69.999 -6s56.333 2 81 6
c50 9.33301 91 24.666 123 45.999c59.333 39.333 89 99.333 89 180c0 68.667 -28 124 -84 166s-129.333 63 -220 63c-98.667 0 -172.667 -26 -222 -78s-74 -130 -74 -234z" />
    <glyph glyph-name="agrave" unicode="&#xe0;" 
d="M415 -29c-104.667 0 -187.67 28.001 -249.003 84.001s-92 131.667 -92 227c0 96 28.833 172.333 86.5 229s141.834 92 252.501 106l245 31c20 2 39 5.33301 57 10c23.333 6 41.333 18 54 36s19 40.667 19 68v9c0 57.333 -21.667 102.166 -65 134.499
s-103.666 48.5 -180.999 48.5c-74 0 -131.833 -17.167 -173.5 -51.5s-66.834 -85.5 -75.501 -153.5v0h-166v0c8.66699 117.333 50 205.5 124 264.5s180 88.5 318 88.5c130 0 229 -28.167 297 -84.5s102 -138.5 102 -246.5v-588c0 -18 5.5 -32.5 16.5 -43.5
s25.833 -16.5 44.5 -16.5c5.33301 0 13.166 0.666992 23.499 2s21.5 3.33301 33.5 6v-130c-17.333 -6.66699 -35.666 -12 -54.999 -16s-35.666 -6 -48.999 -6c-68 0 -117.333 18.667 -148 56c-20 24.667 -34.333 59.667 -43 105v0
c-13.333 -16.667 -28.666 -32.667 -45.999 -48c-90 -80.667 -200 -121 -330 -121zM787.997 424.001l-0.000976562 116v0c-33.333 -16 -70.333 -27 -111 -33l-165 -24c-86.667 -12 -150 -32.167 -190 -60.5s-60 -66.833 -60 -115.5c0 -60 16.333 -106.167 49 -138.5
s79 -48.5 139 -48.5c94.667 0 174.667 25.667 240 77c44.667 36 74.334 76.667 89.001 122c2.66699 8.66699 4.66699 22.334 6 41.001c2 19.333 3 40.666 3 63.999zM504.996 1214l-268 288h223l180 -288h-135z" />
    <glyph glyph-name="aacute" unicode="&#xe1;" 
d="M415 -29c-104.667 0 -187.67 28.001 -249.003 84.001s-92 131.667 -92 227c0 96 28.833 172.333 86.5 229s141.834 92 252.501 106l245 31c20 2 39 5.33301 57 10c23.333 6 41.333 18 54 36s19 40.667 19 68v9c0 57.333 -21.667 102.166 -65 134.499
s-103.666 48.5 -180.999 48.5c-74 0 -131.833 -17.167 -173.5 -51.5s-66.834 -85.5 -75.501 -153.5v0h-166v0c8.66699 117.333 50 205.5 124 264.5s180 88.5 318 88.5c130 0 229 -28.167 297 -84.5s102 -138.5 102 -246.5v-588c0 -18 5.5 -32.5 16.5 -43.5
s25.833 -16.5 44.5 -16.5c5.33301 0 13.166 0.666992 23.499 2s21.5 3.33301 33.5 6v-130c-17.333 -6.66699 -35.666 -12 -54.999 -16s-35.666 -6 -48.999 -6c-68 0 -117.333 18.667 -148 56c-20 24.667 -34.333 59.667 -43 105v0
c-13.333 -16.667 -28.666 -32.667 -45.999 -48c-90 -80.667 -200 -121 -330 -121zM787.997 424.001l-0.000976562 116v0c-33.333 -16 -70.333 -27 -111 -33l-165 -24c-86.667 -12 -150 -32.167 -190 -60.5s-60 -66.833 -60 -115.5c0 -60 16.333 -106.167 49 -138.5
s79 -48.5 139 -48.5c94.667 0 174.667 25.667 240 77c44.667 36 74.334 76.667 89.001 122c2.66699 8.66699 4.66699 22.334 6 41.001c2 19.333 3 40.666 3 63.999zM459.996 1214l182 288h221l-264 -288h-139z" />
    <glyph glyph-name="acircumflex" unicode="&#xe2;" 
d="M415 -29c-104.667 0 -187.67 28.001 -249.003 84.001s-92 131.667 -92 227c0 96 28.833 172.333 86.5 229s141.834 92 252.501 106l245 31c20 2 39 5.33301 57 10c23.333 6 41.333 18 54 36s19 40.667 19 68v9c0 57.333 -21.667 102.166 -65 134.499
s-103.666 48.5 -180.999 48.5c-74 0 -131.833 -17.167 -173.5 -51.5s-66.834 -85.5 -75.501 -153.5v0h-166v0c8.66699 117.333 50 205.5 124 264.5s180 88.5 318 88.5c130 0 229 -28.167 297 -84.5s102 -138.5 102 -246.5v-588c0 -18 5.5 -32.5 16.5 -43.5
s25.833 -16.5 44.5 -16.5c5.33301 0 13.166 0.666992 23.499 2s21.5 3.33301 33.5 6v-130c-17.333 -6.66699 -35.666 -12 -54.999 -16s-35.666 -6 -48.999 -6c-68 0 -117.333 18.667 -148 56c-20 24.667 -34.333 59.667 -43 105v0
c-13.333 -16.667 -28.666 -32.667 -45.999 -48c-90 -80.667 -200 -121 -330 -121zM787.997 424.001l-0.000976562 116v0c-33.333 -16 -70.333 -27 -111 -33l-165 -24c-86.667 -12 -150 -32.167 -190 -60.5s-60 -66.833 -60 -115.5c0 -60 16.333 -106.167 49 -138.5
s79 -48.5 139 -48.5c94.667 0 174.667 25.667 240 77c44.667 36 74.334 76.667 89.001 122c2.66699 8.66699 4.66699 22.334 6 41.001c2 19.333 3 40.666 3 63.999zM642.996 1502l203 -288h-163l-135 192v0l-135 -192h-163l203 288h95h95z" />
    <glyph glyph-name="atilde" unicode="&#xe3;" 
d="M415 -29c-104.667 0 -187.67 28.001 -249.003 84.001s-92 131.667 -92 227c0 96 28.833 172.333 86.5 229s141.834 92 252.501 106l245 31c20 2 39 5.33301 57 10c23.333 6 41.333 18 54 36s19 40.667 19 68v9c0 57.333 -21.667 102.166 -65 134.499
s-103.666 48.5 -180.999 48.5c-74 0 -131.833 -17.167 -173.5 -51.5s-66.834 -85.5 -75.501 -153.5v0h-166v0c8.66699 117.333 50 205.5 124 264.5s180 88.5 318 88.5c130 0 229 -28.167 297 -84.5s102 -138.5 102 -246.5v-588c0 -18 5.5 -32.5 16.5 -43.5
s25.833 -16.5 44.5 -16.5c5.33301 0 13.166 0.666992 23.499 2s21.5 3.33301 33.5 6v-130c-17.333 -6.66699 -35.666 -12 -54.999 -16s-35.666 -6 -48.999 -6c-68 0 -117.333 18.667 -148 56c-20 24.667 -34.333 59.667 -43 105v0
c-13.333 -16.667 -28.666 -32.667 -45.999 -48c-90 -80.667 -200 -121 -330 -121zM787.997 424.001l-0.000976562 116v0c-33.333 -16 -70.333 -27 -111 -33l-165 -24c-86.667 -12 -150 -32.167 -190 -60.5s-60 -66.833 -60 -115.5c0 -60 16.333 -106.167 49 -138.5
s79 -48.5 139 -48.5c94.667 0 174.667 25.667 240 77c44.667 36 74.334 76.667 89.001 122c2.66699 8.66699 4.66699 22.334 6 41.001c2 19.333 3 40.666 3 63.999zM199.996 1239c15.333 80 39.002 137 71.002 171s78 51 138 51c19.333 0 45.666 -4.33301 78.999 -13
s62.666 -19 87.999 -31c18 -8.66699 39.5 -16 64.5 -22s46.5 -9 64.5 -9c23.333 0 42.833 7.83301 58.5 23.5s26.834 38.167 33.501 67.5h99c-16.667 -80 -41 -137 -73 -171s-77.333 -51 -136 -51c-14.667 0 -38.834 4.33301 -72.501 13s-65.167 19 -94.5 31
c-22 8.66699 -45.5 16 -70.5 22s-44.5 9 -58.5 9c-23.333 0 -43 -7.83301 -59 -23.5s-27 -38.167 -33 -67.5h-99z" />
    <glyph glyph-name="adieresis" unicode="&#xe4;" 
d="M415 -29c-104.667 0 -187.67 28.001 -249.003 84.001s-92 131.667 -92 227c0 96 28.833 172.333 86.5 229s141.834 92 252.501 106l245 31c20 2 39 5.33301 57 10c23.333 6 41.333 18 54 36s19 40.667 19 68v9c0 57.333 -21.667 102.166 -65 134.499
s-103.666 48.5 -180.999 48.5c-74 0 -131.833 -17.167 -173.5 -51.5s-66.834 -85.5 -75.501 -153.5v0h-166v0c8.66699 117.333 50 205.5 124 264.5s180 88.5 318 88.5c130 0 229 -28.167 297 -84.5s102 -138.5 102 -246.5v-588c0 -18 5.5 -32.5 16.5 -43.5
s25.833 -16.5 44.5 -16.5c5.33301 0 13.166 0.666992 23.499 2s21.5 3.33301 33.5 6v-130c-17.333 -6.66699 -35.666 -12 -54.999 -16s-35.666 -6 -48.999 -6c-68 0 -117.333 18.667 -148 56c-20 24.667 -34.333 59.667 -43 105v0
c-13.333 -16.667 -28.666 -32.667 -45.999 -48c-90 -80.667 -200 -121 -330 -121zM787.997 424.001l-0.000976562 116v0c-33.333 -16 -70.333 -27 -111 -33l-165 -24c-86.667 -12 -150 -32.167 -190 -60.5s-60 -66.833 -60 -115.5c0 -60 16.333 -106.167 49 -138.5
s79 -48.5 139 -48.5c94.667 0 174.667 25.667 240 77c44.667 36 74.334 76.667 89.001 122c2.66699 8.66699 4.66699 22.334 6 41.001c2 19.333 3 40.666 3 63.999zM288.996 1447h186v-210h-186v210zM620.996 1447h186v-210h-186v210z" />
    <glyph glyph-name="aring" unicode="&#xe5;" 
d="M415 -29c-104.667 0 -187.67 28.001 -249.003 84.001s-92 131.667 -92 227c0 96 28.833 172.333 86.5 229s141.834 92 252.501 106l245 31c20 2 39 5.33301 57 10c23.333 6 41.333 18 54 36s19 40.667 19 68v9c0 57.333 -21.667 102.166 -65 134.499
s-103.666 48.5 -180.999 48.5c-74 0 -131.833 -17.167 -173.5 -51.5s-66.834 -85.5 -75.501 -153.5v0h-166v0c8.66699 117.333 50 205.5 124 264.5s180 88.5 318 88.5c130 0 229 -28.167 297 -84.5s102 -138.5 102 -246.5v-588c0 -18 5.5 -32.5 16.5 -43.5
s25.833 -16.5 44.5 -16.5c5.33301 0 13.166 0.666992 23.499 2s21.5 3.33301 33.5 6v-130c-17.333 -6.66699 -35.666 -12 -54.999 -16s-35.666 -6 -48.999 -6c-68 0 -117.333 18.667 -148 56c-20 24.667 -34.333 59.667 -43 105v0
c-13.333 -16.667 -28.666 -32.667 -45.999 -48c-90 -80.667 -200 -121 -330 -121zM787.997 424.001l-0.000976562 116v0c-33.333 -16 -70.333 -27 -111 -33l-165 -24c-86.667 -12 -150 -32.167 -190 -60.5s-60 -66.833 -60 -115.5c0 -60 16.333 -106.167 49 -138.5
s79 -48.5 139 -48.5c94.667 0 174.667 25.667 240 77c44.667 36 74.334 76.667 89.001 122c2.66699 8.66699 4.66699 22.334 6 41.001c2 19.333 3 40.666 3 63.999zM573.996 1172c-52.667 0 -97.167 18.167 -133.5 54.5s-54.5 80.833 -54.5 133.5s18.167 97.167 54.5 133.5
s80.833 54.5 133.5 54.5s97.167 -18.167 133.5 -54.5s54.5 -80.833 54.5 -133.5s-18.167 -97.167 -54.5 -133.5s-80.833 -54.5 -133.5 -54.5v0zM573.996 1253c30 0 55.333 10.333 76 31s31 46 31 76s-10.333 55.333 -31 76s-46 31 -76 31s-55.333 -10.333 -76 -31
s-31 -46 -31 -76s10.333 -55.333 31 -76s46 -31 76 -31v0z" />
    <glyph glyph-name="ae" unicode="&#xe6;" horiz-adv-x="1821" 
d="M559 1102c127.333 0 224.334 -28.3301 291.001 -84.9971c26 -22 47 -47.667 63 -77l2 3c89.333 106 209.666 159 360.999 159c137.333 0 248.166 -52 332.499 -156s126.5 -240.667 126.5 -410l-2 -64v0h-782v0c4.66699 -107.333 31.667 -191 81 -251
c53.333 -63.333 131.333 -95 234 -95c68 0 127.5 19.333 178.5 58s82.167 88 93.5 148v0h178v0c-26 -117.333 -78.167 -206.833 -156.5 -268.5s-179.166 -92.5 -302.499 -92.5c-148.667 0 -265.334 48 -350.001 144c-21.333 24 -39.666 50 -54.999 78v0
c-24 -35.333 -54.333 -69 -91 -101c-96 -80.667 -213.333 -121 -352 -121c-102.667 0 -184.167 27.833 -244.5 83.5s-90.5 131.167 -90.5 226.5c0 97.333 28.167 174.666 84.5 231.999s138.5 92.666 246.5 105.999l237 30c29.333 4.66699 56.666 10.334 81.999 17.001
c20.667 5.33301 36.5 16.166 47.5 32.499s16.5 36.833 16.5 61.5v11c0 57.333 -21.833 102.166 -65.5 134.499s-104.167 48.5 -181.5 48.5c-74 0 -131.833 -17.167 -173.5 -51.5s-66.834 -85.5 -75.501 -153.5v0h-166v0c8.66699 117.333 49.334 205.5 122.001 264.5
s176.334 88.5 311.001 88.5zM788.001 418.003v131v0c-38 -20 -80.333 -33.667 -127 -41l-156 -22c-84 -12 -145.5 -32.333 -184.5 -61s-58.5 -68 -58.5 -118c0 -60 16.5 -106.167 49.5 -138.5s79.833 -48.5 140.5 -48.5c94 0 173.333 25.667 238 77c46 37.333 76 80 90 128
c2.66699 8.66699 4.66699 21.334 6 38.001c1.33301 17.333 2 35.666 2 54.999zM1547 617.003c-5.33301 99.333 -30 176.667 -74 232c-48.667 61.333 -119.667 92 -213 92c-102.667 0 -180 -37 -232 -111c-36.667 -51.333 -60 -122.333 -70 -213v0h589z" />
    <glyph glyph-name="ccedilla" unicode="&#xe7;" horiz-adv-x="1024" 
d="M977 385c-18.667 -134.667 -66.333 -237.334 -143 -308.001s-178.667 -106 -306 -106c-142 0 -255.333 51 -340 153s-127 239.333 -127 412s43.833 310.167 131.5 412.5s205.5 153.5 353.5 153.5c128.667 0 231.334 -35.167 308.001 -105.5
s117.667 -167.166 123 -290.499v0h-173v0c-7.33301 76.667 -34 136 -80 178s-107.333 63 -184 63c-90.667 0 -161.834 -36.5 -213.501 -109.5s-77.5 -173.5 -77.5 -301.5c0 -136 24 -238.333 72 -307s119.333 -103 214 -103c70 0 128.5 22.5 175.5 67.5
s78.167 108.833 93.5 191.5v0h173zM559.001 2l-92.998 -128v0l60 7c54 0 96.333 -13.667 127 -41s46 -65 46 -113c0 -56 -22.167 -101.333 -66.5 -136s-102.5 -52 -174.5 -52c-24 0 -54.167 4 -90.5 12s-71.833 18.667 -106.5 32l34 82c24 -8.66699 48.333 -15.667 73 -21
s45 -8 61 -8c39.333 0 68.333 7 87 21s28 35.667 28 65c0 22.667 -9.33301 41.667 -28 57s-42.334 23 -71.001 23c-7.33301 0 -18.333 -1.5 -33 -4.5s-30.334 -7.16699 -47.001 -12.5l-34 38l131 179h97z" />
    <glyph glyph-name="egrave" unicode="&#xe8;" 
d="M569 -29c-151.333 0 -270.332 48 -356.999 144s-130 228.667 -130 398c0 180 45.833 323.167 137.5 429.5s214.834 159.5 369.501 159.5c140 0 253 -52 339 -156s129 -240.667 129 -410l-2 -64v0h-782v0c7.33301 -106.667 31.666 -188 72.999 -244
c50.667 -68 130.667 -102 240 -102c68.667 0 128.667 19.333 180 58s82.666 88 93.999 148v0h178v0c-26.667 -117.333 -80 -206.833 -160 -268.5s-183 -92.5 -309 -92.5zM869.001 617c-5.33301 99.333 -29.999 176.667 -73.999 232c-48.667 61.333 -120 92 -214 92
c-94.667 0 -170.334 -35.333 -227.001 -106c-44.667 -55.333 -71.667 -128 -81 -218v0h596zM546.002 1214l-268 288h223l180 -288h-135z" />
    <glyph glyph-name="eacute" unicode="&#xe9;" 
d="M569 -29c-151.333 0 -270.332 48 -356.999 144s-130 228.667 -130 398c0 180 45.833 323.167 137.5 429.5s214.834 159.5 369.501 159.5c140 0 253 -52 339 -156s129 -240.667 129 -410l-2 -64v0h-782v0c7.33301 -106.667 31.666 -188 72.999 -244
c50.667 -68 130.667 -102 240 -102c68.667 0 128.667 19.333 180 58s82.666 88 93.999 148v0h178v0c-26.667 -117.333 -80 -206.833 -160 -268.5s-183 -92.5 -309 -92.5zM869.001 617c-5.33301 99.333 -29.999 176.667 -73.999 232c-48.667 61.333 -120 92 -214 92
c-94.667 0 -170.334 -35.333 -227.001 -106c-44.667 -55.333 -71.667 -128 -81 -218v0h596zM501.002 1214l182 288h221l-264 -288h-139z" />
    <glyph glyph-name="ecircumflex" unicode="&#xea;" 
d="M569 -29c-151.333 0 -270.332 48 -356.999 144s-130 228.667 -130 398c0 180 45.833 323.167 137.5 429.5s214.834 159.5 369.501 159.5c140 0 253 -52 339 -156s129 -240.667 129 -410l-2 -64v0h-782v0c7.33301 -106.667 31.666 -188 72.999 -244
c50.667 -68 130.667 -102 240 -102c68.667 0 128.667 19.333 180 58s82.666 88 93.999 148v0h178v0c-26.667 -117.333 -80 -206.833 -160 -268.5s-183 -92.5 -309 -92.5zM869.001 617c-5.33301 99.333 -29.999 176.667 -73.999 232c-48.667 61.333 -120 92 -214 92
c-94.667 0 -170.334 -35.333 -227.001 -106c-44.667 -55.333 -71.667 -128 -81 -218v0h596zM684.002 1502l203 -288h-163l-135 192v0l-135 -192h-163l203 288h95h95z" />
    <glyph glyph-name="edieresis" unicode="&#xeb;" 
d="M569 -29c-151.333 0 -270.332 48 -356.999 144s-130 228.667 -130 398c0 180 45.833 323.167 137.5 429.5s214.834 159.5 369.501 159.5c140 0 253 -52 339 -156s129 -240.667 129 -410l-2 -64v0h-782v0c7.33301 -106.667 31.666 -188 72.999 -244
c50.667 -68 130.667 -102 240 -102c68.667 0 128.667 19.333 180 58s82.666 88 93.999 148v0h178v0c-26.667 -117.333 -80 -206.833 -160 -268.5s-183 -92.5 -309 -92.5zM869.001 617c-5.33301 99.333 -29.999 176.667 -73.999 232c-48.667 61.333 -120 92 -214 92
c-94.667 0 -170.334 -35.333 -227.001 -106c-44.667 -55.333 -71.667 -128 -81 -218v0h596zM330.002 1447h186v-210h-186v210zM662.002 1447h186v-210h-186v210z" />
    <glyph glyph-name="igrave" unicode="&#xec;" horiz-adv-x="569" 
d="M195 0v1070v0h90h90v0v-1070v0h-90h-90v0zM242 1214l-268 288h223l180 -288h-135z" />
    <glyph glyph-name="iacute" unicode="&#xed;" horiz-adv-x="569" 
d="M195 0v1070v0h90h90v0v-1070v0h-90h-90v0zM197 1214l182 288h221l-264 -288h-139z" />
    <glyph glyph-name="icircumflex" unicode="&#xee;" horiz-adv-x="569" 
d="M197 0v1070v0h90h90v0v-1070v0h-90h-90v0zM382 1502l203 -288h-163l-135 192v0l-135 -192h-163l203 288h95h95z" />
    <glyph glyph-name="idieresis" unicode="&#xef;" horiz-adv-x="569" 
d="M196 0v1070v0h90h90v0v-1070v0h-90h-90v0zM27 1447h186v-210h-186v210zM359 1447h186v-210h-186v210z" />
    <glyph glyph-name="eth" unicode="&#xf0;" 
d="M570 -29c-148.667 0 -268.832 50.834 -360.499 152.501s-137.5 234.834 -137.5 399.501c0 165.333 43.167 298.833 129.5 400.5s199.166 152.5 338.499 152.5c113.333 0 211.333 -49 294 -147v0c-22 51.333 -48.333 99.666 -79 144.999
c-42.667 62 -96.667 121.667 -162 179l-257 -123l-84 80l245 117c-52 37.333 -110 73.666 -174 108.999l147 78c64.667 -34.667 124 -73 178 -115l230 110l91 -77l-229 -109c67.333 -62.667 125.333 -130.667 174 -204c103.333 -157.333 155 -328.333 155 -513
c0 -203.333 -43.167 -360 -129.5 -470s-209.5 -165 -369.5 -165zM260.002 523.001c0 -121.333 28 -217.833 84 -289.5s131.333 -107.5 226 -107.5s170.167 35.833 226.5 107.5s84.5 168.167 84.5 289.5s-28.167 218 -84.5 290s-131.833 108 -226.5 108s-170 -36 -226 -108
s-84 -168.667 -84 -290z" />
    <glyph glyph-name="ntilde" unicode="&#xf1;" 
d="M133 0v1070v0h85h86v0v-158v0v0l40 53c78 91.333 175.667 137 293 137c118 0 209 -32 273 -96s96 -155 96 -273v-733v0h-90h-90v0v672c0 94 -18.167 161.833 -54.5 203.5s-95.166 62.5 -176.499 62.5c-86.667 0 -155.334 -32.833 -206.001 -98.5s-76 -154.5 -76 -266.5v0
v-573v0h-90h-90v0zM221 1239c15.333 80 39.002 137 71.002 171s78 51 138 51c19.333 0 45.666 -4.33301 78.999 -13s62.666 -19 87.999 -31c18 -8.66699 39.5 -16 64.5 -22s46.5 -9 64.5 -9c23.333 0 42.833 7.83301 58.5 23.5s26.834 38.167 33.501 67.5h99
c-16.667 -80 -41 -137 -73 -171s-77.333 -51 -136 -51c-14.667 0 -38.834 4.33301 -72.501 13s-65.167 19 -94.5 31c-22 8.66699 -45.5 16 -70.5 22s-44.5 9 -58.5 9c-23.333 0 -43 -7.83301 -59 -23.5s-27 -38.167 -33 -67.5h-99z" />
    <glyph glyph-name="ograve" unicode="&#xf2;" 
d="M569 -29c-148 0 -267.833 52 -359.5 156s-137.5 240.333 -137.5 409c0 169.333 45.833 306 137.5 410s211.5 156 359.5 156c149.333 0 269.666 -52 360.999 -156s137 -240.667 137 -410c0 -168.667 -45.667 -305 -137 -409s-211.666 -156 -360.999 -156v0zM569 126
c94.667 0 170 37 226 111s84 173.667 84 299s-28 225.166 -84 299.499s-131.333 111.5 -226 111.5s-169.834 -37.167 -225.501 -111.5s-83.5 -174.166 -83.5 -299.499s27.833 -225 83.5 -299s130.834 -111 225.501 -111v0zM526 1214l-268 288h223l180 -288h-135z" />
    <glyph glyph-name="oacute" unicode="&#xf3;" 
d="M569 -29c-148 0 -267.833 52 -359.5 156s-137.5 240.333 -137.5 409c0 169.333 45.833 306 137.5 410s211.5 156 359.5 156c149.333 0 269.666 -52 360.999 -156s137 -240.667 137 -410c0 -168.667 -45.667 -305 -137 -409s-211.666 -156 -360.999 -156v0zM569 126
c94.667 0 170 37 226 111s84 173.667 84 299s-28 225.166 -84 299.499s-131.333 111.5 -226 111.5s-169.834 -37.167 -225.501 -111.5s-83.5 -174.166 -83.5 -299.499s27.833 -225 83.5 -299s130.834 -111 225.501 -111v0zM481 1214l182 288h221l-264 -288h-139z" />
    <glyph glyph-name="ocircumflex" unicode="&#xf4;" 
d="M569 -29c-148 0 -267.833 52 -359.5 156s-137.5 240.333 -137.5 409c0 169.333 45.833 306 137.5 410s211.5 156 359.5 156c149.333 0 269.666 -52 360.999 -156s137 -240.667 137 -410c0 -168.667 -45.667 -305 -137 -409s-211.666 -156 -360.999 -156v0zM569 126
c94.667 0 170 37 226 111s84 173.667 84 299s-28 225.166 -84 299.499s-131.333 111.5 -226 111.5s-169.834 -37.167 -225.501 -111.5s-83.5 -174.166 -83.5 -299.499s27.833 -225 83.5 -299s130.834 -111 225.501 -111v0zM664 1502l203 -288h-163l-135 192v0l-135 -192
h-163l203 288h95h95z" />
    <glyph glyph-name="otilde" unicode="&#xf5;" 
d="M569 -29c-148 0 -267.833 52 -359.5 156s-137.5 240.333 -137.5 409c0 169.333 45.833 306 137.5 410s211.5 156 359.5 156c149.333 0 269.666 -52 360.999 -156s137 -240.667 137 -410c0 -168.667 -45.667 -305 -137 -409s-211.666 -156 -360.999 -156v0zM569 126
c94.667 0 170 37 226 111s84 173.667 84 299s-28 225.166 -84 299.499s-131.333 111.5 -226 111.5s-169.834 -37.167 -225.501 -111.5s-83.5 -174.166 -83.5 -299.499s27.833 -225 83.5 -299s130.834 -111 225.501 -111v0zM221 1239c15.333 80 39.002 137 71.002 171
s78 51 138 51c19.333 0 45.666 -4.33301 78.999 -13s62.666 -19 87.999 -31c18 -8.66699 39.5 -16 64.5 -22s46.5 -9 64.5 -9c23.333 0 42.833 7.83301 58.5 23.5s26.834 38.167 33.501 67.5h99c-16.667 -80 -41 -137 -73 -171s-77.333 -51 -136 -51
c-14.667 0 -38.834 4.33301 -72.501 13s-65.167 19 -94.5 31c-22 8.66699 -45.5 16 -70.5 22s-44.5 9 -58.5 9c-23.333 0 -43 -7.83301 -59 -23.5s-27 -38.167 -33 -67.5h-99z" />
    <glyph glyph-name="odieresis" unicode="&#xf6;" 
d="M569 -29c-148 0 -267.833 52 -359.5 156s-137.5 240.333 -137.5 409c0 169.333 45.833 306 137.5 410s211.5 156 359.5 156c149.333 0 269.666 -52 360.999 -156s137 -240.667 137 -410c0 -168.667 -45.667 -305 -137 -409s-211.666 -156 -360.999 -156v0zM569 126
c94.667 0 170 37 226 111s84 173.667 84 299s-28 225.166 -84 299.499s-131.333 111.5 -226 111.5s-169.834 -37.167 -225.501 -111.5s-83.5 -174.166 -83.5 -299.499s27.833 -225 83.5 -299s130.834 -111 225.501 -111v0zM310 1447h186v-210h-186v210zM642 1447h186v-210
h-186v210z" />
    <glyph glyph-name="divide" unicode="&#xf7;" horiz-adv-x="1196" 
d="M598 237c38.667 0 71.5 -13.5 98.5 -40.5s40.5 -60.167 40.5 -99.5c0 -38.667 -13.5 -71.5 -40.5 -98.5s-59.833 -40.5 -98.5 -40.5s-71.5 13.5 -98.5 40.5s-40.5 59.833 -40.5 98.5c0 39.333 13.5 72.5 40.5 99.5s59.833 40.5 98.5 40.5zM80 591h1036v-151h-1036v151z
M598 1073c38.667 0 71.5 -13.5 98.5 -40.5s40.5 -60.167 40.5 -99.5c0 -38.667 -13.5 -71.5 -40.5 -98.5s-59.833 -40.5 -98.5 -40.5s-71.5 13.5 -98.5 40.5s-40.5 59.833 -40.5 98.5c0 39.333 13.5 72.5 40.5 99.5s59.833 40.5 98.5 40.5z" />
    <glyph glyph-name="oslash" unicode="&#xf8;" horiz-adv-x="1251" 
d="M578 475l-218.001 -247.999c54.667 -66.667 127.334 -100.334 218.001 -101.001v0c94.667 0 170 37 226 111s84 173.667 84 299c0 94 -15.667 173 -47 237zM577.999 -28.999c-133.333 0 -244.001 42 -332.001 126l-126 -143l-63 51l134 152
c-72 101.333 -108.667 227.666 -110 378.999c0 169.333 45.833 306 137.5 410s211.5 156 359.5 156c134 0.666992 245.333 -41.666 334 -126.999l124 141l63 -51l-134 -152c74 -99.333 111 -225 111 -377c0 -168.667 -45.667 -305 -137 -409s-211.666 -156 -360.999 -156v0z
M577.998 947.001c-94.667 0 -169.833 -37.168 -225.5 -111.501s-83.5 -174.166 -83.5 -299.499c0 -93.333 15.333 -173 46 -239l263 298l219 250c-54.667 68 -127.667 102 -219 102z" />
    <glyph glyph-name="ugrave" unicode="&#xf9;" 
d="M319 1070l-0.000976562 -690.001c0 -90 17.333 -154.833 52 -194.5s91 -59.5 169 -59.5c86.667 0 155.334 33.5 206.001 100.5s76 157.833 76 272.5v0v571v0h90h90v0v-1070v0h-85h-86v0v163v0v0c-12 -19.333 -25.333 -37.666 -40 -54.999
c-76.667 -91.333 -172.667 -137 -288 -137c-121.333 0 -212.333 30.333 -273 91s-91 151.667 -91 273v735v0h90h90v0zM526.999 1214l-268 288h223l180 -288h-135z" />
    <glyph glyph-name="uacute" unicode="&#xfa;" 
d="M319 1070l-0.000976562 -690.001c0 -90 17.333 -154.833 52 -194.5s91 -59.5 169 -59.5c86.667 0 155.334 33.5 206.001 100.5s76 157.833 76 272.5v0v571v0h90h90v0v-1070v0h-85h-86v0v163v0v0c-12 -19.333 -25.333 -37.666 -40 -54.999
c-76.667 -91.333 -172.667 -137 -288 -137c-121.333 0 -212.333 30.333 -273 91s-91 151.667 -91 273v735v0h90h90v0zM481.999 1214l182 288h221l-264 -288h-139z" />
    <glyph glyph-name="ucircumflex" unicode="&#xfb;" 
d="M319 1070l-0.000976562 -690.001c0 -90 17.333 -154.833 52 -194.5s91 -59.5 169 -59.5c86.667 0 155.334 33.5 206.001 100.5s76 157.833 76 272.5v0v571v0h90h90v0v-1070v0h-85h-86v0v163v0v0c-12 -19.333 -25.333 -37.666 -40 -54.999
c-76.667 -91.333 -172.667 -137 -288 -137c-121.333 0 -212.333 30.333 -273 91s-91 151.667 -91 273v735v0h90h90v0zM664.999 1502l203 -288h-163l-135 192v0l-135 -192h-163l203 288h95h95z" />
    <glyph glyph-name="udieresis" unicode="&#xfc;" 
d="M319 1070l-0.000976562 -690.001c0 -90 17.333 -154.833 52 -194.5s91 -59.5 169 -59.5c86.667 0 155.334 33.5 206.001 100.5s76 157.833 76 272.5v0v571v0h90h90v0v-1070v0h-85h-86v0v163v0v0c-12 -19.333 -25.333 -37.666 -40 -54.999
c-76.667 -91.333 -172.667 -137 -288 -137c-121.333 0 -212.333 30.333 -273 91s-91 151.667 -91 273v735v0h90h90v0zM310.999 1447h186v-210h-186v210zM642.999 1447h186v-210h-186v210z" />
    <glyph glyph-name="yacute" unicode="&#xfd;" horiz-adv-x="1024" 
d="M1001 1070l-406.999 -1105c-62.667 -164.667 -118.5 -272.334 -167.5 -323.001s-122.5 -76 -220.5 -76c-32 -0.666992 -61 3 -87 11v167c27.333 -10 61.666 -15.333 102.999 -16c40.667 0 74.667 16.667 102 50s58.333 95.666 93 186.999l3 17v0l-397 1088v0h102h103v0
l286 -885v0v0l290 885v0h98h99v0zM424.001 1214l182 288h221l-264 -288h-139z" />
    <glyph glyph-name="thorn" unicode="&#xfe;" 
d="M119 1470h90h90v0v-537v0c78 112.667 179.667 169 305 169c140 0 250.833 -48.167 332.5 -144.5s122.5 -226.5 122.5 -390.5c0 -186 -41.167 -331.833 -123.5 -437.5s-196.5 -158.5 -342.5 -158.5c-120.667 0 -216.667 46.333 -288 139l-6 8v0v-541v0h-90h-90v0v1893z
M584 127c94 0 165.334 35.5 214.001 106.5s73 174.5 73 310.5c0 134 -23.333 233.167 -70 297.5s-118.667 96.5 -216 96.5c-99.333 0 -171.833 -36.333 -217.5 -109s-68.5 -187.667 -68.5 -345v0v0v0c0 -114 24.667 -202 74 -264s119.666 -93 210.999 -93z" />
    <glyph glyph-name="ydieresis" unicode="&#xff;" horiz-adv-x="1024" 
d="M1001 1070l-406.999 -1105c-62.667 -164.667 -118.5 -272.334 -167.5 -323.001s-122.5 -76 -220.5 -76c-32 -0.666992 -61 3 -87 11v167c27.333 -10 61.666 -15.333 102.999 -16c40.667 0 74.667 16.667 102 50s58.333 95.666 93 186.999l3 17v0l-397 1088v0h102h103v0
l286 -885v0v0l290 885v0h98h99v0zM253.001 1447h186v-210h-186v210zM585.001 1447h186v-210h-186v210z" />
    <glyph glyph-name="Amacron" unicode="&#x100;" horiz-adv-x="1366" 
d="M29 0l555 1470h113h114l528 -1470v0h-107h-107v0l-149 426v0h-588v0l-154 -426v0h-102h-103v0zM688 1254l-236 -652v0h463v0l-227 652v0v0zM385 1739h624v-125h-624v125z" />
    <glyph glyph-name="amacron" unicode="&#x101;" 
d="M415 -29c-104.667 0 -187.67 28.001 -249.003 84.001s-92 131.667 -92 227c0 96 28.833 172.333 86.5 229s141.834 92 252.501 106l245 31c20 2 39 5.33301 57 10c23.333 6 41.333 18 54 36s19 40.667 19 68v9c0 57.333 -21.667 102.166 -65 134.499
s-103.666 48.5 -180.999 48.5c-74 0 -131.833 -17.167 -173.5 -51.5s-66.834 -85.5 -75.501 -153.5v0h-166v0c8.66699 117.333 50 205.5 124 264.5s180 88.5 318 88.5c130 0 229 -28.167 297 -84.5s102 -138.5 102 -246.5v-588c0 -18 5.5 -32.5 16.5 -43.5
s25.833 -16.5 44.5 -16.5c5.33301 0 13.166 0.666992 23.499 2s21.5 3.33301 33.5 6v-130c-17.333 -6.66699 -35.666 -12 -54.999 -16s-35.666 -6 -48.999 -6c-68 0 -117.333 18.667 -148 56c-20 24.667 -34.333 59.667 -43 105v0
c-13.333 -16.667 -28.666 -32.667 -45.999 -48c-90 -80.667 -200 -121 -330 -121zM787.997 424.001l-0.000976562 116v0c-33.333 -16 -70.333 -27 -111 -33l-165 -24c-86.667 -12 -150 -32.167 -190 -60.5s-60 -66.833 -60 -115.5c0 -60 16.333 -106.167 49 -138.5
s79 -48.5 139 -48.5c94.667 0 174.667 25.667 240 77c44.667 36 74.334 76.667 89.001 122c2.66699 8.66699 4.66699 22.334 6 41.001c2 19.333 3 40.666 3 63.999zM235.996 1339h624v-125h-624v125z" />
    <glyph glyph-name="Abreve" unicode="&#x102;" horiz-adv-x="1366" 
d="M29 0l555 1470h113h114l528 -1470v0h-107h-107v0l-149 426v0h-588v0l-154 -426v0h-102h-103v0zM688 1254l-236 -652v0h463v0l-227 652v0v0zM697 1617c-94 0 -168.332 24.3311 -222.999 72.998s-85.667 117.334 -93 206.001h97c14 -55.333 39.167 -96.666 75.5 -123.999
s84.166 -41 143.499 -41c64.667 0 113.5 12.333 146.5 37s57.167 67.334 72.5 128.001h97c-7.33301 -88.667 -38.333 -157.334 -93 -206.001s-129 -73 -223 -73z" />
    <glyph glyph-name="abreve" unicode="&#x103;" 
d="M415 -29c-104.667 0 -187.67 28.001 -249.003 84.001s-92 131.667 -92 227c0 96 28.833 172.333 86.5 229s141.834 92 252.501 106l245 31c20 2 39 5.33301 57 10c23.333 6 41.333 18 54 36s19 40.667 19 68v9c0 57.333 -21.667 102.166 -65 134.499
s-103.666 48.5 -180.999 48.5c-74 0 -131.833 -17.167 -173.5 -51.5s-66.834 -85.5 -75.501 -153.5v0h-166v0c8.66699 117.333 50 205.5 124 264.5s180 88.5 318 88.5c130 0 229 -28.167 297 -84.5s102 -138.5 102 -246.5v-588c0 -18 5.5 -32.5 16.5 -43.5
s25.833 -16.5 44.5 -16.5c5.33301 0 13.166 0.666992 23.499 2s21.5 3.33301 33.5 6v-130c-17.333 -6.66699 -35.666 -12 -54.999 -16s-35.666 -6 -48.999 -6c-68 0 -117.333 18.667 -148 56c-20 24.667 -34.333 59.667 -43 105v0
c-13.333 -16.667 -28.666 -32.667 -45.999 -48c-90 -80.667 -200 -121 -330 -121zM787.997 424.001l-0.000976562 116v0c-33.333 -16 -70.333 -27 -111 -33l-165 -24c-86.667 -12 -150 -32.167 -190 -60.5s-60 -66.833 -60 -115.5c0 -60 16.333 -106.167 49 -138.5
s79 -48.5 139 -48.5c94.667 0 174.667 25.667 240 77c44.667 36 74.334 76.667 89.001 122c2.66699 8.66699 4.66699 22.334 6 41.001c2 19.333 3 40.666 3 63.999zM547.996 1217c-94 0 -168.332 24.3311 -222.999 72.998s-85.667 117.334 -93 206.001h97
c14 -55.333 39.167 -96.666 75.5 -123.999s84.166 -41 143.499 -41c64.667 0 113.5 12.333 146.5 37s57.167 67.334 72.5 128.001h97c-7.33301 -88.667 -38.333 -157.334 -93 -206.001s-129 -73 -223 -73z" />
    <glyph glyph-name="Aogonek" unicode="&#x104;" horiz-adv-x="1366" 
d="M29 0l555 1470h113h114l528 -1470v0h-107h-107v0l-149 426v0h-588v0l-154 -426v0h-102h-103v0zM688 1254l-236 -652v0h463v0l-227 652v0v0zM899 -271c0 64 20.668 120.999 62.001 170.999s96 83.667 164 101h136v-8c-71.333 -36.667 -123.333 -74.167 -156 -112.5
s-49 -83.5 -49 -135.5c0 -37.333 9.33301 -64.833 28 -82.5s47.667 -26.5 87 -26.5c22 0 44.5 2.83301 67.5 8.5s44.167 13.5 63.5 23.5l35 -82c-25.333 -14 -56 -25.167 -92 -33.5s-70.667 -12.5 -104 -12.5c-72.667 0 -131.334 17.333 -176.001 52
c-44 34.667 -66 80.334 -66 137.001z" />
    <glyph glyph-name="aogonek" unicode="&#x105;" 
d="M415 -29c-104.667 0 -187.67 28.001 -249.003 84.001s-92 131.667 -92 227c0 96 28.833 172.333 86.5 229s141.834 92 252.501 106l245 31c20 2 39 5.33301 57 10c23.333 6 41.333 18 54 36s19 40.667 19 68v9c0 57.333 -21.667 102.166 -65 134.499
s-103.666 48.5 -180.999 48.5c-74 0 -131.833 -17.167 -173.5 -51.5s-66.834 -85.5 -75.501 -153.5v0h-166v0c8.66699 117.333 50 205.5 124 264.5s180 88.5 318 88.5c130 0 229 -28.167 297 -84.5s102 -138.5 102 -246.5v-588c0 -18 5.5 -32.5 16.5 -43.5
s25.833 -16.5 44.5 -16.5c5.33301 0 13.166 0.666992 23.499 2s21.5 3.33301 33.5 6v-130c-17.333 -6.66699 -35.666 -12 -54.999 -16s-35.666 -6 -48.999 -6c-68 0 -117.333 18.667 -148 56c-20 24.667 -34.333 59.667 -43 105v0
c-13.333 -16.667 -28.666 -32.667 -45.999 -48c-90 -80.667 -200 -121 -330 -121zM787.997 424.001l-0.000976562 116v0c-33.333 -16 -70.333 -27 -111 -33l-165 -24c-86.667 -12 -150 -32.167 -190 -60.5s-60 -66.833 -60 -115.5c0 -60 16.333 -106.167 49 -138.5
s79 -48.5 139 -48.5c94.667 0 174.667 25.667 240 77c44.667 36 74.334 76.667 89.001 122c2.66699 8.66699 4.66699 22.334 6 41.001c2 19.333 3 40.666 3 63.999zM642.996 -270.999c0 64 20.668 120.999 62.001 170.999s96 83.667 164 101h136v-8
c-71.333 -36.667 -123.333 -74.167 -156 -112.5s-49 -83.5 -49 -135.5c0 -37.333 9.33301 -64.833 28 -82.5s47.667 -26.5 87 -26.5c22 0 44.5 2.83301 67.5 8.5s44.167 13.5 63.5 23.5l35 -82c-25.333 -14 -56 -25.167 -92 -33.5s-70.667 -12.5 -104 -12.5
c-72.667 0 -131.334 17.333 -176.001 52c-44 34.667 -66 80.334 -66 137.001z" />
    <glyph glyph-name="Cacute" unicode="&#x106;" horiz-adv-x="1479" 
d="M1395 541c-25.333 -181.333 -94.832 -323.501 -208.499 -426.501s-257.5 -154.5 -431.5 -154.5c-202.667 0 -364.167 69.833 -484.5 209.5s-180.5 327.834 -180.5 564.501s62.5 425.167 187.5 565.5s292.833 210.5 503.5 210.5c166 0 302.333 -42.667 409 -128
s170.667 -203 192 -353v0h-192v0c-18.667 97.333 -63.834 172.5 -135.501 225.5s-163.834 79.5 -276.501 79.5c-147.333 0 -264.666 -54.167 -351.999 -162.5s-131 -254.166 -131 -437.499c0 -194.667 40.5 -343 121.5 -445s198.5 -153 352.5 -153
c114 0 208.667 35.167 284 105.5s125.333 170.166 150 299.499v0h192zM684.001 1614l182 288h221l-264 -288h-139z" />
    <glyph glyph-name="cacute" unicode="&#x107;" horiz-adv-x="1024" 
d="M977 385c-18.667 -134.667 -66.333 -237.334 -143 -308.001s-178.667 -106 -306 -106c-142 0 -255.333 51 -340 153s-127 239.333 -127 412s43.833 310.167 131.5 412.5s205.5 153.5 353.5 153.5c128.667 0 231.334 -35.167 308.001 -105.5
s117.667 -167.166 123 -290.499v0h-173v0c-7.33301 76.667 -34 136 -80 178s-107.333 63 -184 63c-90.667 0 -161.834 -36.5 -213.501 -109.5s-77.5 -173.5 -77.5 -301.5c0 -136 24 -238.333 72 -307s119.333 -103 214 -103c70 0 128.5 22.5 175.5 67.5
s78.167 108.833 93.5 191.5v0h173zM458.001 1214l182 288h221l-264 -288h-139z" />
    <glyph glyph-name="Ccaron" unicode="&#x10c;" horiz-adv-x="1479" 
d="M1395 541c-25.333 -181.333 -94.832 -323.501 -208.499 -426.501s-257.5 -154.5 -431.5 -154.5c-202.667 0 -364.167 69.833 -484.5 209.5s-180.5 327.834 -180.5 564.501s62.5 425.167 187.5 565.5s292.833 210.5 503.5 210.5c166 0 302.333 -42.667 409 -128
s170.667 -203 192 -353v0h-192v0c-18.667 97.333 -63.834 172.5 -135.501 225.5s-163.834 79.5 -276.501 79.5c-147.333 0 -264.666 -54.167 -351.999 -162.5s-131 -254.166 -131 -437.499c0 -194.667 40.5 -343 121.5 -445s198.5 -153 352.5 -153
c114 0 208.667 35.167 284 105.5s125.333 170.166 150 299.499v0h192zM691.001 1614l-203 288h163l135 -192v0l135 192h163l-203 -288h-95h-95z" />
    <glyph glyph-name="ccaron" unicode="&#x10d;" horiz-adv-x="1024" 
d="M977 385c-18.667 -134.667 -66.333 -237.334 -143 -308.001s-178.667 -106 -306 -106c-142 0 -255.333 51 -340 153s-127 239.333 -127 412s43.833 310.167 131.5 412.5s205.5 153.5 353.5 153.5c128.667 0 231.334 -35.167 308.001 -105.5
s117.667 -167.166 123 -290.499v0h-173v0c-7.33301 76.667 -34 136 -80 178s-107.333 63 -184 63c-90.667 0 -161.834 -36.5 -213.501 -109.5s-77.5 -173.5 -77.5 -301.5c0 -136 24 -238.333 72 -307s119.333 -103 214 -103c70 0 128.5 22.5 175.5 67.5
s78.167 108.833 93.5 191.5v0h173zM468.001 1214l-203 288h163l135 -192v0l135 192h163l-203 -288h-95h-95z" />
    <glyph glyph-name="Dcaron" unicode="&#x10e;" horiz-adv-x="1479" 
d="M166 0v1470v0h99v0h505c186.667 0 335.167 -66.5 445.5 -199.5s165.5 -311.833 165.5 -536.5c0 -224 -56.5 -402.333 -169.5 -535s-265.5 -199 -457.5 -199h-489v0h-99v0zM365 170h363.999c142.667 0 252.834 49 330.501 147s116.5 237 116.5 417
c0 180.667 -37.333 320.167 -112 418.5s-180.667 147.5 -318 147.5h-381v0v-1130zM561.999 1614l-203 288h163l135 -192v0l135 192h163l-203 -288h-95h-95z" />
    <glyph glyph-name="dcaron" unicode="&#x10f;" horiz-adv-x="1330" 
d="M540 -29c-143.333 0 -257.333 53.499 -342 160.499s-127 251.5 -127 433.5c0 160.667 41 290.334 123 389.001s189 148 321 148c131.333 0 235.333 -55.667 312 -167l14 -20v0v555v0h90h90v0v-1470v0h-83h-84v0v146v0l-23 -33c-74 -94.667 -171 -142 -291 -142z
M550 939.999c-100.667 0 -174.332 -32.167 -220.999 -96.5s-70 -166.5 -70 -306.5c0 -132 25.167 -233.667 75.5 -305s122.166 -107 215.499 -107c87.333 0 157.666 32.833 210.999 98.5s80 152.5 80 260.5c0 146 -25.167 258.5 -75.5 337.5s-122.166 118.5 -215.499 118.5z
M1118 1371l-0.000976562 99h94h94v-165c0 -107.333 -12.5 -180.5 -37.5 -219.5s-78.167 -68.167 -159.5 -87.5v0v84v0c38.667 6.66699 65.334 28 80.001 64c11.333 27.333 18 69.333 20 126v0h-91v99z" />
    <glyph glyph-name="Dcroat" unicode="&#x110;" horiz-adv-x="1479" 
d="M158 0v666v0h-158v137h158v0v667v0h99v0h509c188 0 337.5 -66.5 448.5 -199.5s166.5 -311.833 166.5 -536.5c0 -224 -57 -402.333 -171 -535s-267.333 -199 -460 -199h-493v0h-99zM357 1300l0.000976562 -497v0h401v-137h-401v0v-496v0h368c144 0 255.167 49 333.5 147
s117.5 237 117.5 417c0 180.667 -37.833 320.167 -113.5 418.5s-182.834 147.5 -321.501 147.5h-384z" />
    <glyph glyph-name="dcroat" unicode="&#x111;" 
d="M541 -29c-143.333 0 -257.333 53.499 -342 160.499s-127 251.5 -127 433.5c0 160.667 41 290.334 123 389.001s189 148 321 148c131.333 0 235.333 -55.667 312 -167l14 -20v0v317h-352v129h352v109v0h90h90v0v-109h161v-129h-161v-1232v0h-90h-90v0v126v0l-10 -13
c-74 -94.667 -171 -142 -291 -142zM551 939.999c-100.667 0 -174.332 -32.167 -220.999 -96.5s-70 -166.5 -70 -306.5c0 -132 25.167 -233.667 75.5 -305s122.166 -107 215.499 -107c87.333 0 157.666 32.833 210.999 98.5s80 152.5 80 260.5
c0 146 -25.167 258.5 -75.5 337.5s-122.166 118.5 -215.499 118.5z" />
    <glyph glyph-name="Emacron" unicode="&#x112;" horiz-adv-x="1366" 
d="M176 0v1470v0h1075v0v-88v-88v0h-876v0v-449v0h800v-88v-88v0h-800v0v-493v0h887v0v-88v-88v0h-1086zM424 1739h624v-125h-624v125z" />
    <glyph glyph-name="emacron" unicode="&#x113;" 
d="M569 -29c-151.333 0 -270.332 48 -356.999 144s-130 228.667 -130 398c0 180 45.833 323.167 137.5 429.5s214.834 159.5 369.501 159.5c140 0 253 -52 339 -156s129 -240.667 129 -410l-2 -64v0h-782v0c7.33301 -106.667 31.666 -188 72.999 -244
c50.667 -68 130.667 -102 240 -102c68.667 0 128.667 19.333 180 58s82.666 88 93.999 148v0h178v0c-26.667 -117.333 -80 -206.833 -160 -268.5s-183 -92.5 -309 -92.5zM869.001 617c-5.33301 99.333 -29.999 176.667 -73.999 232c-48.667 61.333 -120 92 -214 92
c-94.667 0 -170.334 -35.333 -227.001 -106c-44.667 -55.333 -71.667 -128 -81 -218v0h596zM277.002 1339h624v-125h-624v125z" />
    <glyph glyph-name="Edotaccent" unicode="&#x116;" horiz-adv-x="1366" 
d="M176 0v1470v0h1075v0v-88v-88v0h-876v0v-449v0h800v-88v-88v0h-800v0v-493v0h887v0v-88v-88v0h-1086zM643 1846h186v-209h-186v209z" />
    <glyph glyph-name="edotaccent" unicode="&#x117;" 
d="M569 -29c-151.333 0 -270.332 48 -356.999 144s-130 228.667 -130 398c0 180 45.833 323.167 137.5 429.5s214.834 159.5 369.501 159.5c140 0 253 -52 339 -156s129 -240.667 129 -410l-2 -64v0h-782v0c7.33301 -106.667 31.666 -188 72.999 -244
c50.667 -68 130.667 -102 240 -102c68.667 0 128.667 19.333 180 58s82.666 88 93.999 148v0h178v0c-26.667 -117.333 -80 -206.833 -160 -268.5s-183 -92.5 -309 -92.5zM869.001 617c-5.33301 99.333 -29.999 176.667 -73.999 232c-48.667 61.333 -120 92 -214 92
c-94.667 0 -170.334 -35.333 -227.001 -106c-44.667 -55.333 -71.667 -128 -81 -218v0h596zM496.002 1446h186v-209h-186v209z" />
    <glyph glyph-name="Eogonek" unicode="&#x118;" horiz-adv-x="1366" 
d="M176 0v1470v0h1075v0v-88v-88v0h-876v0v-449v0h800v-88v-88v0h-800v0v-493v0h887v0v-88v-88v0h-1086zM819 -271c0 64 20.668 120.999 62.001 170.999s96 83.667 164 101h136v-8c-71.333 -36.667 -123.333 -74.167 -156 -112.5s-49 -83.5 -49 -135.5
c0 -37.333 9.33301 -64.833 28 -82.5s47.667 -26.5 87 -26.5c22 0 44.5 2.83301 67.5 8.5s44.167 13.5 63.5 23.5l35 -82c-25.333 -14 -56 -25.167 -92 -33.5s-70.667 -12.5 -104 -12.5c-72.667 0 -131.334 17.333 -176.001 52c-44 34.667 -66 80.334 -66 137.001z" />
    <glyph glyph-name="eogonek" unicode="&#x119;" 
d="M569 -29c-151.333 0 -270.332 48 -356.999 144s-130 228.667 -130 398c0 180 45.833 323.167 137.5 429.5s214.834 159.5 369.501 159.5c140 0 253 -52 339 -156s129 -240.667 129 -410l-2 -64v0h-782v0c7.33301 -106.667 31.666 -188 72.999 -244
c50.667 -68 130.667 -102 240 -102c68.667 0 128.667 19.333 180 58s82.666 88 93.999 148v0h178v0c-26.667 -117.333 -80 -206.833 -160 -268.5s-183 -92.5 -309 -92.5zM869.001 617c-5.33301 99.333 -29.999 176.667 -73.999 232c-48.667 61.333 -120 92 -214 92
c-94.667 0 -170.334 -35.333 -227.001 -106c-44.667 -55.333 -71.667 -128 -81 -218v0h596zM387.002 -270.999c0 64 20.668 120.999 62.001 170.999s96 83.667 164 101h136v-8c-71.333 -36.667 -123.333 -74.167 -156 -112.5s-49 -83.5 -49 -135.5
c0 -37.333 9.33301 -64.833 28 -82.5s47.667 -26.5 87 -26.5c22 0 44.5 2.83301 67.5 8.5s44.167 13.5 63.5 23.5l35 -82c-25.333 -14 -56 -25.167 -92 -33.5s-70.667 -12.5 -104 -12.5c-72.667 0 -131.334 17.333 -176.001 52c-44 34.667 -66 80.334 -66 137.001z" />
    <glyph glyph-name="Ecaron" unicode="&#x11a;" horiz-adv-x="1366" 
d="M176 0v1470v0h1075v0v-88v-88v0h-876v0v-449v0h800v-88v-88v0h-800v0v-493v0h887v0v-88v-88v0h-1086zM646 1614l-203 288h163l135 -192v0l135 192h163l-203 -288h-95h-95z" />
    <glyph glyph-name="ecaron" unicode="&#x11b;" 
d="M569 -29c-151.333 0 -270.332 48 -356.999 144s-130 228.667 -130 398c0 180 45.833 323.167 137.5 429.5s214.834 159.5 369.501 159.5c140 0 253 -52 339 -156s129 -240.667 129 -410l-2 -64v0h-782v0c7.33301 -106.667 31.666 -188 72.999 -244
c50.667 -68 130.667 -102 240 -102c68.667 0 128.667 19.333 180 58s82.666 88 93.999 148v0h178v0c-26.667 -117.333 -80 -206.833 -160 -268.5s-183 -92.5 -309 -92.5zM869.001 617c-5.33301 99.333 -29.999 176.667 -73.999 232c-48.667 61.333 -120 92 -214 92
c-94.667 0 -170.334 -35.333 -227.001 -106c-44.667 -55.333 -71.667 -128 -81 -218v0h596zM511.002 1214l-203 288h163l135 -192v0l135 192h163l-203 -288h-95h-95z" />
    <glyph glyph-name="Gbreve" unicode="&#x11e;" horiz-adv-x="1593" 
d="M782 -40c-204 0 -368.999 71.1689 -494.999 213.502s-189 329.166 -189 560.499c0 232 64.333 419.333 193 562s297 214 505 214c160.667 0 298.834 -45 414.501 -135s183.5 -205.333 203.5 -346v0h-192v0c-18.667 97.333 -66 172.5 -142 225.5s-174.667 79.5 -296 79.5
c-143.333 0 -259.333 -55.5 -348 -166.5s-133 -256.5 -133 -436.5c0 -191.333 42.833 -339.333 128.5 -444s206.5 -157 362.5 -157c151.333 0 273.666 55.333 366.999 166c14.667 17.333 28 35.666 40 54.999c16 26 29.5 62.333 40.5 109s16.5 91 16.5 133v18v0h-461v168
h644v-778h-124l-48 185v0l-11 -13c-120.667 -142 -279.334 -213 -476.001 -213zM796.001 1617c-94 0 -168.332 24.3311 -222.999 72.998s-85.667 117.334 -93 206.001h97c14 -55.333 39.167 -96.666 75.5 -123.999s84.166 -41 143.499 -41c64.667 0 113.5 12.333 146.5 37
s57.167 67.334 72.5 128.001h97c-7.33301 -88.667 -38.333 -157.334 -93 -206.001s-129 -73 -223 -73z" />
    <glyph glyph-name="gbreve" unicode="&#x11f;" 
d="M525 -303c103.333 0 182 32.5 236 97.5s81 159.833 81 284.5v35l-1 -1c-74 -94.667 -170.667 -142 -290 -142c-143.333 0 -257.333 53.5 -342 160.5s-127 251.5 -127 433.5c0 160.667 41.667 290.334 125 389.001s192.333 148 327 148
c128.667 0 230.667 -55.667 306 -167l13 -19v0v154v0h169v-991c-0.666992 -180.667 -41.334 -314.334 -122.001 -401.001s-204.667 -130 -372 -130c-121.333 0 -217.666 28 -288.999 84s-114.333 137.333 -129 244v0h184v0c10.667 -57.333 36.167 -101.5 76.5 -132.5
s91.833 -46.5 154.5 -46.5zM560 938c-100.667 0 -174.167 -31.999 -220.5 -95.999s-69.5 -165.667 -69.5 -305c0 -131.333 25.167 -232.5 75.5 -303.5s121.833 -106.5 214.5 -106.5c87.333 0 157.666 32.667 210.999 98s80 151.666 80 258.999
c0 151.333 -24.167 264.833 -72.5 340.5s-121.166 113.5 -218.499 113.5zM534 1217c-94 0 -168.332 24.3311 -222.999 72.998s-85.667 117.334 -93 206.001h97c14 -55.333 39.167 -96.666 75.5 -123.999s84.166 -41 143.499 -41c64.667 0 113.5 12.333 146.5 37
s57.167 67.334 72.5 128.001h97c-7.33301 -88.667 -38.333 -157.334 -93 -206.001s-129 -73 -223 -73z" />
    <glyph glyph-name="Gcommaaccent" unicode="&#x122;" horiz-adv-x="1593" 
d="M782 -40c-204 0 -368.999 71.1689 -494.999 213.502s-189 329.166 -189 560.499c0 232 64.333 419.333 193 562s297 214 505 214c160.667 0 298.834 -45 414.501 -135s183.5 -205.333 203.5 -346v0h-192v0c-18.667 97.333 -66 172.5 -142 225.5s-174.667 79.5 -296 79.5
c-143.333 0 -259.333 -55.5 -348 -166.5s-133 -256.5 -133 -436.5c0 -191.333 42.833 -339.333 128.5 -444s206.5 -157 362.5 -157c151.333 0 273.666 55.333 366.999 166c14.667 17.333 28 35.666 40 54.999c16 26 29.5 62.333 40.5 109s16.5 91 16.5 133v18v0h-461v168
h644v-778h-124l-48 185v0l-11 -13c-120.667 -142 -279.334 -213 -476.001 -213zM689.001 -242.998l-0.000976562 99h94h94v-165c0 -107.333 -12.5 -180.5 -37.5 -219.5s-78.167 -68.167 -159.5 -87.5v0v84v0c38.667 6.66699 65.334 28 80.001 64
c11.333 27.333 18 69.333 20 126v0h-91v99z" />
    <glyph glyph-name="gcommaaccent" unicode="&#x123;" 
d="M525 -303c103.333 0 182 32.5 236 97.5s81 159.833 81 284.5v35l-1 -1c-74 -94.667 -170.667 -142 -290 -142c-143.333 0 -257.333 53.5 -342 160.5s-127 251.5 -127 433.5c0 160.667 41.667 290.334 125 389.001s192.333 148 327 148
c128.667 0 230.667 -55.667 306 -167l13 -19v0v154v0h169v-991c-0.666992 -180.667 -41.334 -314.334 -122.001 -401.001s-204.667 -130 -372 -130c-121.333 0 -217.666 28 -288.999 84s-114.333 137.333 -129 244v0h184v0c10.667 -57.333 36.167 -101.5 76.5 -132.5
s91.833 -46.5 154.5 -46.5zM560 938c-100.667 0 -174.167 -31.999 -220.5 -95.999s-69.5 -165.667 -69.5 -305c0 -131.333 25.167 -232.5 75.5 -303.5s121.833 -106.5 214.5 -106.5c87.333 0 157.666 32.667 210.999 98s80 151.666 80 258.999
c0 151.333 -24.167 264.833 -72.5 340.5s-121.166 113.5 -218.499 113.5zM623 1313l0.000976562 -99h-94h-94v165c0 107.333 12.5 180.5 37.5 219.5s78.167 68.167 159.5 87.5v0v-84v0c-38.667 -6.66699 -65.334 -28 -80.001 -64c-11.333 -27.333 -18 -69.333 -20 -126v0h91
v-99z" />
    <glyph glyph-name="Imacron" unicode="&#x12a;" horiz-adv-x="569" 
d="M189 0v1470v0h99h100v0v-1470v0h-99h-100v0zM-24 1739h624v-125h-624v125z" />
    <glyph glyph-name="imacron" unicode="&#x12b;" horiz-adv-x="569" 
d="M186 0v1070v0h90h90v0v-1070v0h-90h-90v0zM-36 1339h624v-125h-624v125z" />
    <glyph glyph-name="Iogonek" unicode="&#x12e;" horiz-adv-x="569" 
d="M192 0v1470v0h99h100v0v-1470v0h-99h-100v0zM21 -271c0 64 20.668 120.999 62.001 170.999s96 83.667 164 101h136v-8c-71.333 -36.667 -123.333 -74.167 -156 -112.5s-49 -83.5 -49 -135.5c0 -37.333 9.33301 -64.833 28 -82.5s47.667 -26.5 87 -26.5
c22 0 44.5 2.83301 67.5 8.5s44.167 13.5 63.5 23.5l35 -82c-25.333 -14 -56 -25.167 -92 -33.5s-70.667 -12.5 -104 -12.5c-72.667 0 -131.334 17.333 -176.001 52c-44 34.667 -66 80.334 -66 137.001z" />
    <glyph glyph-name="iogonek" unicode="&#x12f;" horiz-adv-x="569" 
d="M206 0v1070v0h90h90v0v-1070v0h-90h-90v0zM204 1470h184v-204h-184v204zM11 -271c0 64 20.668 120.999 62.001 170.999s96 83.667 164 101h136v-8c-71.333 -36.667 -123.333 -74.167 -156 -112.5s-49 -83.5 -49 -135.5c0 -37.333 9.33301 -64.833 28 -82.5
s47.667 -26.5 87 -26.5c22 0 44.5 2.83301 67.5 8.5s44.167 13.5 63.5 23.5l35 -82c-25.333 -14 -56 -25.167 -92 -33.5s-70.667 -12.5 -104 -12.5c-72.667 0 -131.334 17.333 -176.001 52c-44 34.667 -66 80.334 -66 137.001z" />
    <glyph glyph-name="Idotaccent" unicode="&#x130;" horiz-adv-x="569" 
d="M186 0v1470v0h99h100v0v-1470v0h-99h-100v0zM192 1846h186v-209h-186v209z" />
    <glyph glyph-name="dotlessi" unicode="&#x131;" horiz-adv-x="569" 
d="M195 0v1070v0h90h90v0v-1070v0h-90h-90v0z" />
    <glyph glyph-name="Kcommaaccent" unicode="&#x136;" horiz-adv-x="1366" 
d="M156 0v1470v0h99h100v0v-714v0l716 714v0h137h138v0l-623 -601v0l635 -869v0h-129h-130v0l-522 727v0l-222 -214v0v-513v0h-99h-100v0zM634 -243l-0.000976562 99h94h94v-165c0 -107.333 -12.5 -180.5 -37.5 -219.5s-78.167 -68.167 -159.5 -87.5v0v84v0
c38.667 6.66699 65.334 28 80.001 64c11.333 27.333 18 69.333 20 126v0h-91v99z" />
    <glyph glyph-name="kcommaaccent" unicode="&#x137;" horiz-adv-x="1024" 
d="M137 0v1470v0h90h90v0v-847v0l452 447v0h114h115v0l-407 -397v0l434 -673v0h-117h-118v0l-332 544v0l-141 -138v0v-406v0h-90h-90v0zM460 -243l-0.000976562 99h94h94v-165c0 -107.333 -12.5 -180.5 -37.5 -219.5s-78.167 -68.167 -159.5 -87.5v0v84v0
c38.667 6.66699 65.334 28 80.001 64c11.333 27.333 18 69.333 20 126v0h-91v99z" />
    <glyph glyph-name="Lacute" unicode="&#x139;" 
d="M156 0v1470v0h99h100v0v-1294v0h745v0v-88v-88v0h-944zM158 1614l182 288h221l-264 -288h-139z" />
    <glyph glyph-name="lacute" unicode="&#x13a;" horiz-adv-x="455" 
d="M144 0v1470v0h90h90v0v-1470v0h-90h-90v0zM137 1614l182 288h221l-264 -288h-139z" />
    <glyph glyph-name="Lcommaaccent" unicode="&#x13b;" 
d="M156 0v1470v0h99h100v0v-1294v0h745v0v-88v-88v0h-944zM535 -243l-0.000976562 99h94h94v-165c0 -107.333 -12.5 -180.5 -37.5 -219.5s-78.167 -68.167 -159.5 -87.5v0v84v0c38.667 6.66699 65.334 28 80.001 64c11.333 27.333 18 69.333 20 126v0h-91v99z" />
    <glyph glyph-name="lcommaaccent" unicode="&#x13c;" horiz-adv-x="455" 
d="M149 0v1470v0h90h90v0v-1470v0h-90h-90v0zM146 -243l-0.000976562 99h94h94v-165c0 -107.333 -12.5 -180.5 -37.5 -219.5s-78.167 -68.167 -159.5 -87.5v0v84v0c38.667 6.66699 65.334 28 80.001 64c11.333 27.333 18 69.333 20 126v0h-91v99z" />
    <glyph glyph-name="Lcaron" unicode="&#x13d;" 
d="M156 0v1470v0h99h100v0v-1294v0h745v0v-88v-88v0h-944zM643 1371l-0.000976562 99h94h94v-165c0 -107.333 -12.5 -180.5 -37.5 -219.5s-78.167 -68.167 -159.5 -87.5v0v84v0c38.667 6.66699 65.334 28 80.001 64c11.333 27.333 18 69.333 20 126v0h-91v99z" />
    <glyph glyph-name="lcaron" unicode="&#x13e;" horiz-adv-x="682" 
d="M205 0v1470v0h90h90v0v-1470v0h-90h-90v0zM482 1371l-0.000976562 99h94h94v-165c0 -107.333 -12.5 -180.5 -37.5 -219.5s-78.167 -68.167 -159.5 -87.5v0v84v0c38.667 6.66699 65.334 28 80.001 64c11.333 27.333 18 69.333 20 126v0h-91v99z" />
    <glyph glyph-name="Lslash" unicode="&#x141;" 
d="M193 0v702l-193 -107v118l193 107v650v0h99h100v0v-540l243 134v-118l-243 -134v-636v0h745v0v-88v-88v0h-944z" />
    <glyph glyph-name="lslash" unicode="&#x142;" horiz-adv-x="455" 
d="M139 0v693l-176 -99v117l176 99v660v0h90h90v0v-560l176 99v-117l-176 -99v-793v0h-90h-90v0z" />
    <glyph glyph-name="Nacute" unicode="&#x143;" horiz-adv-x="1479" 
d="M348 0h-96h-96v0v1470v0h119h120v0l736 -1195v0v0v1195v0h96h96v0v-1470h-109h-109l-757 1199v0v0v-1199zM642 1614l182 288h221l-264 -288h-139z" />
    <glyph glyph-name="nacute" unicode="&#x144;" 
d="M133 0v1070v0h85h86v0v-158v0v0l40 53c78 91.333 175.667 137 293 137c118 0 209 -32 273 -96s96 -155 96 -273v-733v0h-90h-90v0v672c0 94 -18.167 161.833 -54.5 203.5s-95.166 62.5 -176.499 62.5c-86.667 0 -155.334 -32.833 -206.001 -98.5s-76 -154.5 -76 -266.5v0
v-573v0h-90h-90v0zM481 1214l182 288h221l-264 -288h-139z" />
    <glyph glyph-name="Ncommaaccent" unicode="&#x145;" horiz-adv-x="1479" 
d="M348 0h-96h-96v0v1470v0h119h120v0l736 -1195v0v0v1195v0h96h96v0v-1470h-109h-109l-757 1199v0v0v-1199zM646 -243l-0.000976562 99h94h94v-165c0 -107.333 -12.5 -180.5 -37.5 -219.5s-78.167 -68.167 -159.5 -87.5v0v84v0c38.667 6.66699 65.334 28 80.001 64
c11.333 27.333 18 69.333 20 126v0h-91v99z" />
    <glyph glyph-name="ncommaaccent" unicode="&#x146;" 
d="M133 0v1070v0h85h86v0v-158v0v0l40 53c78 91.333 175.667 137 293 137c118 0 209 -32 273 -96s96 -155 96 -273v-733v0h-90h-90v0v672c0 94 -18.167 161.833 -54.5 203.5s-95.166 62.5 -176.499 62.5c-86.667 0 -155.334 -32.833 -206.001 -98.5s-76 -154.5 -76 -266.5v0
v-573v0h-90h-90v0zM476 -243l-0.000976562 99h94h94v-165c0 -107.333 -12.5 -180.5 -37.5 -219.5s-78.167 -68.167 -159.5 -87.5v0v84v0c38.667 6.66699 65.334 28 80.001 64c11.333 27.333 18 69.333 20 126v0h-91v99z" />
    <glyph glyph-name="Ncaron" unicode="&#x147;" horiz-adv-x="1479" 
d="M348 0h-96h-96v0v1470v0h119h120v0l736 -1195v0v0v1195v0h96h96v0v-1470h-109h-109l-757 1199v0v0v-1199zM649 1614l-203 288h163l135 -192v0l135 192h163l-203 -288h-95h-95z" />
    <glyph glyph-name="ncaron" unicode="&#x148;" 
d="M133 0v1070v0h85h86v0v-158v0v0l40 53c78 91.333 175.667 137 293 137c118 0 209 -32 273 -96s96 -155 96 -273v-733v0h-90h-90v0v672c0 94 -18.167 161.833 -54.5 203.5s-95.166 62.5 -176.499 62.5c-86.667 0 -155.334 -32.833 -206.001 -98.5s-76 -154.5 -76 -266.5v0
v-573v0h-90h-90v0zM491 1214l-203 288h163l135 -192v0l135 192h163l-203 -288h-95h-95z" />
    <glyph glyph-name="Omacron" unicode="&#x14c;" horiz-adv-x="1593" 
d="M796 -40c-213.333 0 -386 71.167 -518 213.5s-198 329.166 -198 560.499c0 232 66 419.333 198 562s304.667 214 518 214c214.667 0 387.834 -71.333 519.501 -214s197.5 -330 197.5 -562c0 -231.333 -65.833 -418.166 -197.5 -560.499s-304.834 -213.5 -519.501 -213.5
v0zM796 136c153.333 0 277 55 371 165s141 254.333 141 433c0 179.333 -47 324.166 -141 434.499s-217.667 165.5 -371 165.5c-152.667 0 -276 -55.167 -370 -165.5s-141 -255.166 -141 -434.499c0 -178.667 47 -323 141 -433s217.333 -165 370 -165v0zM484 1739h624v-125
h-624v125z" />
    <glyph glyph-name="omacron" unicode="&#x14d;" 
d="M569 -29c-148 0 -267.833 52 -359.5 156s-137.5 240.333 -137.5 409c0 169.333 45.833 306 137.5 410s211.5 156 359.5 156c149.333 0 269.666 -52 360.999 -156s137 -240.667 137 -410c0 -168.667 -45.667 -305 -137 -409s-211.666 -156 -360.999 -156v0zM569 126
c94.667 0 170 37 226 111s84 173.667 84 299s-28 225.166 -84 299.499s-131.333 111.5 -226 111.5s-169.834 -37.167 -225.501 -111.5s-83.5 -174.166 -83.5 -299.499s27.833 -225 83.5 -299s130.834 -111 225.501 -111v0zM257 1339h624v-125h-624v125z" />
    <glyph glyph-name="Ohungarumlaut" unicode="&#x150;" horiz-adv-x="1593" 
d="M796 -40c-213.333 0 -386 71.167 -518 213.5s-198 329.166 -198 560.499c0 232 66 419.333 198 562s304.667 214 518 214c214.667 0 387.834 -71.333 519.501 -214s197.5 -330 197.5 -562c0 -231.333 -65.833 -418.166 -197.5 -560.499s-304.834 -213.5 -519.501 -213.5
v0zM796 136c153.333 0 277 55 371 165s141 254.333 141 433c0 179.333 -47 324.166 -141 434.499s-217.667 165.5 -371 165.5c-152.667 0 -276 -55.167 -370 -165.5s-141 -255.166 -141 -434.499c0 -178.667 47 -323 141 -433s217.333 -165 370 -165v0zM518 1617l182 288
h221l-264 -288h-139zM885 1617l182 288h221l-264 -288h-139z" />
    <glyph glyph-name="ohungarumlaut" unicode="&#x151;" 
d="M569 -29c-148 0 -267.833 52 -359.5 156s-137.5 240.333 -137.5 409c0 169.333 45.833 306 137.5 410s211.5 156 359.5 156c149.333 0 269.666 -52 360.999 -156s137 -240.667 137 -410c0 -168.667 -45.667 -305 -137 -409s-211.666 -156 -360.999 -156v0zM569 126
c94.667 0 170 37 226 111s84 173.667 84 299s-28 225.166 -84 299.499s-131.333 111.5 -226 111.5s-169.834 -37.167 -225.501 -111.5s-83.5 -174.166 -83.5 -299.499s27.833 -225 83.5 -299s130.834 -111 225.501 -111v0zM283 1214l182 288h221l-264 -288h-139zM650 1214
l182 288h221l-264 -288h-139z" />
    <glyph glyph-name="OE" unicode="&#x152;" horiz-adv-x="2048" 
d="M693 1509c160.667 0.666992 284.333 -53.667 371 -163v0v124h189v0h704v0v-88v-88v0h-704v0v-449v0h686v-88v-88v0h-686v0v-493v0h723v0v-88v-88v0h-723v0h-189v131v0c-92 -111.333 -223.333 -167 -394 -167c-182 0 -326.833 69.667 -434.5 209s-161.5 327 -161.5 563
s56 424 168 564c112 139.333 262.333 209 451 209zM708.999 1341c-136.667 0 -242.5 -55.8311 -317.5 -167.498s-112.5 -269.5 -112.5 -473.5c0 -181.333 37.5 -321.333 112.5 -420s180.833 -148 317.5 -148c122.667 0 222.667 47.667 300 143
c15.333 19.333 28.333 46.666 39 81.999c10.667 34.667 16 67.667 16 99v553c0 32 -4.83301 65.667 -14.5 101s-21.5 62.666 -35.5 81.999c-73.333 99.333 -175 149 -305 149z" />
    <glyph glyph-name="oe" unicode="&#x153;" horiz-adv-x="1933" 
d="M566 1102c148 0 267.333 -51.999 358 -155.999c16.667 -18.667 31.334 -38.334 44.001 -59.001v0c13.333 20 27.333 38.667 42 56c91.333 106 214.333 159 369 159c140 0 253 -52 339 -156s129 -240.667 129 -410l-2 -64v0h-782v0
c7.33301 -106.667 31.666 -188 72.999 -244c50.667 -68 130.667 -102 240 -102c68.667 0 128.667 19.333 180 58s82.666 88 93.999 148v0h178v0c-26.667 -117.333 -80 -206.833 -160 -268.5s-183 -92.5 -309 -92.5c-151.333 0 -270.333 48 -357 144
c-15.333 17.333 -29.666 36 -42.999 56v0l-35 -44c-90.667 -104 -210 -156 -358 -156c-147.333 0 -266.5 52 -357.5 156s-136.5 240.333 -136.5 409c0 169.333 45.667 306 137 410c90.667 104 209.667 156 357 156zM566 947.001
c-93.333 0 -167.666 -37.168 -222.999 -111.501s-83 -174.166 -83 -299.499s27.667 -225 83 -299s129.666 -111 222.999 -111s167.666 37 222.999 111s83 173.667 83 299s-27.667 225.333 -83 300c-55.333 74 -129.666 111 -222.999 111zM1659 617
c-5.33301 99.333 -29.999 176.667 -73.999 232c-48.667 61.333 -120 92 -214 92c-94.667 0 -170.334 -35.333 -227.001 -106c-44.667 -55.333 -71.667 -128 -81 -218v0h596z" />
    <glyph glyph-name="Racute" unicode="&#x154;" horiz-adv-x="1479" 
d="M180 0v1470v0h99v0h585c156 0 274.667 -33.833 356 -101.5s122 -166.834 122 -297.501c0 -128.667 -42.333 -229.334 -127 -302.001c-21.333 -18 -44.333 -34 -69 -48v0l33 -16c89.333 -51.333 135.666 -137.666 138.999 -258.999l8 -268c1.33301 -44 7 -75.667 17 -95
s29.333 -36 58 -50v-32h-245c-5.33301 12 -10.666 43.333 -15.999 94s-9.33301 107 -12 169l-4 116c-2.66699 91.333 -25 156.5 -67 195.5s-110.667 58.5 -206 58.5h-472v0v-634v0h-99h-100v0zM379 806.001l492 0.000976562c92 0 159.333 20.167 202 60.5
s64 104.166 64 191.499c0 84.667 -22.5 146.667 -67.5 186s-116.167 59 -213.5 59h-477v0v-497zM606 1614l182 288h221l-264 -288h-139z" />
    <glyph glyph-name="racute" unicode="&#x155;" horiz-adv-x="682" 
d="M158 0l0.000976562 1070v0h85h86v0v-183v0v0c15.333 28.667 31.666 54.667 48.999 78c68 91.333 151.667 137 251 137c16.667 0 33.667 -3 51 -9v-184l-37 1c-97.333 0 -172.5 -29.167 -225.5 -87.5s-79.5 -141.5 -79.5 -249.5v0v-573v0h-90h-90v0zM331.001 1214l182 288
h221l-264 -288h-139z" />
    <glyph glyph-name="Rcommaaccent" unicode="&#x156;" horiz-adv-x="1479" 
d="M180 0v1470v0h99v0h585c156 0 274.667 -33.833 356 -101.5s122 -166.834 122 -297.501c0 -128.667 -42.333 -229.334 -127 -302.001c-21.333 -18 -44.333 -34 -69 -48v0l33 -16c89.333 -51.333 135.666 -137.666 138.999 -258.999l8 -268c1.33301 -44 7 -75.667 17 -95
s29.333 -36 58 -50v-32h-245c-5.33301 12 -10.666 43.333 -15.999 94s-9.33301 107 -12 169l-4 116c-2.66699 91.333 -25 156.5 -67 195.5s-110.667 58.5 -206 58.5h-472v0v-634v0h-99h-100v0zM379 806.001l492 0.000976562c92 0 159.333 20.167 202 60.5
s64 104.166 64 191.499c0 84.667 -22.5 146.667 -67.5 186s-116.167 59 -213.5 59h-477v0v-497zM664 -242.998l-0.000976562 99h94h94v-165c0 -107.333 -12.5 -180.5 -37.5 -219.5s-78.167 -68.167 -159.5 -87.5v0v84v0c38.667 6.66699 65.334 28 80.001 64
c11.333 27.333 18 69.333 20 126v0h-91v99z" />
    <glyph glyph-name="rcommaaccent" unicode="&#x157;" horiz-adv-x="682" 
d="M170 0l0.000976562 1070v0h85h86v0v-183v0v0c15.333 28.667 31.666 54.667 48.999 78c68 91.333 151.667 137 251 137c16.667 0 33.667 -3 51 -9v-184l-37 1c-97.333 0 -172.5 -29.167 -225.5 -87.5s-79.5 -141.5 -79.5 -249.5v0v-573v0h-90h-90v0zM167.001 -243
l-0.000976562 99h94h94v-165c0 -107.333 -12.5 -180.5 -37.5 -219.5s-78.167 -68.167 -159.5 -87.5v0v84v0c38.667 6.66699 65.334 28 80.001 64c11.333 27.333 18 69.333 20 126v0h-91v99z" />
    <glyph glyph-name="Rcaron" unicode="&#x158;" horiz-adv-x="1479" 
d="M180 0v1470v0h99v0h585c156 0 274.667 -33.833 356 -101.5s122 -166.834 122 -297.501c0 -128.667 -42.333 -229.334 -127 -302.001c-21.333 -18 -44.333 -34 -69 -48v0l33 -16c89.333 -51.333 135.666 -137.666 138.999 -258.999l8 -268c1.33301 -44 7 -75.667 17 -95
s29.333 -36 58 -50v-32h-245c-5.33301 12 -10.666 43.333 -15.999 94s-9.33301 107 -12 169l-4 116c-2.66699 91.333 -25 156.5 -67 195.5s-110.667 58.5 -206 58.5h-472v0v-634v0h-99h-100v0zM379 806.001l492 0.000976562c92 0 159.333 20.167 202 60.5
s64 104.166 64 191.499c0 84.667 -22.5 146.667 -67.5 186s-116.167 59 -213.5 59h-477v0v-497zM613 1614l-203 288h163l135 -192v0l135 192h163l-203 -288h-95h-95z" />
    <glyph glyph-name="rcaron" unicode="&#x159;" horiz-adv-x="682" 
d="M178 0l0.000976562 1070v0h85h86v0v-183v0v0c15.333 28.667 31.666 54.667 48.999 78c68 91.333 151.667 137 251 137c16.667 0 33.667 -3 51 -9v-184l-37 1c-97.333 0 -172.5 -29.167 -225.5 -87.5s-79.5 -141.5 -79.5 -249.5v0v-573v0h-90h-90v0zM361.001 1214
l-203 288h163l135 -192v0l135 192h163l-203 -288h-95h-95z" />
    <glyph glyph-name="Sacute" unicode="&#x15a;" horiz-adv-x="1366" 
d="M1052 1044c-8.66699 92.667 -45.1709 164.164 -109.504 214.497s-150.833 75.5 -259.5 75.5c-112 0 -197 -21.667 -255 -65s-87 -106.666 -87 -189.999c0 -56.667 19.333 -99 58 -127s116.334 -55.667 233.001 -83l256 -61c137.333 -32.667 235.333 -81 294 -145
c58.667 -63.333 88 -153 88 -269c0 -133.333 -50.5 -239 -151.5 -317s-237.833 -117 -410.5 -117c-192 0 -342 45 -450 135c-105.333 88.667 -158 210 -158 364v11v0h183v0c3.33301 -106.667 42 -189 116 -247s177 -87 309 -87c122 0 214.667 21 278 63s95 103.667 95 185
c0 70.667 -21 123 -63 157c-41.333 33.333 -124.666 65 -249.999 95l-256 61c-129.333 30.667 -221.666 73.334 -276.999 128.001s-83 130.334 -83 227.001c0 140.667 47.833 252.167 143.5 334.5s224.834 123.5 387.501 123.5c165.333 0 297 -41.333 395 -124
s150.333 -196.667 157 -342v0h-183zM585.996 1614l182 288h221l-264 -288h-139z" />
    <glyph glyph-name="sacute" unicode="&#x15b;" horiz-adv-x="1024" 
d="M746 760c-5.33301 59.333 -29.502 105.334 -72.502 138.001s-100.833 49 -173.5 49c-74.667 0 -131.5 -13 -170.5 -39s-58.5 -64 -58.5 -114c0 -38 13.667 -66.667 41 -86s81.666 -38.666 162.999 -57.999l186 -44c104 -25.333 178.333 -60.333 223 -105
c44 -44 66 -105.667 66 -185c0 -106 -38.167 -190 -114.5 -252s-179.5 -93 -309.5 -93c-150.667 0 -263 29.833 -337 89.5s-115 153.5 -123 281.5v0h173v0c8.66699 -76 35.5 -131 80.5 -165s113.833 -51 206.5 -51c80.667 0 141.834 15.333 183.501 46
s62.5 75.334 62.5 134.001c0 37.333 -13.667 65.666 -41 84.999s-82.333 38.666 -165 57.999l-186 44c-100.667 24 -172.334 57.667 -215.001 101c-42.667 42.667 -64 102.667 -64 180c0 100.667 35.833 180.5 107.5 239.5s168.834 88.5 291.501 88.5
c124.667 0 223.834 -30.333 297.501 -91s112.834 -144.334 117.501 -251.001v0h-169zM411.998 1214l182 288h221l-264 -288h-139z" />
    <glyph glyph-name="Scedilla" unicode="&#x15e;" horiz-adv-x="1366" 
d="M1052 1044c-8.66699 92.667 -45.1709 164.164 -109.504 214.497s-150.833 75.5 -259.5 75.5c-112 0 -197 -21.667 -255 -65s-87 -106.666 -87 -189.999c0 -56.667 19.333 -99 58 -127s116.334 -55.667 233.001 -83l256 -61c137.333 -32.667 235.333 -81 294 -145
c58.667 -63.333 88 -153 88 -269c0 -133.333 -50.5 -239 -151.5 -317s-237.833 -117 -410.5 -117c-192 0 -342 45 -450 135c-105.333 88.667 -158 210 -158 364v11v0h183v0c3.33301 -106.667 42 -189 116 -247s177 -87 309 -87c122 0 214.667 21 278 63s95 103.667 95 185
c0 70.667 -21 123 -63 157c-41.333 33.333 -124.666 65 -249.999 95l-256 61c-129.333 30.667 -221.666 73.334 -276.999 128.001s-83 130.334 -83 227.001c0 140.667 47.833 252.167 143.5 334.5s224.834 123.5 387.501 123.5c165.333 0 297 -41.333 395 -124
s150.333 -196.667 157 -342v0h-183zM738.996 1.99707l-92.998 -128v0l60 7c54 0 96.333 -13.667 127 -41s46 -65 46 -113c0 -56 -22.167 -101.333 -66.5 -136s-102.5 -52 -174.5 -52c-24 0 -54.167 4 -90.5 12s-71.833 18.667 -106.5 32l34 82
c24 -8.66699 48.333 -15.667 73 -21s45 -8 61 -8c39.333 0 68.333 7 87 21s28 35.667 28 65c0 22.667 -9.33301 41.667 -28 57s-42.334 23 -71.001 23c-7.33301 0 -18.333 -1.5 -33 -4.5s-30.334 -7.16699 -47.001 -12.5l-34 38l131 179h97z" />
    <glyph glyph-name="scedilla" unicode="&#x15f;" horiz-adv-x="1024" 
d="M746 760c-5.33301 59.333 -29.502 105.334 -72.502 138.001s-100.833 49 -173.5 49c-74.667 0 -131.5 -13 -170.5 -39s-58.5 -64 -58.5 -114c0 -38 13.667 -66.667 41 -86s81.666 -38.666 162.999 -57.999l186 -44c104 -25.333 178.333 -60.333 223 -105
c44 -44 66 -105.667 66 -185c0 -106 -38.167 -190 -114.5 -252s-179.5 -93 -309.5 -93c-150.667 0 -263 29.833 -337 89.5s-115 153.5 -123 281.5v0h173v0c8.66699 -76 35.5 -131 80.5 -165s113.833 -51 206.5 -51c80.667 0 141.834 15.333 183.501 46
s62.5 75.334 62.5 134.001c0 37.333 -13.667 65.666 -41 84.999s-82.333 38.666 -165 57.999l-186 44c-100.667 24 -172.334 57.667 -215.001 101c-42.667 42.667 -64 102.667 -64 180c0 100.667 35.833 180.5 107.5 239.5s168.834 88.5 291.501 88.5
c124.667 0 223.834 -30.333 297.501 -91s112.834 -144.334 117.501 -251.001v0h-169zM556.998 2.00098l-92.998 -128v0l60 7c54 0 96.333 -13.667 127 -41s46 -65 46 -113c0 -56 -22.167 -101.333 -66.5 -136s-102.5 -52 -174.5 -52c-24 0 -54.167 4 -90.5 12
s-71.833 18.667 -106.5 32l34 82c24 -8.66699 48.333 -15.667 73 -21s45 -8 61 -8c39.333 0 68.333 7 87 21s28 35.667 28 65c0 22.667 -9.33301 41.667 -28 57s-42.334 23 -71.001 23c-7.33301 0 -18.333 -1.5 -33 -4.5s-30.334 -7.16699 -47.001 -12.5l-34 38l131 179h97z
" />
    <glyph glyph-name="Scaron" unicode="&#x160;" horiz-adv-x="1366" 
d="M1052 1044c-8.66699 92.667 -45.1709 164.164 -109.504 214.497s-150.833 75.5 -259.5 75.5c-112 0 -197 -21.667 -255 -65s-87 -106.666 -87 -189.999c0 -56.667 19.333 -99 58 -127s116.334 -55.667 233.001 -83l256 -61c137.333 -32.667 235.333 -81 294 -145
c58.667 -63.333 88 -153 88 -269c0 -133.333 -50.5 -239 -151.5 -317s-237.833 -117 -410.5 -117c-192 0 -342 45 -450 135c-105.333 88.667 -158 210 -158 364v11v0h183v0c3.33301 -106.667 42 -189 116 -247s177 -87 309 -87c122 0 214.667 21 278 63s95 103.667 95 185
c0 70.667 -21 123 -63 157c-41.333 33.333 -124.666 65 -249.999 95l-256 61c-129.333 30.667 -221.666 73.334 -276.999 128.001s-83 130.334 -83 227.001c0 140.667 47.833 252.167 143.5 334.5s224.834 123.5 387.501 123.5c165.333 0 297 -41.333 395 -124
s150.333 -196.667 157 -342v0h-183zM592.996 1614l-203 288h163l135 -192v0l135 192h163l-203 -288h-95h-95z" />
    <glyph glyph-name="scaron" unicode="&#x161;" horiz-adv-x="1024" 
d="M746 760c-5.33301 59.333 -29.502 105.334 -72.502 138.001s-100.833 49 -173.5 49c-74.667 0 -131.5 -13 -170.5 -39s-58.5 -64 -58.5 -114c0 -38 13.667 -66.667 41 -86s81.666 -38.666 162.999 -57.999l186 -44c104 -25.333 178.333 -60.333 223 -105
c44 -44 66 -105.667 66 -185c0 -106 -38.167 -190 -114.5 -252s-179.5 -93 -309.5 -93c-150.667 0 -263 29.833 -337 89.5s-115 153.5 -123 281.5v0h173v0c8.66699 -76 35.5 -131 80.5 -165s113.833 -51 206.5 -51c80.667 0 141.834 15.333 183.501 46
s62.5 75.334 62.5 134.001c0 37.333 -13.667 65.666 -41 84.999s-82.333 38.666 -165 57.999l-186 44c-100.667 24 -172.334 57.667 -215.001 101c-42.667 42.667 -64 102.667 -64 180c0 100.667 35.833 180.5 107.5 239.5s168.834 88.5 291.501 88.5
c124.667 0 223.834 -30.333 297.501 -91s112.834 -144.334 117.501 -251.001v0h-169zM421.998 1214l-203 288h163l135 -192v0l135 192h163l-203 -288h-95h-95z" />
    <glyph glyph-name="Tcommaaccent" unicode="&#x162;" horiz-adv-x="1251" 
d="M526 0v1294v0h-497v0v88v88v0h1193v0v-88v-88v0h-497v0v-1294v0h-99h-100v0zM533 -241l-0.000976562 99h94h94v-165c0 -107.333 -12.5 -180.5 -37.5 -219.5s-78.167 -68.167 -159.5 -87.5v0v84v0c38.667 6.66699 65.334 28 80.001 64c11.333 27.333 18 69.333 20 126v0
h-91v99z" />
    <glyph glyph-name="tcommaaccent" unicode="&#x163;" horiz-adv-x="569" 
d="M526 1c-61.333 -9.33301 -106 -14.001 -134 -14.001c-78.667 0 -134.167 17.333 -166.5 52s-48.5 94.334 -48.5 179.001v705v0h-148v147h148v0v300h180v-300v0h169v-147h-169v0v-705c0 -24 9.5 -43 28.5 -57s44.5 -21 76.5 -21h64v-139zM276 -241.001l-0.000976562 99h94
h94v-165c0 -107.333 -12.5 -180.5 -37.5 -219.5s-78.167 -68.167 -159.5 -87.5v0v84v0c38.667 6.66699 65.334 28 80.001 64c11.333 27.333 18 69.333 20 126v0h-91v99z" />
    <glyph glyph-name="Tcaron" unicode="&#x164;" horiz-adv-x="1251" 
d="M526 0v1294v0h-497v0v88v88v0h1193v0v-88v-88v0h-497v0v-1294v0h-99h-100v0zM535 1614l-203 288h163l135 -192v0l135 192h163l-203 -288h-95h-95z" />
    <glyph glyph-name="tcaron" unicode="&#x165;" horiz-adv-x="768" 
d="M503 1c-61.333 -9.33301 -106 -14.001 -134 -14.001c-78.667 0 -134.167 17.333 -166.5 52s-48.5 94.334 -48.5 179.001v705v0h-148v147h148v0v300h180v-300v0h169v-147h-169v0v-705c0 -24 9.5 -43 28.5 -57s44.5 -21 76.5 -21h64v-139zM555 1373l-0.000976562 99h94h94
v-165c0 -107.333 -12.5 -180.5 -37.5 -219.5s-78.167 -68.167 -159.5 -87.5v0v84v0c38.667 6.66699 65.334 28 80.001 64c11.333 27.333 18 69.333 20 126v0h-91v99z" />
    <glyph glyph-name="Umacron" unicode="&#x16a;" horiz-adv-x="1479" 
d="M1319 539c0 -181.333 -50.999 -323.166 -152.999 -425.499s-243.667 -153.5 -425 -153.5c-188.667 0 -332.334 49.167 -431.001 147.5s-148 242.166 -148 431.499v931v0h99h100v0v-916c0 -136.667 32.333 -240.5 97 -311.5s159 -106.5 283 -106.5
s218.167 35.5 282.5 106.5s96.5 174.833 96.5 311.5v916v0h99h100v0v-931zM428.001 1739h624v-125h-624v125z" />
    <glyph glyph-name="umacron" unicode="&#x16b;" 
d="M319 1070l-0.000976562 -690.001c0 -90 17.333 -154.833 52 -194.5s91 -59.5 169 -59.5c86.667 0 155.334 33.5 206.001 100.5s76 157.833 76 272.5v0v571v0h90h90v0v-1070v0h-85h-86v0v163v0v0c-12 -19.333 -25.333 -37.666 -40 -54.999
c-76.667 -91.333 -172.667 -137 -288 -137c-121.333 0 -212.333 30.333 -273 91s-91 151.667 -91 273v735v0h90h90v0zM257.999 1339h624v-125h-624v125z" />
    <glyph glyph-name="Uring" unicode="&#x16e;" horiz-adv-x="1479" 
d="M1319 539c0 -181.333 -50.999 -323.166 -152.999 -425.499s-243.667 -153.5 -425 -153.5c-188.667 0 -332.334 49.167 -431.001 147.5s-148 242.166 -148 431.499v931v0h99h100v0v-916c0 -136.667 32.333 -240.5 97 -311.5s159 -106.5 283 -106.5
s218.167 35.5 282.5 106.5s96.5 174.833 96.5 311.5v916v0h99h100v0v-931zM729.001 1528c-52.667 0 -97.167 18.167 -133.5 54.5s-54.5 80.833 -54.5 133.5s18.167 97.167 54.5 133.5s80.833 54.5 133.5 54.5s97.167 -18.167 133.5 -54.5s54.5 -80.833 54.5 -133.5
s-18.167 -97.167 -54.5 -133.5s-80.833 -54.5 -133.5 -54.5v0zM729.001 1609c30 0 55.333 10.333 76 31s31 46 31 76s-10.333 55.333 -31 76s-46 31 -76 31s-55.333 -10.333 -76 -31s-31 -46 -31 -76s10.333 -55.333 31 -76s46 -31 76 -31v0z" />
    <glyph glyph-name="uring" unicode="&#x16f;" 
d="M319 1070l-0.000976562 -690.001c0 -90 17.333 -154.833 52 -194.5s91 -59.5 169 -59.5c86.667 0 155.334 33.5 206.001 100.5s76 157.833 76 272.5v0v571v0h90h90v0v-1070v0h-85h-86v0v163v0v0c-12 -19.333 -25.333 -37.666 -40 -54.999
c-76.667 -91.333 -172.667 -137 -288 -137c-121.333 0 -212.333 30.333 -273 91s-91 151.667 -91 273v735v0h90h90v0zM595.999 1172c-52.667 0 -97.167 18.167 -133.5 54.5s-54.5 80.833 -54.5 133.5s18.167 97.167 54.5 133.5s80.833 54.5 133.5 54.5
s97.167 -18.167 133.5 -54.5s54.5 -80.833 54.5 -133.5s-18.167 -97.167 -54.5 -133.5s-80.833 -54.5 -133.5 -54.5v0zM595.999 1253c30 0 55.333 10.333 76 31s31 46 31 76s-10.333 55.333 -31 76s-46 31 -76 31s-55.333 -10.333 -76 -31s-31 -46 -31 -76
s10.333 -55.333 31 -76s46 -31 76 -31v0z" />
    <glyph glyph-name="Uhungarumlaut" unicode="&#x170;" horiz-adv-x="1479" 
d="M1319 539c0 -181.333 -50.999 -323.166 -152.999 -425.499s-243.667 -153.5 -425 -153.5c-188.667 0 -332.334 49.167 -431.001 147.5s-148 242.166 -148 431.499v931v0h99h100v0v-916c0 -136.667 32.333 -240.5 97 -311.5s159 -106.5 283 -106.5
s218.167 35.5 282.5 106.5s96.5 174.833 96.5 311.5v916v0h99h100v0v-931zM462.001 1617l182 288h221l-264 -288h-139zM829.001 1617l182 288h221l-264 -288h-139z" />
    <glyph glyph-name="uhungarumlaut" unicode="&#x171;" 
d="M319 1070l-0.000976562 -690.001c0 -90 17.333 -154.833 52 -194.5s91 -59.5 169 -59.5c86.667 0 155.334 33.5 206.001 100.5s76 157.833 76 272.5v0v571v0h90h90v0v-1070v0h-85h-86v0v163v0v0c-12 -19.333 -25.333 -37.666 -40 -54.999
c-76.667 -91.333 -172.667 -137 -288 -137c-121.333 0 -212.333 30.333 -273 91s-91 151.667 -91 273v735v0h90h90v0zM283.999 1214l182 288h221l-264 -288h-139zM650.999 1214l182 288h221l-264 -288h-139z" />
    <glyph glyph-name="Uogonek" unicode="&#x172;" horiz-adv-x="1479" 
d="M1319 539c0 -181.333 -50.999 -323.166 -152.999 -425.499s-243.667 -153.5 -425 -153.5c-188.667 0 -332.334 49.167 -431.001 147.5s-148 242.166 -148 431.499v931v0h99h100v0v-916c0 -136.667 32.333 -240.5 97 -311.5s159 -106.5 283 -106.5
s218.167 35.5 282.5 106.5s96.5 174.833 96.5 311.5v916v0h99h100v0v-931zM539.001 -271c0 64 20.668 120.999 62.001 170.999s96 83.667 164 101h136v-8c-71.333 -36.667 -123.333 -74.167 -156 -112.5s-49 -83.5 -49 -135.5c0 -37.333 9.33301 -64.833 28 -82.5
s47.667 -26.5 87 -26.5c22 0 44.5 2.83301 67.5 8.5s44.167 13.5 63.5 23.5l35 -82c-25.333 -14 -56 -25.167 -92 -33.5s-70.667 -12.5 -104 -12.5c-72.667 0 -131.334 17.333 -176.001 52c-44 34.667 -66 80.334 -66 137.001z" />
    <glyph glyph-name="uogonek" unicode="&#x173;" 
d="M319 1070l-0.000976562 -690.001c0 -90 17.333 -154.833 52 -194.5s91 -59.5 169 -59.5c86.667 0 155.334 33.5 206.001 100.5s76 157.833 76 272.5v0v571v0h90h90v0v-1070v0h-85h-86v0v163v0v0c-12 -19.333 -25.333 -37.666 -40 -54.999
c-76.667 -91.333 -172.667 -137 -288 -137c-121.333 0 -212.333 30.333 -273 91s-91 151.667 -91 273v735v0h90h90v0zM631.999 -271.001c0 64 20.668 120.999 62.001 170.999s96 83.667 164 101h136v-8c-71.333 -36.667 -123.333 -74.167 -156 -112.5s-49 -83.5 -49 -135.5
c0 -37.333 9.33301 -64.833 28 -82.5s47.667 -26.5 87 -26.5c22 0 44.5 2.83301 67.5 8.5s44.167 13.5 63.5 23.5l35 -82c-25.333 -14 -56 -25.167 -92 -33.5s-70.667 -12.5 -104 -12.5c-72.667 0 -131.334 17.333 -176.001 52c-44 34.667 -66 80.334 -66 137.001z" />
    <glyph glyph-name="Ydieresis" unicode="&#x178;" horiz-adv-x="1366" 
d="M584 588l-555 882v0h116h117v0l422 -713v0l423 713v0h115h115v0l-554 -885v0v-585h-99h-100v588zM424 1847h186v-210h-186v210zM756 1847h186v-210h-186v210z" />
    <glyph glyph-name="Zacute" unicode="&#x179;" horiz-adv-x="1251" 
d="M47 173l907 1121v0h-836v0v88v88v0h1085v-86v-87l-907 -1121v0h906v0v-88v-88v0h-1155v86v87zM563 1614l182 288h221l-264 -288h-139z" />
    <glyph glyph-name="zacute" unicode="&#x17a;" horiz-adv-x="1024" 
d="M63 141l642 779v0h-594v0v75v75v0h835v-70v-71l-642 -779v0h657v0v-75v-75v0h-898v70v71zM440 1214l182 288h221l-264 -288h-139z" />
    <glyph glyph-name="Zdotaccent" unicode="&#x17b;" horiz-adv-x="1251" 
d="M47 173l907 1121v0h-836v0v88v88v0h1085v-86v-87l-907 -1121v0h906v0v-88v-88v0h-1155v86v87zM567 1846h186v-209h-186v209z" />
    <glyph glyph-name="zdotaccent" unicode="&#x17c;" horiz-adv-x="1024" 
d="M63 141l642 779v0h-594v0v75v75v0h835v-70v-71l-642 -779v0h657v0v-75v-75v0h-898v70v71zM435 1446h186v-209h-186v209z" />
    <glyph glyph-name="Zcaron" unicode="&#x17d;" horiz-adv-x="1251" 
d="M47 173l907 1121v0h-836v0v88v88v0h1085v-86v-87l-907 -1121v0h906v0v-88v-88v0h-1155v86v87zM570 1614l-203 288h163l135 -192v0l135 192h163l-203 -288h-95h-95z" />
    <glyph glyph-name="zcaron" unicode="&#x17e;" horiz-adv-x="1024" 
d="M63 141l642 779v0h-594v0v75v75v0h835v-70v-71l-642 -779v0h657v0v-75v-75v0h-898v70v71zM450 1214l-203 288h163l135 -192v0l135 192h163l-203 -288h-95h-95z" />
    <glyph glyph-name="florin" unicode="&#x192;" 
d="M638 802l-114.001 -657.001c-32 -188 -80.833 -329.167 -146.5 -423.5s-146.834 -141.5 -243.501 -141.5c-60.667 0 -112.667 10.667 -156 32l28 160l7 -5c24.667 -16.667 65.334 -25 122.001 -25c54 0 96.5 32.833 127.5 98.5s61.833 189.5 92.5 371.5l103 590v0h-226
l1 140h250v0l26 150c24 138.667 66.167 242.834 126.5 312.501s138.5 104.5 234.5 104.5c60.667 0 112.334 -10.667 155.001 -32l-28 -164c-1.33301 4 -4.33301 7 -9 9c-24 16.667 -63.667 25 -119 25c-52 0 -91.5 -22.5 -118.5 -67.5s-51.5 -129.833 -73.5 -254.5l-14 -83
v0h242l-1 -140h-266z" />
    <glyph glyph-name="circumflex" unicode="&#x2c6;" horiz-adv-x="682" 
d="M436 1502l203 -288h-163l-135 192v0l-135 -192h-163l203 288h95h95z" />
    <glyph glyph-name="caron" unicode="&#x2c7;" horiz-adv-x="682" 
d="M246 1214l-203 288h163l135 -192v0l135 192h163l-203 -288h-95h-95z" />
    <glyph glyph-name="uni02C9" unicode="&#x2c9;" horiz-adv-x="682" 
d="M29 1339h624v-125h-624v125z" />
    <glyph glyph-name="breve" unicode="&#x2d8;" horiz-adv-x="682" 
d="M362 1217c-94 0 -168.332 24.3311 -222.999 72.998s-85.667 117.334 -93 206.001h97c14 -55.333 39.167 -96.666 75.5 -123.999s84.166 -41 143.499 -41c64.667 0 113.5 12.333 146.5 37s57.167 67.334 72.5 128.001h97c-7.33301 -88.667 -38.333 -157.334 -93 -206.001
s-129 -73 -223 -73z" />
    <glyph glyph-name="dotaccent" unicode="&#x2d9;" horiz-adv-x="682" 
d="M229 1446h186v-209h-186v209z" />
    <glyph glyph-name="ring" unicode="&#x2da;" horiz-adv-x="682" 
d="M342 1172c-52.667 0 -97.167 18.167 -133.5 54.5s-54.5 80.833 -54.5 133.5s18.167 97.167 54.5 133.5s80.833 54.5 133.5 54.5s97.167 -18.167 133.5 -54.5s54.5 -80.833 54.5 -133.5s-18.167 -97.167 -54.5 -133.5s-80.833 -54.5 -133.5 -54.5v0zM342 1253
c30 0 55.333 10.333 76 31s31 46 31 76s-10.333 55.333 -31 76s-46 31 -76 31s-55.333 -10.333 -76 -31s-31 -46 -31 -76s10.333 -55.333 31 -76s46 -31 76 -31v0z" />
    <glyph glyph-name="ogonek" unicode="&#x2db;" horiz-adv-x="682" 
d="M104 -271c0 64 20.668 120.999 62.001 170.999s96 83.667 164 101h136v-8c-71.333 -36.667 -123.333 -74.167 -156 -112.5s-49 -83.5 -49 -135.5c0 -37.333 9.33301 -64.833 28 -82.5s47.667 -26.5 87 -26.5c22 0 44.5 2.83301 67.5 8.5s44.167 13.5 63.5 23.5l35 -82
c-25.333 -14 -56 -25.167 -92 -33.5s-70.667 -12.5 -104 -12.5c-72.667 0 -131.334 17.333 -176.001 52c-44 34.667 -66 80.334 -66 137.001z" />
    <glyph glyph-name="tilde" unicode="&#x2dc;" horiz-adv-x="682" 
d="M-7 1239c15.333 80 39.002 137 71.002 171s78 51 138 51c19.333 0 45.666 -4.33301 78.999 -13s62.666 -19 87.999 -31c18 -8.66699 39.5 -16 64.5 -22s46.5 -9 64.5 -9c23.333 0 42.833 7.83301 58.5 23.5s26.834 38.167 33.501 67.5h99c-16.667 -80 -41 -137 -73 -171
s-77.333 -51 -136 -51c-14.667 0 -38.834 4.33301 -72.501 13s-65.167 19 -94.5 31c-22 8.66699 -45.5 16 -70.5 22s-44.5 9 -58.5 9c-23.333 0 -43 -7.83301 -59 -23.5s-27 -38.167 -33 -67.5h-99z" />
    <glyph glyph-name="hungarumlaut" unicode="&#x2dd;" horiz-adv-x="682" 
d="M58 1214l182 288h221l-264 -288h-139zM425 1214l182 288h221l-264 -288h-139z" />
    <glyph glyph-name="pi" unicode="&#x3c0;" horiz-adv-x="1246" 
d="M112 692c60.667 106.667 117.833 177.832 171.5 213.499s130.167 53.5 229.5 53.5l338 1c60 0 123.667 0.833008 191 2.5s116 3.83398 146 6.50098l-30 -164h-301c-21.333 -114 -31 -222.667 -29 -326s16.333 -214.666 43 -333.999c14.667 -66 17 -110.833 7 -134.5
s-36 -35.5 -78 -35.5c-42.667 0 -75.167 19.667 -97.5 59s-33.5 96.666 -33.5 171.999c0 63.333 7.66699 141 23 233s41.333 214 78 366h-148l-116 -652c-12 -70 -27 -117.167 -45 -141.5s-46.667 -36.5 -86 -36.5c-44 0 -69.5 15 -76.5 45s2.5 85 28.5 165l211 620h-94
c-50 0 -93.5 -10.5 -130.5 -31.5s-83.833 -61.5 -140.5 -121.5z" />
    <glyph glyph-name="endash" unicode="&#x2013;" 
d="M0 641h1138v-148h-1138v148z" />
    <glyph glyph-name="emdash" unicode="&#x2014;" horiz-adv-x="2048" 
d="M0 641h2048v-148h-2048v148z" />
    <glyph glyph-name="quoteleft" unicode="&#x2018;" horiz-adv-x="455" 
d="M346 1074l-0.000976562 -109.002h-107h-106v182c0 104 16.333 181.833 49 233.5s87.334 86.834 164.001 105.501v0v-94v0c-42 -7.33301 -71 -30.666 -87 -69.999c-12.667 -30.667 -20 -77 -22 -139h2h107v-109z" />
    <glyph glyph-name="quoteright" unicode="&#x2019;" horiz-adv-x="455" 
d="M109 1360l0.000976562 109.003h107h106v-182c0 -104 -16.333 -181.833 -49 -233.5s-87.334 -86.834 -164.001 -105.501v0v94v0c42 7.33301 71 30.666 87 69.999c12.667 31.333 20 77.666 22 138.999h-2h-107v109z" />
    <glyph glyph-name="quotesinglbase" unicode="&#x201a;" horiz-adv-x="455" 
d="M109 109l0.000976562 109.002h107h106v-182c0 -103.333 -16.333 -180.833 -49 -232.5s-87.334 -86.834 -164.001 -105.501v0v94v0c42 7.33301 71 30.666 87 69.999c12.667 30 20 76 22 138h-2h-107v109z" />
    <glyph glyph-name="quotedblleft" unicode="&#x201c;" horiz-adv-x="682" 
d="M291 1074l-0.000976562 -109.002h-107h-106v182c0 104 16.333 181.833 49 233.5s87.334 86.834 164.001 105.501v0v-94v0c-42 -7.33301 -71 -30.666 -87 -69.999c-12.667 -30.667 -20 -77 -22 -139h2h107v-109zM628.999 1074l-0.000976562 -109.002h-107h-106v182
c0 104 16.333 181.833 49 233.5s87.334 86.834 164.001 105.501v0v-94v0c-42 -7.33301 -71 -30.666 -87 -69.999c-12.667 -30.667 -20 -77 -22 -139h2h107v-109z" />
    <glyph glyph-name="quotedblright" unicode="&#x201d;" horiz-adv-x="682" 
d="M53 1360l0.000976562 109.003h107h106v-182c0 -104 -16.333 -181.833 -49 -233.5s-87.334 -86.834 -164.001 -105.501v0v94v0c42 7.33301 71 30.666 87 69.999c12.667 31.333 20 77.666 22 138.999h-2h-107v109zM391.001 1360l0.000976562 109.003h107h106v-182
c0 -104 -16.333 -181.833 -49 -233.5s-87.334 -86.834 -164.001 -105.501v0v94v0c42 7.33301 71 30.666 87 69.999c12.667 31.333 20 77.666 22 138.999h-2h-107v109z" />
    <glyph glyph-name="quotedblbase" unicode="&#x201e;" horiz-adv-x="682" 
d="M53 109l0.000976562 109.002h107h106v-182c0 -104 -16.333 -181.833 -49 -233.5s-87.334 -86.834 -164.001 -105.501v0v94v0c42 7.33301 71 30.666 87 69.999c12.667 30.667 20 77 22 139h-2h-107v109zM391.001 109.002l0.000976562 109.002h107h106v-182
c0 -104 -16.333 -181.833 -49 -233.5s-87.334 -86.834 -164.001 -105.501v0v94v0c42 7.33301 71 30.666 87 69.999c12.667 30.667 20 77 22 139h-2h-107v109z" />
    <glyph glyph-name="dagger" unicode="&#x2020;" 
d="M88 1039h385v0v431h193v-431v0h387v-154h-387v0v-1205h-193v1205v0h-385v154z" />
    <glyph glyph-name="daggerdbl" unicode="&#x2021;" 
d="M88 1057h385v0v413h193v-413v0h387v-160h-387v0v-648v0h387v-155h-387v0v-414h-193v414v0h-385v155h385v0v648v0h-385v160z" />
    <glyph glyph-name="bullet" unicode="&#x2022;" horiz-adv-x="717" 
d="M359 1058c90 0 166.167 -31.167 228.5 -93.5s93.5 -138.833 93.5 -229.5c0 -90 -31.167 -166.167 -93.5 -228.5s-138.5 -93.5 -228.5 -93.5s-166.167 31.167 -228.5 93.5s-93.5 138.5 -93.5 228.5c0 90.667 31.167 167.167 93.5 229.5s138.5 93.5 228.5 93.5z" />
    <glyph glyph-name="ellipsis" unicode="&#x2026;" horiz-adv-x="2048" 
d="M236 217h214v-217h-214v217zM917 217h214v-217h-214v217zM1598 217h214v-217h-214v217z" />
    <glyph glyph-name="perthousand" unicode="&#x2030;" horiz-adv-x="2048" 
d="M334 786c-87.333 0 -162.5 31.5 -225.5 94.5s-94.5 137.833 -94.5 224.5c0 87.333 31.5 162.5 94.5 225.5s138.167 94.5 225.5 94.5s162.666 -31.5 225.999 -94.5s95 -138.167 95 -225.5c0 -86.667 -31.667 -161.5 -95 -224.5s-138.666 -94.5 -225.999 -94.5v0zM334 1315
c-52.667 0 -98.167 -20.667 -136.5 -62s-57.5 -90.666 -57.5 -147.999c0 -56.667 19.167 -105.667 57.5 -147s83.833 -62 136.5 -62c53.333 0 99.166 20.667 137.499 62s57.5 90.333 57.5 147c0 57.333 -19.167 106.666 -57.5 147.999s-84.166 62 -137.499 62v0zM198 -34
l805 1474h110l-805 -1474h-110zM976 -6c-87.333 0 -162.5 31.5 -225.5 94.5s-94.5 137.833 -94.5 224.5c0 87.333 31.5 162.5 94.5 225.5s138.167 94.5 225.5 94.5s162.666 -31.5 225.999 -94.5s95 -138.167 95 -225.5c0 -86.667 -31.667 -161.5 -95 -224.5
s-138.666 -94.5 -225.999 -94.5v0zM976 523c-52.667 0 -98.167 -20.667 -136.5 -62s-57.5 -90.666 -57.5 -147.999c0 -56.667 19.167 -105.667 57.5 -147s83.833 -62 136.5 -62c53.333 0 99.166 20.667 137.499 62s57.5 90.333 57.5 147
c0 57.333 -19.167 106.666 -57.5 147.999s-84.166 62 -137.499 62v0zM1709 -6c-87.333 0 -162.5 31.5 -225.5 94.5s-94.5 137.833 -94.5 224.5c0 87.333 31.5 162.5 94.5 225.5s138.167 94.5 225.5 94.5s162.666 -31.5 225.999 -94.5s95 -138.167 95 -225.5
c0 -86.667 -31.667 -161.5 -95 -224.5s-138.666 -94.5 -225.999 -94.5v0zM1709 523c-52.667 0 -98.167 -20.667 -136.5 -62s-57.5 -90.666 -57.5 -147.999c0 -56.667 19.167 -105.667 57.5 -147s83.833 -62 136.5 -62c53.333 0 99.166 20.667 137.499 62
s57.5 90.333 57.5 147c0 57.333 -19.167 106.666 -57.5 147.999s-84.166 62 -137.499 62v0z" />
    <glyph glyph-name="guilsinglleft" unicode="&#x2039;" horiz-adv-x="682" 
d="M502 733l-216 -167v0l216 -167v-178l-322 249v96v96l322 249v-178z" />
    <glyph glyph-name="guilsinglright" unicode="&#x203a;" horiz-adv-x="682" 
d="M180 399l216 167v0l-216 167v178l322 -249v-96v-96l-322 -249v178z" />
    <glyph glyph-name="fraction" unicode="&#x2044;" horiz-adv-x="342" 
d="M681 1441l-902 -1485h-118l902 1485h118z" />
    <glyph glyph-name="uni2074" unicode="&#x2074;" horiz-adv-x="682" 
d="M391 774h-370v62v63l397 512h54h54v-527v0h126v-110h-126v0v-201h-135v201v0zM391 884v321v0v0l-237 -306l-12 -15v0h249z" />
    <glyph glyph-name="Euro" unicode="&#x20ac;" 
d="M1099 452c-21.333 -153.333 -73.6699 -273.501 -157.003 -360.501s-187.333 -130.5 -312 -130.5c-155.333 0 -275.666 64.333 -360.999 193c-53.333 81.333 -90 183.333 -110 306h-159l36 176h106v64v52h-142l36 176h123c22.667 123.333 63 227.333 121 312
c91.333 133.333 214.333 200 369 200c120.667 0 220.834 -40 300.501 -120s129.5 -190.667 149.5 -332v0h-192v0c-16.667 88 -48.167 156 -94.5 204s-103.166 72 -170.499 72c-92 0 -164.333 -50 -217 -150c-26.667 -52.667 -47 -114.667 -61 -186h421l-36 -176h-401l-1 -52
v-64h378l-36 -176h-323c12.667 -68 31.667 -126.667 57 -176c50 -98 121 -147 213 -147c67.333 0 124.5 27.333 171.5 82s80.167 132.334 99.5 233.001v0h192z" />
    <glyph glyph-name="trademark" unicode="&#x2122;" horiz-adv-x="2048" 
d="M351 625v722v0h-257v0v61v62v0h667v0v-61v-62v0h-258v0v-722v0h-76h-76v0zM1066 625h-73h-74v0v845v0h114h115v0l238 -618v0v0l234 618v0h114h115v0v-845v0h-73h-74v0v694v0l-263 -694h-55h-55l-263 684v0v-684z" />
    <glyph glyph-name="uni2126" unicode="&#x2126;" horiz-adv-x="1246" 
d="M599 0l-413.002 -0.00195312l-74 410l74 12c22 -92 42.5 -149 61.5 -171s57.167 -34 114.5 -36h79c-21.333 40.667 -51.166 94.334 -89.499 161.001l-109.5 184c-43.333 70.667 -77.666 141.167 -102.999 211.5s-38 130.5 -38 180.5
c0 139.333 49.833 250.833 149.5 334.5s234.167 126.834 403.5 129.501c160.667 0 293.167 -43 397.5 -129s156.5 -195.333 156.5 -328c0 -52.667 -12.5 -114.334 -37.5 -185.001s-59.5 -142 -103.5 -214l-95.5 -162l-103.5 -183h79c50 -0.666992 87.333 13.5 112 42.5
s46 83.833 64 164.5l73 -12l-74 -410h-412c81.333 225.333 124.5 345.666 129.5 360.999l30.5 97c30.667 98.667 54.167 190.834 70.5 276.501s24.5 158.167 24.5 217.5c0 108 -28.833 196.833 -86.5 266.5s-132.5 105.834 -224.5 108.501
c-92 -2.66699 -166.667 -38.334 -224 -107.001s-86 -157 -86 -265c0 -52 9.16699 -126 27.5 -222s40.833 -187.667 67.5 -275c16 -51.333 39.333 -121.166 70 -209.499z" />
    <glyph glyph-name="partialdiff" unicode="&#x2202;" horiz-adv-x="1020" 
d="M81 385c0 156 46.5078 294.833 139.508 416.5s198.833 182.5 317.5 182.5c32 0 64.167 -5.33301 96.5 -16s67.166 -27.334 104.499 -50.001c14 126.667 8.5 227.334 -16.5 302.001s-65.833 112 -122.5 112c-18.667 0 -38.834 -9.5 -60.501 -28.5
s-38.834 -42.5 -51.501 -70.5c-19.333 -42 -35.833 -69.5 -49.5 -82.5s-33.834 -19.5 -60.501 -19.5c-40 0 -68.833 16.333 -86.5 49s-16.834 68 2.49902 106c21.333 41.333 56.166 76.333 104.499 105s97.166 43 146.499 43c130.667 0 228.667 -51.667 294 -155
s97.666 -258.333 96.999 -465c0 -248 -48.5 -451 -145.5 -609s-221.167 -237 -372.5 -237c-98.667 0 -179.5 39 -242.5 117s-94.5 178 -94.5 300zM271.008 324c0 -76 14.667 -140.334 44 -193.001s65.333 -79 108 -79c72 0 133.333 59.333 184 178s76 262.334 76 431.001
c0 80 -13 140 -39 180s-65 60 -117 60c-71.333 0 -131.833 -55.833 -181.5 -167.5s-74.5 -248.167 -74.5 -409.5z" />
    <glyph glyph-name="uni2206" unicode="&#x2206;" horiz-adv-x="1360" 
d="M740 1391l582 -1391h-1285zM667 1077l-446 -883h799z" />
    <glyph glyph-name="product" unicode="&#x220f;" horiz-adv-x="2039" 
d="M197 -315v65c100.667 11.333 166.5 40.833 197.5 88.5s46.5 144.167 46.5 289.5v901c2 144.667 -12.5 240.834 -43.5 288.501s-97.833 77.167 -200.5 88.5v65h1645v-65c-100.667 -11.333 -166.5 -40.833 -197.5 -88.5s-46.5 -143.834 -46.5 -288.501v-901
c0 -145.333 15.5 -241.833 46.5 -289.5s96.833 -77.167 197.5 -88.5v-65h-704v65c104.667 11.333 172 40.333 202 87s44 143.667 42 291v1262h-725v-1262c0 -145.333 15.5 -241.833 46.5 -289.5s96.833 -77.167 197.5 -88.5v-65h-704z" />
    <glyph glyph-name="summation" unicode="&#x2211;" horiz-adv-x="2039" 
d="M416 -315l491 838l-482 948h1119l46 -366l-70 -14l-17 39c-36 94.667 -83.5 161.5 -142.5 200.5s-142.5 58.5 -250.5 58.5h-403l370 -740l-451 -756h524c92 0 165 17 219 51s103.667 94 149 180l22 41l70 -21l-117 -459h-1077z" />
    <glyph glyph-name="minus" unicode="&#x2212;" horiz-adv-x="1196" 
d="M114 590h968v-150h-968v150z" />
    <glyph glyph-name="uni2215" unicode="&#x2215;" horiz-adv-x="342" 
d="M681 1441l-902 -1485h-118l902 1485h118z" />
    <glyph glyph-name="uni2219" unicode="&#x2219;" horiz-adv-x="569" 
d="M158 830h214v-217h-214v217z" />
    <glyph glyph-name="radical" unicode="&#x221a;" horiz-adv-x="1473" 
d="M56 438l298 194l506 -750l480 1647h382v-86h-281l-553 -1817h-74l-570 821l-145 -105z" />
    <glyph glyph-name="infinity" unicode="&#x221e;" horiz-adv-x="2039" 
d="M283 569c0 119.333 38.832 220.001 116.499 302.001s172.834 123 285.501 123c81.333 0 151.5 -20.167 210.5 -60.5s117.5 -107.833 175.5 -202.5c49.333 72.667 101.833 127 157.5 163s114.834 54 177.501 54c102 0 185.5 -35.167 250.5 -105.5
s97.5 -160.833 97.5 -271.5c0 -108 -32.333 -197.667 -97 -269s-145.667 -107 -243 -107c-70 0 -133 18.833 -189 56.5s-101 91.5 -135 161.5c-70.667 -104 -132.834 -174 -186.501 -210s-122.5 -54 -206.5 -54c-116 0 -214 40.667 -294 122s-120 180.666 -120 297.999z
M393.999 567.001c0 -71.333 23.002 -131.667 69.002 -181s102.333 -74 169 -74c72.667 0 137.167 24.333 193.5 73s109.5 126 159.5 232c-42 75.333 -87.833 129.833 -137.5 163.5s-109.834 50.5 -180.501 50.5c-76.667 0 -141.334 -25.5 -194.001 -76.5
s-79 -113.5 -79 -187.5zM1643 569c0 64.667 -19.833 116.834 -59.5 156.501s-92.167 59.5 -157.5 59.5c-56 0 -104.667 -16.833 -146 -50.5s-82 -89.834 -122 -168.501c27.333 -66.667 64.5 -118 111.5 -154s100.167 -54 159.5 -54c65.333 0 117.333 19 156 57
s58 89.333 58 154z" />
    <glyph glyph-name="integral" unicode="&#x222b;" horiz-adv-x="2039" 
d="M752 -319c0 28 9.16504 52.166 27.498 72.499s40.166 30.5 65.499 30.5c23.333 0 43.333 -8.5 60 -25.5s25 -37.5 25 -61.5l-9 -60c-0.666992 -6 1.33301 -11.167 6 -15.5s11 -6.5 19 -6.5c34.667 -0.666992 57.834 28.333 69.501 87s9.16699 132.667 -7.5 222
c-24 127.333 -47 269 -69 425s-37 283.667 -45 383c-22 284.667 -14.333 495.334 23 632.001s106 205 206 205c44 0 81.333 -14 112 -42s46 -62 46 -102c0 -34.667 -7.83301 -60.667 -23.5 -78s-39.167 -26 -70.5 -26c-28 0 -49 6.33301 -63 19s-21 32 -21 58
c0 6.66699 5.33301 30.667 16 72c1.33301 5.33301 -0.5 10 -5.5 14s-11.833 6 -20.5 6c-51.333 0 -78 -43.5 -80 -130.5s19.667 -250.833 65 -491.5c36 -189.333 58.667 -389.5 68 -600.5s3 -374.833 -19 -491.5c-15.333 -80 -40.166 -140 -74.499 -180
s-78.166 -60 -131.499 -60c-47.333 0 -87.333 14 -120 42s-49 62.333 -49 103z" />
    <glyph glyph-name="approxequal" unicode="&#x2248;" horiz-adv-x="2039" 
d="M414 275c38 66.667 90.333 123.167 157 169.5s129.334 69.5 188.001 69.5c36.667 0 86.667 -7.16699 150 -21.5s135.333 -34.5 216 -60.5c45.333 -14.667 94.166 -27 146.499 -37s93.5 -15 123.5 -15c40 0 84 11.833 132 35.5s86.667 52.5 116 86.5l37 -22
c-32 -76.667 -77.333 -137.5 -136 -182.5s-122 -67.5 -190 -67.5c-20.667 0 -55.667 4.66699 -105 14s-99.333 21 -150 35c-108 29.333 -192.833 50.833 -254.5 64.5s-105.167 20.5 -130.5 20.5c-42.667 0 -90 -11.667 -142 -35s-94.333 -52 -127 -86zM414 626
c38 66.667 90.333 123.167 157 169.5s129.334 69.5 188.001 69.5c36.667 0 86.667 -7.16699 150 -21.5s135.333 -34.5 216 -60.5c45.333 -14.667 94.166 -27 146.499 -37s93.5 -15 123.5 -15c40 0 84 11.833 132 35.5s86.667 52.5 116 86.5l37 -22
c-32 -76.667 -77.333 -137.5 -136 -182.5s-122 -67.5 -190 -67.5c-20.667 0 -55.667 4.66699 -105 14s-99.333 21 -150 35c-108 29.333 -192.833 50.833 -254.5 64.5s-105.167 20.5 -130.5 20.5c-42.667 0 -90 -11.667 -142 -35s-94.333 -52 -127 -86z" />
    <glyph glyph-name="notequal" unicode="&#x2260;" horiz-adv-x="2039" 
d="M410 -93l318 372h-321v135h437l236 276h-673v135h788l317 367h164l-315 -367h312v-135h-427l-236 -276h663v-135h-779l-318 -372h-166z" />
    <glyph glyph-name="lessequal" unicode="&#x2264;" horiz-adv-x="2039" 
d="M1683 1235v-135l-1063 -410l1063 -309v-135l-1266 377v135zM417 135h1266v-135h-1266v135z" />
    <glyph glyph-name="greaterequal" unicode="&#x2265;" horiz-adv-x="2039" 
d="M417 1235l1266 -477v-135l-1266 -377v135l1063 309l-1063 410v135zM417 135h1266v-135h-1266v135z" />
    <glyph glyph-name="lozenge" unicode="&#x25ca;" horiz-adv-x="1171" 
d="M530 1423h110l404 -712l-404 -711h-110l-404 711zM585 1324l-349 -613l349 -615l349 615z" />
    <glyph glyph-name="uniEFED" unicode="&#xefed;" horiz-adv-x="682" 
d="M229 1846h186v-209h-186v209z" />
    <glyph glyph-name="uniEFEE" unicode="&#xefee;" horiz-adv-x="682" 
d="M362 1617c-94 0 -168.332 24.3311 -222.999 72.998s-85.667 117.334 -93 206.001h97c14 -55.333 39.167 -96.666 75.5 -123.999s84.166 -41 143.499 -41c64.667 0 113.5 12.333 146.5 37s57.167 67.334 72.5 128.001h97c-7.33301 -88.667 -38.333 -157.334 -93 -206.001
s-129 -73 -223 -73z" />
    <glyph glyph-name="uniEFEF" unicode="&#xefef;" horiz-adv-x="682" 
d="M29 1739h624v-125h-624v125z" />
    <glyph glyph-name="uniEFF0" unicode="&#xeff0;" horiz-adv-x="682" 
d="M58 1617l182 288h221l-264 -288h-139zM425 1617l182 288h221l-264 -288h-139z" />
    <glyph glyph-name="uniEFF1" unicode="&#xeff1;" horiz-adv-x="682" 
d="M104 -271c0 64 20.668 120.999 62.001 170.999s96 83.667 164 101h136v-8c-71.333 -36.667 -123.333 -74.167 -156 -112.5s-49 -83.5 -49 -135.5c0 -37.333 9.33301 -64.833 28 -82.5s47.667 -26.5 87 -26.5c22 0 44.5 2.83301 67.5 8.5s44.167 13.5 63.5 23.5l35 -82
c-25.333 -14 -56 -25.167 -92 -33.5s-70.667 -12.5 -104 -12.5c-72.667 0 -131.334 17.333 -176.001 52c-44 34.667 -66 80.334 -66 137.001z" />
    <glyph glyph-name="uniEFF2" unicode="&#xeff2;" horiz-adv-x="682" 
d="M390 2l-92.998 -128v0l60 7c54 0 96.333 -13.667 127 -41s46 -65 46 -113c0 -56 -22.167 -101.333 -66.5 -136s-102.5 -52 -174.5 -52c-24 0 -54.167 4 -90.5 12s-71.833 18.667 -106.5 32l34 82c24 -8.66699 48.333 -15.667 73 -21s45 -8 61 -8c39.333 0 68.333 7 87 21
s28 35.667 28 65c0 22.667 -9.33301 41.667 -28 57s-42.334 23 -71.001 23c-7.33301 0 -18.333 -1.5 -33 -4.5s-30.334 -7.16699 -47.001 -12.5l-34 38l131 179h97z" />
    <glyph glyph-name="uniEFF3" unicode="&#xeff3;" horiz-adv-x="682" 
d="M342 1528c-52.667 0 -97.167 18.167 -133.5 54.5s-54.5 80.833 -54.5 133.5s18.167 97.167 54.5 133.5s80.833 54.5 133.5 54.5s97.167 -18.167 133.5 -54.5s54.5 -80.833 54.5 -133.5s-18.167 -97.167 -54.5 -133.5s-80.833 -54.5 -133.5 -54.5v0zM342 1609
c30 0 55.333 10.333 76 31s31 46 31 76s-10.333 55.333 -31 76s-46 31 -76 31s-55.333 -10.333 -76 -31s-31 -46 -31 -76s10.333 -55.333 31 -76s46 -31 76 -31v0z" />
    <glyph glyph-name="uniEFF4" unicode="&#xeff4;" horiz-adv-x="682" 
d="M246 1614l-203 288h163l135 -192v0l135 192h163l-203 -288h-95h-95z" />
    <glyph glyph-name="uniEFF5" unicode="&#xeff5;" horiz-adv-x="682" 
d="M-7 1637c15.333 80 38.9971 137 70.9971 171s78 51 138 51c20 0 46.667 -4.33301 80 -13s62.333 -19 87 -31c18.667 -8.66699 40.5 -16 65.5 -22s46.167 -9 63.5 -9c23.333 0 42.833 7.83301 58.5 23.5s26.834 38.167 33.501 67.5h99c-16.667 -80 -41 -137 -73 -171
s-77.333 -51 -136 -51c-15.333 0 -39.666 4.33301 -72.999 13s-64.666 19 -93.999 31c-22 8.66699 -45.5 16 -70.5 22s-44.5 9 -58.5 9c-23.333 0 -43 -7.83301 -59 -23.5s-27 -38.167 -33 -67.5h-99z" />
    <glyph glyph-name="uniEFF6" unicode="&#xeff6;" horiz-adv-x="682" 
d="M82 1847h186v-210h-186v210zM414 1847h186v-210h-186v210z" />
    <glyph glyph-name="uniEFF7" unicode="&#xeff7;" horiz-adv-x="682" 
d="M436 1902l203 -288h-163l-135 192v0l-135 -192h-163l203 288h95h95z" />
    <glyph glyph-name="uniEFF8" unicode="&#xeff8;" horiz-adv-x="682" 
d="M297 1614l-268 288h223l180 -288h-135z" />
    <glyph glyph-name="uniEFF9" unicode="&#xeff9;" horiz-adv-x="682" 
d="M250 1614l182 288h221l-264 -288h-139z" />
    <glyph glyph-name="uniF001" unicode="&#xf001;" horiz-adv-x="1024" 
d="M357 921l0.000976562 -921.001v0h-90h-90v0v921v0h-148v149h148v0v182c0 79.333 23.333 139 70 179s116.667 60 210 60l79 -3v-162l-71 3c-34.667 0 -61.334 -11.167 -80.001 -33.5s-28 -54.166 -28 -95.499v-130v0h179v-149h-179zM707.001 -0.000976562v1070v0h90h90v0
v-1070v0h-90h-90v0zM705.001 1470h184v-204h-184v204z" />
    <glyph glyph-name="uniF002" unicode="&#xf002;" horiz-adv-x="1024" 
d="M357 921l0.000976562 -921.001v0h-90h-90v0v921v0h-148v149h148v0v182c0 79.333 23.333 139 70 179s116.667 60 210 60l79 -3v-162l-71 3c-34.667 0 -61.334 -11.167 -80.001 -33.5s-28 -54.166 -28 -95.499v-130v0h179v-149h-179zM707.001 -0.000976562v1470v0h90h90v0
v-1470v0h-90h-90v0z" />
    <glyph glyph-name="uniFB01" unicode="&#xfb01;" horiz-adv-x="1024" 
d="M357 921l0.000976562 -921.001v0h-90h-90v0v921v0h-148v149h148v0v182c0 79.333 23.333 139 70 179s116.667 60 210 60l79 -3v-162l-71 3c-34.667 0 -61.334 -11.167 -80.001 -33.5s-28 -54.166 -28 -95.499v-130v0h179v-149h-179zM707.001 -0.000976562v1070v0h90h90v0
v-1070v0h-90h-90v0zM705.001 1470h184v-204h-184v204z" />
    <glyph glyph-name="glyph1" horiz-adv-x="0" 
 />
    <glyph glyph-name="glyph106" horiz-adv-x="0" 
d="M-1 1503c219.333 0 404.831 -74.167 556.498 -222.5s227.5 -330.166 227.5 -545.499c0 -214.667 -75.667 -396.167 -227 -544.5s-337 -222.5 -557 -222.5c-219.333 0 -404.666 74.167 -555.999 222.5s-227 329.833 -227 544.5c0 215.333 75.833 397.166 227.5 545.499
s336.834 222.5 555.501 222.5v0zM625.998 735c0 178.667 -60.499 329.667 -181.499 453s-269.5 185 -445.5 185c-175.333 0 -323.5 -61.667 -444.5 -185s-181.5 -274.333 -181.5 -453s60.5 -329.5 181.5 -452.5s269.167 -184.5 444.5 -184.5s323.666 61.5 444.999 184.5
s182 273.833 182 452.5v0z" />
    <glyph glyph-name="glyph107" horiz-adv-x="0" 
d="M399 591c-22.667 -102 -70.168 -181.834 -142.501 -239.501s-160.5 -86.5 -264.5 -86.5c-123.333 0 -224.666 44 -303.999 132s-119 200.667 -119 338c0 144 39.667 258.5 119 343.5s186 127.5 320 127.5c104.667 0 191.667 -28.167 261 -84.5
s112.666 -133.833 129.999 -232.5v0h-136v0c-13.333 58.667 -42.5 104.167 -87.5 136.5s-102.167 48.5 -171.5 48.5c-86 0 -154.333 -30.667 -205 -92s-76 -143.666 -76 -246.999c0 -98.667 25.833 -179.667 77.5 -243s117.834 -95 198.501 -95
c67.333 0 124 16.833 170 50.5s77.333 81.5 94 143.5v0h136z" />
    <glyph glyph-name="glyph113" horiz-adv-x="0" 
d="M-1 1503c219.333 0 404.831 -74.167 556.498 -222.5s227.5 -330.166 227.5 -545.499c0 -214.667 -75.667 -396.167 -227 -544.5s-337 -222.5 -557 -222.5c-219.333 0 -404.666 74.167 -555.999 222.5s-227 329.833 -227 544.5c0 215.333 75.833 397.166 227.5 545.499
s336.834 222.5 555.501 222.5v0zM625.998 735c0 178.667 -60.499 329.667 -181.499 453s-269.5 185 -445.5 185c-175.333 0 -323.5 -61.667 -444.5 -185s-181.5 -274.333 -181.5 -453s60.5 -329.5 181.5 -452.5s269.167 -184.5 444.5 -184.5s323.666 61.5 444.999 184.5
s182 273.833 182 452.5v0z" />
    <glyph glyph-name="glyph114" horiz-adv-x="0" 
d="M-329 292v887v0h70v0h285c96 0 171.167 -21.167 225.5 -63.5s81.5 -101.166 81.5 -176.499c0 -82 -27.333 -146.333 -82 -193c-40.667 -34.667 -93 -56.334 -157 -65.001v0l255 -389v0h-80h-81v0l-229 384v0l-148 -1v0v-383v0h-70h-70v0zM-189 793h189
c65.333 0 113.166 11.667 143.499 35s45.5 60 45.5 110c0 44 -15.167 76.333 -45.5 97s-78.166 31 -143.499 31h-189v0v-273z" />
    <glyph glyph-name="glyph130" horiz-adv-x="682" 
d="M313 573v608v0l-225 -1v95c64 -3.33301 117 8.33398 159 35.001c42 27.333 75 70.666 99 129.999h110v0v-867v0h-71h-72v0z" />
    <glyph glyph-name="glyph131" horiz-adv-x="682" 
d="M391 774h-370v62v63l397 512h54h54v-527v0h126v-110h-126v0v-201h-135v201v0zM391 884v321v0v0l-237 -306l-12 -15v0h249z" />
    <glyph glyph-name="glyph133" horiz-adv-x="682" 
d="M313 573v608v0l-225 -1v95c64 -3.33301 117 8.33398 159 35.001c42 27.333 75 70.666 99 129.999h110v0v-867v0h-71h-72v0z" />
    <glyph glyph-name="glyph134" horiz-adv-x="682" 
d="M662 1176c0 -62 -17.5049 -113.334 -52.5049 -154.001s-101.167 -85.667 -198.5 -135c-104.667 -53.333 -176 -102 -214 -146c-11.333 -12.667 -20.666 -26.667 -27.999 -42v0h493v-126h-654v0c0 92 24.5 167.167 73.5 225.5s140.833 121.833 275.5 190.5
c62.667 32 105.334 61.5 128.001 88.5s34 61.833 34 104.5c0 44 -15 78.333 -45 103s-71.667 37 -125 37c-61.333 0 -106.666 -15.667 -135.999 -47s-45 -81 -47 -149v0h-132v0c-1.33301 98 26.834 174.833 84.501 230.5s138.167 83.5 241.5 83.5
c88.667 0 161.334 -24.667 218.001 -74c56 -49.333 84 -112.666 84 -189.999z" />
    <glyph glyph-name="glyph136" horiz-adv-x="682" 
d="M491 1198c0 40 -13.3281 70.501 -39.9951 91.501s-65.334 31.5 -116.001 31.5c-55.333 0 -97.5 -13.833 -126.5 -41.5s-44.833 -68.834 -47.5 -123.501v0h-125v0c0 90.667 27.5 160.667 82.5 210s132.833 74 233.5 74c86 0 154.5 -20.667 205.5 -62s76.5 -97 76.5 -167
c0 -65.333 -28.667 -119.666 -86 -162.999l-31 -21v0c25.333 -8.66699 47.333 -19.667 66 -33c55.333 -38.667 83 -95.667 83 -171c0 -82.667 -29.5 -148.334 -88.5 -197.001s-138.833 -73 -239.5 -73c-106.667 0 -186.834 23.333 -240.501 70s-82.834 118 -87.501 214v0
h141v0c5.33301 -59.333 22.666 -101.666 51.999 -126.999s75.666 -38 138.999 -38c58 0 102.833 12.833 134.5 38.5s47.5 62.167 47.5 109.5c0 49.333 -15.5 86.666 -46.5 111.999s-76.167 38 -135.5 38h-77v106h57c51.333 0 92.333 11 123 33s46 51.667 46 89z" />
    <glyph glyph-name="glyph137" horiz-adv-x="682" 
d="M391 774h-370v62v63l397 512h54h54v-527v0h126v-110h-126v0v-201h-135v201v0zM391 884v321v0v0l-237 -306l-12 -15v0h249z" />
    <glyph glyph-name="glyph140" horiz-adv-x="0" 
d="M-43 0l-268 288h223l180 -288h-135z" />
    <glyph glyph-name="glyph142" horiz-adv-x="0" 
d="M-97 0l182 288h221l-264 -288h-139z" />
    <glyph glyph-name="glyph144" horiz-adv-x="0" 
d="M95 288l203 -288h-163l-135 192v0l-135 -192h-163l203 288h95h95z" />
    <glyph glyph-name="glyph146" horiz-adv-x="0" 
d="M-342 23c15.333 80 38.9971 137 70.9971 171s78 51 138 51c20 0 46.667 -4.33301 80 -13s62.333 -19 87 -31c18.667 -8.66699 40.5 -16 65.5 -22s46.167 -9 63.5 -9c23.333 0 42.833 7.83301 58.5 23.5s26.834 38.167 33.501 67.5h99c-16.667 -80 -41 -137 -73 -171
s-77.333 -51 -136 -51c-15.333 0 -39.666 4.33301 -72.999 13s-64.666 19 -93.999 31c-22 8.66699 -45.5 16 -70.5 22s-44.5 9 -58.5 9c-23.333 0 -43 -7.83301 -59 -23.5s-27 -38.167 -33 -67.5h-99z" />
    <glyph glyph-name="glyph148" horiz-adv-x="0" 
d="M-259 233h186v-210h-186v210zM73 233h186v-210h-186v210z" />
    <glyph glyph-name="glyph150" horiz-adv-x="0" 
d="M-11 -86c-52.667 0 -97.167 18.167 -133.5 54.5s-54.5 80.833 -54.5 133.5s18.167 97.167 54.5 133.5s80.833 54.5 133.5 54.5s97.167 -18.167 133.5 -54.5s54.5 -80.833 54.5 -133.5s-18.167 -97.167 -54.5 -133.5s-80.833 -54.5 -133.5 -54.5v0zM-11 -5
c30 0 55.333 10.333 76 31s31 46 31 76s-10.333 55.333 -31 76s-46 31 -76 31s-55.333 -10.333 -76 -31s-31 -46 -31 -76s10.333 -55.333 31 -76s46 -31 76 -31v0z" />
    <glyph glyph-name="glyph153" horiz-adv-x="0" 
d="M31 2l-92.998 -128v0l60 7c54 0 96.333 -13.667 127 -41s46 -65 46 -113c0 -56 -22.167 -101.333 -66.5 -136s-102.5 -52 -174.5 -52c-24 0 -54.167 4 -90.5 12s-71.833 18.667 -106.5 32l34 82c24 -8.66699 48.333 -15.667 73 -21s45 -8 61 -8c39.333 0 68.333 7 87 21
s28 35.667 28 65c0 22.667 -9.33301 41.667 -28 57s-42.334 23 -71.001 23c-7.33301 0 -18.333 -1.5 -33 -4.5s-30.334 -7.16699 -47.001 -12.5l-34 38l131 179h97z" />
    <glyph glyph-name="glyph179" horiz-adv-x="0" 
d="M-43 0l-268 288h223l180 -288h-135z" />
    <glyph glyph-name="glyph181" horiz-adv-x="0" 
d="M-88 0l182 288h221l-264 -288h-139z" />
    <glyph glyph-name="glyph183" horiz-adv-x="0" 
d="M95 288l203 -288h-163l-135 192v0l-135 -192h-163l203 288h95h95z" />
    <glyph glyph-name="glyph185" horiz-adv-x="0" 
d="M-348 25c15.333 80 39.002 137 71.002 171s78 51 138 51c19.333 0 45.666 -4.33301 78.999 -13s62.666 -19 87.999 -31c18 -8.66699 39.5 -16 64.5 -22s46.5 -9 64.5 -9c23.333 0 42.833 7.83301 58.5 23.5s26.834 38.167 33.501 67.5h99c-16.667 -80 -41 -137 -73 -171
s-77.333 -51 -136 -51c-14.667 0 -38.834 4.33301 -72.501 13s-65.167 19 -94.5 31c-22 8.66699 -45.5 16 -70.5 22s-44.5 9 -58.5 9c-23.333 0 -43 -7.83301 -59 -23.5s-27 -38.167 -33 -67.5h-99z" />
    <glyph glyph-name="glyph187" horiz-adv-x="0" 
d="M-259 233h186v-210h-186v210zM73 233h186v-210h-186v210z" />
    <glyph glyph-name="glyph189" horiz-adv-x="0" 
d="M26 -42c-52.667 0 -97.167 18.167 -133.5 54.5s-54.5 80.833 -54.5 133.5s18.167 97.167 54.5 133.5s80.833 54.5 133.5 54.5s97.167 -18.167 133.5 -54.5s54.5 -80.833 54.5 -133.5s-18.167 -97.167 -54.5 -133.5s-80.833 -54.5 -133.5 -54.5v0zM26 39
c30 0 55.333 10.333 76 31s31 46 31 76s-10.333 55.333 -31 76s-46 31 -76 31s-55.333 -10.333 -76 -31s-31 -46 -31 -76s10.333 -55.333 31 -76s46 -31 76 -31v0z" />
    <glyph glyph-name="glyph192" horiz-adv-x="0" 
d="M31 2l-92.998 -128v0l60 7c54 0 96.333 -13.667 127 -41s46 -65 46 -113c0 -56 -22.167 -101.333 -66.5 -136s-102.5 -52 -174.5 -52c-24 0 -54.167 4 -90.5 12s-71.833 18.667 -106.5 32l34 82c24 -8.66699 48.333 -15.667 73 -21s45 -8 61 -8c39.333 0 68.333 7 87 21
s28 35.667 28 65c0 22.667 -9.33301 41.667 -28 57s-42.334 23 -71.001 23c-7.33301 0 -18.333 -1.5 -33 -4.5s-30.334 -7.16699 -47.001 -12.5l-34 38l131 179h97z" />
    <glyph glyph-name="glyph219" horiz-adv-x="0" 
d="M-312 125h624v-125h-624v125z" />
    <glyph glyph-name="glyph221" horiz-adv-x="0" 
d="M-312 125h624v-125h-624v125z" />
    <glyph glyph-name="glyph223" horiz-adv-x="0" 
d="M0 3c-94 0 -168.332 24.3311 -222.999 72.998s-85.667 117.334 -93 206.001h97c14 -55.333 39.167 -96.666 75.5 -123.999s84.166 -41 143.499 -41c64.667 0 113.5 12.333 146.5 37s57.167 67.334 72.5 128.001h97c-7.33301 -88.667 -38.333 -157.334 -93 -206.001
s-129 -73 -223 -73z" />
    <glyph glyph-name="glyph225" horiz-adv-x="0" 
d="M0 3c-94 0 -168.332 24.3311 -222.999 72.998s-85.667 117.334 -93 206.001h97c14 -55.333 39.167 -96.666 75.5 -123.999s84.166 -41 143.499 -41c64.667 0 113.5 12.333 146.5 37s57.167 67.334 72.5 128.001h97c-7.33301 -88.667 -38.333 -157.334 -93 -206.001
s-129 -73 -223 -73z" />
    <glyph glyph-name="glyph227" horiz-adv-x="0" 
d="M-226 -271c0 64 20.668 120.999 62.001 170.999s96 83.667 164 101h136v-8c-71.333 -36.667 -123.333 -74.167 -156 -112.5s-49 -83.5 -49 -135.5c0 -37.333 9.33301 -64.833 28 -82.5s47.667 -26.5 87 -26.5c22 0 44.5 2.83301 67.5 8.5s44.167 13.5 63.5 23.5l35 -82
c-25.333 -14 -56 -25.167 -92 -33.5s-70.667 -12.5 -104 -12.5c-72.667 0 -131.334 17.333 -176.001 52c-44 34.667 -66 80.334 -66 137.001z" />
    <glyph glyph-name="glyph229" horiz-adv-x="0" 
d="M-226 -271c0 64 20.668 120.999 62.001 170.999s96 83.667 164 101h136v-8c-71.333 -36.667 -123.333 -74.167 -156 -112.5s-49 -83.5 -49 -135.5c0 -37.333 9.33301 -64.833 28 -82.5s47.667 -26.5 87 -26.5c22 0 44.5 2.83301 67.5 8.5s44.167 13.5 63.5 23.5l35 -82
c-25.333 -14 -56 -25.167 -92 -33.5s-70.667 -12.5 -104 -12.5c-72.667 0 -131.334 17.333 -176.001 52c-44 34.667 -66 80.334 -66 137.001z" />
    <glyph glyph-name="glyph233" horiz-adv-x="0" 
d="M-90 0l-203 288h163l135 -192v0l135 192h163l-203 -288h-95h-95z" />
    <glyph glyph-name="glyph235" horiz-adv-x="0" 
d="M-78 0l-203 288h163l135 -192v0l135 192h163l-203 -288h-95h-95z" />
    <glyph glyph-name="glyph238" horiz-adv-x="0" 
d="M-301 -29c-143.333 0 -257.333 53.499 -342 160.499s-127 251.5 -127 433.5c0 160.667 41 290.334 123 389.001s189 148 321 148c131.333 0 235.333 -55.667 312 -167l14 -20v0v555v0h90h90v0v-1470v0h-83h-84v0v146v0l-23 -33c-74 -94.667 -171 -142 -291 -142z
M-291 939.999c-100.667 0 -174.332 -32.167 -220.999 -96.5s-70 -166.5 -70 -306.5c0 -132 25.167 -233.667 75.5 -305s122.166 -107 215.499 -107c87.333 0 157.666 32.833 210.999 98.5s80 152.5 80 260.5c0 146 -25.167 258.5 -75.5 337.5s-122.166 118.5 -215.499 118.5
z" />
    <glyph glyph-name="glyph239" horiz-adv-x="0" 
d="M-47 373l-0.000976562 99h94h94v-165c0 -107.333 -12.5 -180.5 -37.5 -219.5s-78.167 -68.167 -159.5 -87.5v0v84v0c38.667 6.66699 65.334 28 80.001 64c11.333 27.333 18 69.333 20 126v0h-91v99z" />
    <glyph glyph-name="glyph245" horiz-adv-x="0" 
d="M-93 232h186v-209h-186v209z" />
    <glyph glyph-name="glyph247" horiz-adv-x="0" 
d="M-93 232h186v-209h-186v209z" />
    <glyph glyph-name="glyph255" horiz-adv-x="0" 
d="M5 373l-0.000976562 99h94h94v-165c0 -107.333 -12.5 -180.5 -37.5 -219.5s-78.167 -68.167 -159.5 -87.5v0v84v0c38.667 6.66699 65.334 28 80.001 64c11.333 27.333 18 69.333 20 126v0h-91v99z" />
    <glyph glyph-name="glyph257" horiz-adv-x="0" 
d="M89 99l0.000976562 -99h-94h-94v165c0 107.333 12.5 180.5 37.5 219.5s78.167 68.167 159.5 87.5v0v-84v0c-38.667 -6.66699 -65.334 -28 -80.001 -64c-11.333 -27.333 -18 -69.333 -20 -126v0h91v-99z" />
    <glyph glyph-name="glyph282" horiz-adv-x="0" 
d="M-278 3l182 288h221l-264 -288h-139zM89 3l182 288h221l-264 -288h-139z" />
    <glyph glyph-name="glyph284" horiz-adv-x="0" 
d="M-286 0l182 288h221l-264 -288h-139zM81 0l182 288h221l-264 -288h-139z" />
    <glyph glyph-name="glyph300" horiz-adv-x="0" 
d="M-66 231l-0.000976562 99h94h94v-165c0 -107.333 -12.5 -180.5 -37.5 -219.5s-78.167 -68.167 -159.5 -87.5v0v84v0c38.667 6.66699 65.334 28 80.001 64c11.333 27.333 18 69.333 20 126v0h-91v99z" />
    <glyph glyph-name="glyph302" horiz-adv-x="0" 
d="M-47 231l-0.000976562 99h94h94v-165c0 -107.333 -12.5 -180.5 -37.5 -219.5s-78.167 -68.167 -159.5 -87.5v0v84v0c38.667 6.66699 65.334 28 80.001 64c11.333 27.333 18 69.333 20 126v0h-91v99z" />
    <glyph glyph-name="glyph350" horiz-adv-x="0" 
d="M-76 625v722v0h-257v0v61v62v0h667v0v-61v-62v0h-258v0v-722v0h-76h-76v0z" />
    <glyph glyph-name="glyph351" horiz-adv-x="0" 
d="M-318 625h-73h-74v0v845v0h114h115v0l238 -618v0v0l234 618v0h114h115v0v-845v0h-73h-74v0v694v0l-263 -694h-55h-55l-263 684v0v-684z" />
  </font>
</defs>
</svg>
